%
M48
M72
T01C0.02362
T02C0.03200
T03C0.03937
T04C0.05200
T05C0.06600
T06C0.11024
%
T01
X43233Y41006
X38233Y44756
X43233Y46006
X43233Y51006
X38233Y51006
X43233Y56006
X48233Y56006
X48233Y51006
X48233Y46006
X48233Y41006
X78233Y41006
X83233Y41006
X83233Y46006
X78233Y46006
X78233Y51006
X83233Y51006
X86983Y51006
X89483Y47256
X88233Y42256
X95733Y47256
X103233Y47256
X110733Y47256
X118233Y47256
X125733Y47256
X133233Y47256
X140733Y47256
X148233Y47256
X155733Y47256
X163233Y47256
X170733Y47256
X178233Y47256
X185733Y47256
X193233Y47256
X200733Y47256
X208233Y47256
X215733Y47256
X223233Y47256
X230733Y47256
X238233Y47256
X245733Y47256
X253233Y47256
X260733Y47256
X268233Y47256
X275733Y47256
X283233Y47256
X290733Y47256
X298233Y47256
X304483Y47256
X308233Y43506
X313233Y41006
X318233Y41006
X318233Y46006
X313233Y46006
X313233Y51006
X318233Y51006
X318233Y56006
X313233Y56006
X308233Y56006
X308233Y51006
X283233Y69756
X289483Y72256
X295733Y77256
X300733Y82256
X305733Y87256
X310733Y92256
X318233Y94756
X324483Y96006
X324483Y102256
X324483Y109756
X324483Y117256
X324483Y124756
X324483Y132256
X326983Y138506
X333233Y142256
X341983Y142256
X348233Y137256
X355733Y129756
X349483Y128506
X359483Y134756
X359483Y142256
X359483Y149756
X361983Y156006
X366983Y161006
X350733Y156006
X345733Y161006
X345733Y173506
X326983Y173506
X320733Y173506
X314483Y173506
X308233Y173506
X301983Y173506
X301983Y167256
X301983Y161006
X301983Y154756
X301983Y148506
X306983Y143506
X306983Y138506
X301983Y132256
X301983Y124756
X301983Y117256
X301983Y109756
X301983Y102256
X301983Y96006
X334483Y94756
X339483Y98506
X334483Y102256
X354483Y102256
X359483Y98506
X354483Y94756
X383233Y133506
X379483Y137256
X383233Y139756
X379483Y143506
X383233Y148506
X366983Y178506
X366983Y184756
X366983Y191006
X345733Y193506
X345733Y206006
X341983Y213506
X341983Y223506
X350733Y227256
X358233Y226006
X373233Y212256
X383233Y212256
X360733Y239756
X353233Y239756
X345733Y239756
X336983Y239756
X328233Y239756
X319483Y239756
X310733Y239756
X301983Y239756
X293233Y239756
X285733Y239756
X278233Y239756
X269483Y239756
X261983Y239756
X254483Y239756
X245733Y239756
X234483Y239756
X221983Y239756
X210733Y239756
X200733Y239756
X193233Y239756
X185733Y239756
X178233Y239756
X170733Y239756
X163233Y239756
X155733Y239756
X148233Y239756
X140733Y239756
X133233Y239756
X125733Y239756
X118233Y239756
X110733Y239756
X103233Y239756
X95733Y239756
X88233Y239756
X80733Y239756
X73233Y239756
X65733Y239756
X58233Y239756
X50733Y239756
X43233Y239756
X35733Y239756
X40733Y227256
X51983Y227256
X56983Y218506
X56983Y211006
X50733Y207256
X50733Y194756
X69483Y194756
X75733Y194756
X81983Y194756
X88233Y194756
X88233Y201006
X88233Y207256
X88233Y213506
X88233Y219756
X95733Y219756
X103233Y219756
X110733Y219756
X118233Y219756
X125733Y219756
X133233Y219756
X140733Y219756
X148233Y219756
X155733Y219756
X163233Y219756
X170733Y219756
X178233Y219756
X185733Y219756
X193233Y219756
X200733Y219756
X210733Y219756
X210733Y212256
X210733Y206006
X210733Y199756
X221983Y199756
X221983Y206006
X228233Y206006
X228233Y199756
X234483Y199756
X234483Y206006
X245733Y206006
X245733Y199756
X245733Y193506
X240733Y193506
X234483Y193506
X228233Y193506
X228233Y188506
X221983Y193506
X215733Y193506
X210733Y193506
X228233Y177256
X231983Y172256
X234483Y166006
X234483Y158506
X234483Y151006
X234483Y143506
X234483Y136006
X234483Y128506
X234483Y121006
X233233Y116006
X226983Y116006
X226983Y111006
X233233Y111006
X233233Y104756
X226983Y104756
X220733Y104756
X214483Y104756
X214483Y111006
X220733Y111006
X220733Y116006
X214483Y116006
X239483Y116006
X245733Y116006
X245733Y111006
X245733Y104756
X233233Y98506
X226983Y98506
X226983Y93506
X233233Y93506
X220733Y93506
X214483Y93506
X214483Y98506
X220733Y98506
X223233Y69756
X215733Y69756
X208233Y69756
X200733Y69756
X193233Y69756
X185733Y69756
X178233Y69756
X170733Y69756
X163233Y69756
X155733Y69756
X148233Y69756
X140733Y69756
X133233Y69756
X125733Y69756
X118233Y69756
X110733Y69756
X105733Y72256
X100733Y77256
X95733Y82256
X90733Y87256
X85733Y92256
X79483Y93506
X70733Y93506
X61983Y98506
X56983Y94756
X56983Y102256
X70733Y101006
X70733Y108506
X70733Y116006
X70733Y123506
X70733Y131006
X69483Y138506
X64483Y142256
X58233Y142256
X50733Y139756
X48233Y133506
X46983Y128506
X40733Y128506
X38233Y134756
X38233Y142256
X38233Y151006
X29483Y161006
X50733Y159756
X50733Y172256
X69483Y173506
X75733Y173506
X81983Y173506
X88233Y173506
X88233Y167256
X88233Y161006
X88233Y153506
X86983Y147256
X86983Y142256
X86983Y137256
X88233Y131006
X88233Y123506
X88233Y116006
X88233Y108506
X88233Y101006
X41983Y98506
X36983Y94756
X36983Y102256
X11983Y133506
X16983Y137256
X11983Y141006
X16983Y144756
X11983Y148506
X29483Y177256
X29483Y183506
X29483Y189756
X29483Y196006
X21983Y212256
X11983Y212256
X105733Y168506
X136983Y146006
X136983Y139756
X143233Y146006
X149483Y146006
X149483Y152256
X155733Y152256
X161983Y152256
X161983Y146006
X168233Y146006
X173233Y142256
X175733Y147256
X179483Y142256
X185733Y142256
X186983Y147256
X188233Y152256
X193233Y152256
X198233Y152256
X203233Y152256
X204483Y147256
X198233Y142256
X193233Y136006
X193233Y131006
X210733Y142256
X213233Y146006
X168233Y133506
X161983Y133506
X155733Y133506
X149483Y133506
X143233Y133506
X136983Y133506
X230733Y69756
X238233Y69756
X245733Y69756
X253233Y69756
X260733Y69756
X268233Y69756
X275733Y69756
X348233Y56006
X348233Y51006
X348233Y46006
X348233Y41006
X353233Y41006
X359483Y44756
X353233Y46006
X353233Y51006
X358233Y49756
X353233Y56006
X275733Y127256
X280733Y129756
X275733Y133506
X280733Y136006
X275733Y139756
X280733Y142256
X275733Y146006
X280733Y148506
X268233Y149756
X268233Y127256
X301983Y193506
X308233Y193506
X314483Y193506
X320733Y193506
X326983Y193506
X301983Y199756
X301983Y206006
X301983Y212256
X301983Y219756
X293233Y219756
X285733Y219756
X278233Y219756
X269483Y219756
X261983Y219756
X254483Y219756
X245733Y219756
X245733Y212256
X86983Y56006
X83233Y56006
X78233Y56006
T02
X130733Y83506
X130733Y113506
X185733Y113506
X185733Y83506
X265733Y83506
X265733Y113506
X265733Y168506
X265733Y198506
X130733Y198506
X130733Y168506
T03
X58981Y131223
X27485Y145790
X44985Y216223
X76481Y230790
X319985Y230790
X351481Y216223
X368981Y145790
X337485Y131223
T04
X337333Y113506
X356933Y113506
X376633Y113506
X376633Y84006
X356933Y84006
X337333Y84006
X278233Y84006
X278233Y113506
X278233Y169006
X278233Y198506
X337333Y198506
X356933Y198506
X376633Y198506
X376633Y169006
X356933Y169006
X337333Y169006
X118233Y168506
X118233Y198006
X59133Y198006
X39533Y198006
X19833Y198006
X19833Y168506
X39533Y168506
X59133Y168506
X59133Y113006
X39533Y113006
X19833Y113006
X19833Y83506
X39533Y83506
X59133Y83506
X118233Y83506
X118233Y113006
T05
X154183Y93506
X169783Y93506
T06
X23233Y56006
X23233Y228506
X373233Y228506
X373233Y56006
M30
