G75*
%MOIN*%
%OFA0B0*%
%FSLAX25Y25*%
%IPPOS*%
%LPD*%
%AMOC8*
5,1,8,0,0,1.08239X$1,22.5*
%
%ADD10C,0.05600*%
%ADD11C,0.21000*%
%ADD12C,0.09900*%
%ADD13C,0.07800*%
%ADD14OC8,0.07000*%
%ADD15R,0.09000X0.20000*%
%ADD16C,0.01000*%
%ADD17OC8,0.04362*%
%ADD18C,0.05000*%
%ADD19C,0.10000*%
%ADD20C,0.06600*%
%ADD21C,0.03200*%
%ADD22C,0.04000*%
%ADD23OC8,0.05000*%
D10*
X0130733Y0080706D02*
X0130733Y0086306D01*
X0130733Y0110706D02*
X0130733Y0116306D01*
X0185733Y0116306D02*
X0185733Y0110706D01*
X0185733Y0086306D02*
X0185733Y0080706D01*
X0265733Y0080706D02*
X0265733Y0086306D01*
X0265733Y0110706D02*
X0265733Y0116306D01*
X0265733Y0165706D02*
X0265733Y0171306D01*
X0265733Y0195706D02*
X0265733Y0201306D01*
X0130733Y0201306D02*
X0130733Y0195706D01*
X0130733Y0171306D02*
X0130733Y0165706D01*
D11*
X0023233Y0228506D03*
X0023233Y0056006D03*
X0373233Y0056006D03*
X0373233Y0228506D03*
D12*
X0169783Y0098456D02*
X0169783Y0088556D01*
X0154183Y0088556D02*
X0154183Y0098456D01*
D13*
X0118233Y0109106D02*
X0118233Y0116906D01*
X0118233Y0087406D02*
X0118233Y0079606D01*
X0059133Y0079606D02*
X0059133Y0087406D01*
X0039533Y0087406D02*
X0039533Y0079606D01*
X0019833Y0079606D02*
X0019833Y0087406D01*
X0019833Y0109106D02*
X0019833Y0116906D01*
X0039533Y0116906D02*
X0039533Y0109106D01*
X0059133Y0109106D02*
X0059133Y0116906D01*
X0059133Y0164606D02*
X0059133Y0172406D01*
X0039533Y0172406D02*
X0039533Y0164606D01*
X0019833Y0164606D02*
X0019833Y0172406D01*
X0019833Y0194106D02*
X0019833Y0201906D01*
X0039533Y0201906D02*
X0039533Y0194106D01*
X0059133Y0194106D02*
X0059133Y0201906D01*
X0118233Y0201906D02*
X0118233Y0194106D01*
X0118233Y0172406D02*
X0118233Y0164606D01*
X0278233Y0165106D02*
X0278233Y0172906D01*
X0278233Y0194606D02*
X0278233Y0202406D01*
X0337333Y0202406D02*
X0337333Y0194606D01*
X0356933Y0194606D02*
X0356933Y0202406D01*
X0376633Y0202406D02*
X0376633Y0194606D01*
X0376633Y0172906D02*
X0376633Y0165106D01*
X0356933Y0165106D02*
X0356933Y0172906D01*
X0337333Y0172906D02*
X0337333Y0165106D01*
X0337333Y0117406D02*
X0337333Y0109606D01*
X0356933Y0109606D02*
X0356933Y0117406D01*
X0376633Y0117406D02*
X0376633Y0109606D01*
X0376633Y0087906D02*
X0376633Y0080106D01*
X0356933Y0080106D02*
X0356933Y0087906D01*
X0337333Y0087906D02*
X0337333Y0080106D01*
X0278233Y0080106D02*
X0278233Y0087906D01*
X0278233Y0109606D02*
X0278233Y0117406D01*
D14*
X0337485Y0131223D03*
X0368981Y0145790D03*
X0351481Y0216223D03*
X0319985Y0230790D03*
X0076481Y0230790D03*
X0044985Y0216223D03*
X0027485Y0145790D03*
X0058981Y0131223D03*
D15*
X0045833Y0048606D03*
X0080633Y0048606D03*
X0315833Y0048606D03*
X0350633Y0048606D03*
D16*
X0350133Y0048491D02*
X0316333Y0048491D01*
X0316333Y0048106D02*
X0316333Y0049106D01*
X0315333Y0049106D01*
X0315333Y0048106D01*
X0309833Y0048106D01*
X0309833Y0043006D01*
X0086633Y0043006D01*
X0086633Y0048106D01*
X0081133Y0048106D01*
X0081133Y0043006D01*
X0080133Y0043006D01*
X0080133Y0048106D01*
X0074633Y0048106D01*
X0074633Y0043006D01*
X0051833Y0043006D01*
X0051833Y0048106D01*
X0046333Y0048106D01*
X0046333Y0043006D01*
X0045333Y0043006D01*
X0045333Y0048106D01*
X0039833Y0048106D01*
X0039833Y0043006D01*
X0010233Y0043006D01*
X0010233Y0242707D01*
X0386155Y0242707D01*
X0386155Y0043006D01*
X0356633Y0043006D01*
X0356633Y0048106D01*
X0351133Y0048106D01*
X0351133Y0043006D01*
X0350133Y0043006D01*
X0350133Y0048106D01*
X0344633Y0048106D01*
X0344633Y0043006D01*
X0321833Y0043006D01*
X0321833Y0048106D01*
X0316333Y0048106D01*
X0316333Y0043006D01*
X0315333Y0043006D01*
X0315333Y0048106D01*
X0316333Y0048106D01*
X0316333Y0047493D02*
X0315333Y0047493D01*
X0315333Y0048491D02*
X0081133Y0048491D01*
X0081133Y0048106D02*
X0081133Y0049106D01*
X0080133Y0049106D01*
X0080133Y0048106D01*
X0081133Y0048106D01*
X0081133Y0047493D02*
X0080133Y0047493D01*
X0080133Y0048491D02*
X0046333Y0048491D01*
X0046333Y0048106D02*
X0046333Y0049106D01*
X0045333Y0049106D01*
X0045333Y0048106D01*
X0046333Y0048106D01*
X0046333Y0047493D02*
X0045333Y0047493D01*
X0045333Y0048491D02*
X0032589Y0048491D01*
X0032195Y0047998D02*
X0033035Y0049051D01*
X0033753Y0050193D01*
X0034337Y0051407D01*
X0034782Y0052679D01*
X0035082Y0053993D01*
X0035233Y0055332D01*
X0035233Y0055506D01*
X0023733Y0055506D01*
X0023733Y0044006D01*
X0023907Y0044006D01*
X0025247Y0044157D01*
X0026561Y0044457D01*
X0027833Y0044902D01*
X0029047Y0045487D01*
X0030188Y0046204D01*
X0031242Y0047044D01*
X0032195Y0047998D01*
X0031690Y0047493D02*
X0039833Y0047493D01*
X0039833Y0046494D02*
X0030552Y0046494D01*
X0029061Y0045496D02*
X0039833Y0045496D01*
X0039833Y0044497D02*
X0026676Y0044497D01*
X0023733Y0044497D02*
X0022733Y0044497D01*
X0022733Y0044006D02*
X0022733Y0055506D01*
X0011233Y0055506D01*
X0011233Y0055332D01*
X0011384Y0053993D01*
X0011684Y0052679D01*
X0012129Y0051407D01*
X0012714Y0050193D01*
X0013431Y0049051D01*
X0014272Y0047998D01*
X0015225Y0047044D01*
X0016278Y0046204D01*
X0017420Y0045487D01*
X0018634Y0044902D01*
X0019906Y0044457D01*
X0021220Y0044157D01*
X0022559Y0044006D01*
X0022733Y0044006D01*
X0022733Y0045496D02*
X0023733Y0045496D01*
X0023733Y0046494D02*
X0022733Y0046494D01*
X0022733Y0047493D02*
X0023733Y0047493D01*
X0023733Y0048491D02*
X0022733Y0048491D01*
X0022733Y0049490D02*
X0023733Y0049490D01*
X0023733Y0050488D02*
X0022733Y0050488D01*
X0022733Y0051487D02*
X0023733Y0051487D01*
X0023733Y0052485D02*
X0022733Y0052485D01*
X0022733Y0053484D02*
X0023733Y0053484D01*
X0023733Y0054482D02*
X0022733Y0054482D01*
X0022733Y0055481D02*
X0023733Y0055481D01*
X0023733Y0055506D02*
X0022733Y0055506D01*
X0022733Y0056506D01*
X0011233Y0056506D01*
X0011233Y0056680D01*
X0011384Y0058020D01*
X0011684Y0059334D01*
X0012129Y0060606D01*
X0012714Y0061820D01*
X0013431Y0062961D01*
X0014272Y0064015D01*
X0015225Y0064968D01*
X0016278Y0065808D01*
X0017420Y0066526D01*
X0018634Y0067110D01*
X0019906Y0067555D01*
X0021220Y0067855D01*
X0022559Y0068006D01*
X0022733Y0068006D01*
X0022733Y0056506D01*
X0023733Y0056506D01*
X0023733Y0068006D01*
X0023907Y0068006D01*
X0025247Y0067855D01*
X0026561Y0067555D01*
X0027833Y0067110D01*
X0029047Y0066526D01*
X0030188Y0065808D01*
X0031242Y0064968D01*
X0032195Y0064015D01*
X0033035Y0062961D01*
X0033753Y0061820D01*
X0034337Y0060606D01*
X0034782Y0059334D01*
X0035082Y0058020D01*
X0035233Y0056680D01*
X0035233Y0056506D01*
X0023733Y0056506D01*
X0023733Y0055506D01*
X0023733Y0056480D02*
X0039833Y0056480D01*
X0039833Y0057478D02*
X0035143Y0057478D01*
X0034978Y0058477D02*
X0039833Y0058477D01*
X0039833Y0058804D02*
X0039833Y0049106D01*
X0045333Y0049106D01*
X0045333Y0060106D01*
X0041136Y0060106D01*
X0040754Y0060004D01*
X0040412Y0059807D01*
X0040133Y0059527D01*
X0039936Y0059185D01*
X0039833Y0058804D01*
X0040103Y0059475D02*
X0034733Y0059475D01*
X0034384Y0060474D02*
X0362083Y0060474D01*
X0362129Y0060606D02*
X0361684Y0059334D01*
X0361384Y0058020D01*
X0361233Y0056680D01*
X0361233Y0056506D01*
X0372733Y0056506D01*
X0372733Y0055506D01*
X0361233Y0055506D01*
X0361233Y0055332D01*
X0361384Y0053993D01*
X0361684Y0052679D01*
X0362129Y0051407D01*
X0362714Y0050193D01*
X0363431Y0049051D01*
X0364272Y0047998D01*
X0365225Y0047044D01*
X0366278Y0046204D01*
X0367420Y0045487D01*
X0368634Y0044902D01*
X0369906Y0044457D01*
X0371220Y0044157D01*
X0372559Y0044006D01*
X0372733Y0044006D01*
X0372733Y0055506D01*
X0373733Y0055506D01*
X0373733Y0044006D01*
X0373907Y0044006D01*
X0375247Y0044157D01*
X0376561Y0044457D01*
X0377833Y0044902D01*
X0379047Y0045487D01*
X0380188Y0046204D01*
X0381242Y0047044D01*
X0382195Y0047998D01*
X0383035Y0049051D01*
X0383753Y0050193D01*
X0384337Y0051407D01*
X0384782Y0052679D01*
X0385082Y0053993D01*
X0385233Y0055332D01*
X0385233Y0055506D01*
X0373733Y0055506D01*
X0373733Y0056506D01*
X0372733Y0056506D01*
X0372733Y0068006D01*
X0372559Y0068006D01*
X0371220Y0067855D01*
X0369906Y0067555D01*
X0368634Y0067110D01*
X0367420Y0066526D01*
X0366278Y0065808D01*
X0365225Y0064968D01*
X0364272Y0064015D01*
X0363431Y0062961D01*
X0362714Y0061820D01*
X0362129Y0060606D01*
X0362547Y0061472D02*
X0033920Y0061472D01*
X0033344Y0062471D02*
X0363123Y0062471D01*
X0363836Y0063469D02*
X0032631Y0063469D01*
X0031743Y0064468D02*
X0364724Y0064468D01*
X0365849Y0065466D02*
X0030618Y0065466D01*
X0029144Y0066465D02*
X0367323Y0066465D01*
X0369642Y0067463D02*
X0026824Y0067463D01*
X0023733Y0067463D02*
X0022733Y0067463D01*
X0022733Y0066465D02*
X0023733Y0066465D01*
X0023733Y0065466D02*
X0022733Y0065466D01*
X0022733Y0064468D02*
X0023733Y0064468D01*
X0023733Y0063469D02*
X0022733Y0063469D01*
X0022733Y0062471D02*
X0023733Y0062471D01*
X0023733Y0061472D02*
X0022733Y0061472D01*
X0022733Y0060474D02*
X0023733Y0060474D01*
X0023733Y0059475D02*
X0022733Y0059475D01*
X0022733Y0058477D02*
X0023733Y0058477D01*
X0023733Y0057478D02*
X0022733Y0057478D01*
X0022733Y0056480D02*
X0010233Y0056480D01*
X0010233Y0057478D02*
X0011323Y0057478D01*
X0011489Y0058477D02*
X0010233Y0058477D01*
X0010233Y0059475D02*
X0011734Y0059475D01*
X0012083Y0060474D02*
X0010233Y0060474D01*
X0010233Y0061472D02*
X0012547Y0061472D01*
X0013123Y0062471D02*
X0010233Y0062471D01*
X0010233Y0063469D02*
X0013836Y0063469D01*
X0014724Y0064468D02*
X0010233Y0064468D01*
X0010233Y0065466D02*
X0015849Y0065466D01*
X0017323Y0066465D02*
X0010233Y0066465D01*
X0010233Y0067463D02*
X0019642Y0067463D01*
X0018162Y0071206D02*
X0021504Y0071206D01*
X0024592Y0072485D01*
X0026954Y0074848D01*
X0028233Y0077935D01*
X0028233Y0089077D01*
X0027633Y0090526D01*
X0027633Y0105987D01*
X0028233Y0107435D01*
X0028233Y0118577D01*
X0027633Y0120026D01*
X0027633Y0121875D01*
X0032652Y0126894D01*
X0034846Y0129088D01*
X0036033Y0131955D01*
X0036033Y0146593D01*
X0035485Y0147916D01*
X0035485Y0149103D01*
X0035285Y0149303D01*
X0035285Y0150806D01*
X0034098Y0153673D01*
X0027633Y0160137D01*
X0027633Y0161487D01*
X0028233Y0162935D01*
X0028233Y0174077D01*
X0027633Y0175526D01*
X0027633Y0190987D01*
X0028233Y0192435D01*
X0028233Y0197780D01*
X0031133Y0200680D01*
X0031133Y0192435D01*
X0031683Y0191108D01*
X0031683Y0175405D01*
X0031133Y0174077D01*
X0031133Y0162935D01*
X0032412Y0159848D01*
X0034775Y0157485D01*
X0037862Y0156206D01*
X0041204Y0156206D01*
X0044292Y0157485D01*
X0046654Y0159848D01*
X0047933Y0162935D01*
X0047933Y0174077D01*
X0047283Y0175646D01*
X0047283Y0190866D01*
X0047933Y0192435D01*
X0047933Y0203577D01*
X0046654Y0206665D01*
X0045096Y0208223D01*
X0048299Y0208223D01*
X0052985Y0212909D01*
X0052985Y0219537D01*
X0048299Y0224223D01*
X0041672Y0224223D01*
X0039772Y0222323D01*
X0036836Y0222323D01*
X0034594Y0221394D01*
X0022920Y0209720D01*
X0021504Y0210306D01*
X0018162Y0210306D01*
X0015075Y0209027D01*
X0012712Y0206665D01*
X0011433Y0203577D01*
X0011433Y0192435D01*
X0012033Y0190987D01*
X0012033Y0175526D01*
X0011433Y0174077D01*
X0011433Y0162935D01*
X0012033Y0161487D01*
X0012033Y0155355D01*
X0013221Y0152488D01*
X0015415Y0150294D01*
X0019485Y0146223D01*
X0019485Y0142476D01*
X0020433Y0141528D01*
X0020433Y0136737D01*
X0013221Y0129525D01*
X0012033Y0126658D01*
X0012033Y0120026D01*
X0011433Y0118577D01*
X0011433Y0107435D01*
X0012033Y0105987D01*
X0012033Y0090526D01*
X0011433Y0089077D01*
X0011433Y0077935D01*
X0012712Y0074848D01*
X0015075Y0072485D01*
X0018162Y0071206D01*
X0017557Y0071457D02*
X0010233Y0071457D01*
X0010233Y0070459D02*
X0037105Y0070459D01*
X0037594Y0070256D02*
X0041373Y0070256D01*
X0044865Y0071703D01*
X0047537Y0074375D01*
X0048983Y0077867D01*
X0048983Y0110996D01*
X0049033Y0111117D01*
X0049033Y0114896D01*
X0048983Y0115017D01*
X0048983Y0119146D01*
X0047537Y0122638D01*
X0044865Y0125310D01*
X0041373Y0126756D01*
X0037594Y0126756D01*
X0034102Y0125310D01*
X0031430Y0122638D01*
X0029983Y0119146D01*
X0029983Y0111167D01*
X0029983Y0077867D01*
X0031430Y0074375D01*
X0034102Y0071703D01*
X0037594Y0070256D01*
X0034694Y0071457D02*
X0022110Y0071457D01*
X0024520Y0072456D02*
X0033349Y0072456D01*
X0032350Y0073454D02*
X0025561Y0073454D01*
X0026559Y0074453D02*
X0031397Y0074453D01*
X0030984Y0075451D02*
X0027204Y0075451D01*
X0027618Y0076450D02*
X0030570Y0076450D01*
X0030157Y0077448D02*
X0028032Y0077448D01*
X0028233Y0078447D02*
X0029983Y0078447D01*
X0029983Y0079445D02*
X0028233Y0079445D01*
X0028233Y0080444D02*
X0029983Y0080444D01*
X0029983Y0081442D02*
X0028233Y0081442D01*
X0028233Y0082441D02*
X0029983Y0082441D01*
X0029983Y0083439D02*
X0028233Y0083439D01*
X0028233Y0084438D02*
X0029983Y0084438D01*
X0029983Y0085436D02*
X0028233Y0085436D01*
X0028233Y0086435D02*
X0029983Y0086435D01*
X0029983Y0087433D02*
X0028233Y0087433D01*
X0028233Y0088432D02*
X0029983Y0088432D01*
X0029983Y0089430D02*
X0028087Y0089430D01*
X0027673Y0090429D02*
X0029983Y0090429D01*
X0029983Y0091427D02*
X0027633Y0091427D01*
X0027633Y0092426D02*
X0029983Y0092426D01*
X0029983Y0093424D02*
X0027633Y0093424D01*
X0027633Y0094423D02*
X0029983Y0094423D01*
X0029983Y0095421D02*
X0027633Y0095421D01*
X0027633Y0096420D02*
X0029983Y0096420D01*
X0029983Y0097418D02*
X0027633Y0097418D01*
X0027633Y0098417D02*
X0029983Y0098417D01*
X0029983Y0099415D02*
X0027633Y0099415D01*
X0027633Y0100414D02*
X0029983Y0100414D01*
X0029983Y0101413D02*
X0027633Y0101413D01*
X0027633Y0102411D02*
X0029983Y0102411D01*
X0029983Y0103410D02*
X0027633Y0103410D01*
X0027633Y0104408D02*
X0029983Y0104408D01*
X0029983Y0105407D02*
X0027633Y0105407D01*
X0027807Y0106405D02*
X0029983Y0106405D01*
X0029983Y0107404D02*
X0028220Y0107404D01*
X0028233Y0108402D02*
X0029983Y0108402D01*
X0029983Y0109401D02*
X0028233Y0109401D01*
X0028233Y0110399D02*
X0029983Y0110399D01*
X0029983Y0111398D02*
X0028233Y0111398D01*
X0028233Y0112396D02*
X0029983Y0112396D01*
X0029983Y0113395D02*
X0028233Y0113395D01*
X0028233Y0114393D02*
X0029983Y0114393D01*
X0029983Y0115392D02*
X0028233Y0115392D01*
X0028233Y0116390D02*
X0029983Y0116390D01*
X0029983Y0117389D02*
X0028233Y0117389D01*
X0028233Y0118387D02*
X0029983Y0118387D01*
X0030083Y0119386D02*
X0027898Y0119386D01*
X0027633Y0120384D02*
X0030496Y0120384D01*
X0030910Y0121383D02*
X0027633Y0121383D01*
X0028139Y0122381D02*
X0031323Y0122381D01*
X0032172Y0123380D02*
X0029138Y0123380D01*
X0030136Y0124378D02*
X0033170Y0124378D01*
X0034263Y0125377D02*
X0031135Y0125377D01*
X0032133Y0126375D02*
X0036674Y0126375D01*
X0034130Y0128372D02*
X0049983Y0128372D01*
X0049983Y0127374D02*
X0033132Y0127374D01*
X0034963Y0129371D02*
X0049983Y0129371D01*
X0049983Y0130369D02*
X0035377Y0130369D01*
X0035790Y0131368D02*
X0049983Y0131368D01*
X0049983Y0132366D02*
X0036033Y0132366D01*
X0036033Y0133365D02*
X0050178Y0133365D01*
X0049983Y0132896D02*
X0049983Y0079117D01*
X0051430Y0075625D01*
X0051875Y0075180D01*
X0052012Y0074848D01*
X0054375Y0072485D01*
X0057462Y0071206D01*
X0060804Y0071206D01*
X0063892Y0072485D01*
X0064001Y0072595D01*
X0064865Y0072953D01*
X0067537Y0075625D01*
X0068983Y0079117D01*
X0068983Y0132896D01*
X0067537Y0136388D01*
X0064865Y0139060D01*
X0061373Y0140506D01*
X0057594Y0140506D01*
X0054102Y0139060D01*
X0051430Y0136388D01*
X0049983Y0132896D01*
X0050591Y0134363D02*
X0036033Y0134363D01*
X0036033Y0135362D02*
X0051005Y0135362D01*
X0051418Y0136360D02*
X0036033Y0136360D01*
X0036033Y0137359D02*
X0052401Y0137359D01*
X0053399Y0138357D02*
X0036033Y0138357D01*
X0036033Y0139356D02*
X0054816Y0139356D01*
X0057227Y0140354D02*
X0036033Y0140354D01*
X0036033Y0141353D02*
X0361683Y0141353D01*
X0361683Y0141774D02*
X0361683Y0130705D01*
X0362871Y0127838D01*
X0365065Y0125644D01*
X0368833Y0121875D01*
X0368833Y0120526D01*
X0368233Y0119077D01*
X0368233Y0107935D01*
X0368833Y0106487D01*
X0368833Y0091026D01*
X0368233Y0089577D01*
X0368233Y0078435D01*
X0369512Y0075348D01*
X0371875Y0072985D01*
X0374962Y0071706D01*
X0378304Y0071706D01*
X0381392Y0072985D01*
X0383754Y0075348D01*
X0385033Y0078435D01*
X0385033Y0089577D01*
X0384433Y0091026D01*
X0384433Y0106487D01*
X0385033Y0107935D01*
X0385033Y0119077D01*
X0384433Y0120526D01*
X0384433Y0126658D01*
X0383246Y0129525D01*
X0377283Y0135487D01*
X0377283Y0145275D01*
X0383246Y0151238D01*
X0384433Y0154105D01*
X0384433Y0161987D01*
X0385033Y0163435D01*
X0385033Y0174577D01*
X0384433Y0176026D01*
X0384433Y0191487D01*
X0385033Y0192935D01*
X0385033Y0204077D01*
X0383754Y0207165D01*
X0381392Y0209527D01*
X0378304Y0210806D01*
X0374962Y0210806D01*
X0373547Y0210220D01*
X0362372Y0221394D01*
X0360130Y0222323D01*
X0356695Y0222323D01*
X0354795Y0224223D01*
X0348168Y0224223D01*
X0343481Y0219537D01*
X0343481Y0212909D01*
X0348168Y0208223D01*
X0350870Y0208223D01*
X0349812Y0207165D01*
X0348533Y0204077D01*
X0348533Y0192935D01*
X0349183Y0191366D01*
X0349183Y0176146D01*
X0348533Y0174577D01*
X0348533Y0163435D01*
X0349812Y0160348D01*
X0352175Y0157985D01*
X0355262Y0156706D01*
X0358604Y0156706D01*
X0361692Y0157985D01*
X0364054Y0160348D01*
X0365333Y0163435D01*
X0365333Y0174577D01*
X0364783Y0175905D01*
X0364783Y0191608D01*
X0365333Y0192935D01*
X0365333Y0201180D01*
X0368233Y0198280D01*
X0368233Y0192935D01*
X0368833Y0191487D01*
X0368833Y0176026D01*
X0368233Y0174577D01*
X0368233Y0163435D01*
X0368833Y0161987D01*
X0368833Y0158887D01*
X0365065Y0155119D01*
X0362871Y0152925D01*
X0361683Y0150058D01*
X0361683Y0149805D01*
X0360981Y0149103D01*
X0360981Y0142476D01*
X0361683Y0141774D01*
X0361106Y0142351D02*
X0036033Y0142351D01*
X0036033Y0143350D02*
X0360981Y0143350D01*
X0360981Y0144348D02*
X0036033Y0144348D01*
X0036033Y0145347D02*
X0360981Y0145347D01*
X0360981Y0146346D02*
X0036033Y0146346D01*
X0035722Y0147344D02*
X0360981Y0147344D01*
X0360981Y0148343D02*
X0035485Y0148343D01*
X0035285Y0149341D02*
X0361219Y0149341D01*
X0361800Y0150340D02*
X0035285Y0150340D01*
X0035065Y0151338D02*
X0362214Y0151338D01*
X0362627Y0152337D02*
X0034651Y0152337D01*
X0034238Y0153335D02*
X0363281Y0153335D01*
X0364280Y0154334D02*
X0033437Y0154334D01*
X0032438Y0155332D02*
X0365278Y0155332D01*
X0366277Y0156331D02*
X0041504Y0156331D01*
X0043915Y0157329D02*
X0275059Y0157329D01*
X0276562Y0156706D02*
X0279904Y0156706D01*
X0282992Y0157985D01*
X0285354Y0160348D01*
X0286633Y0163435D01*
X0286633Y0174577D01*
X0285354Y0177665D01*
X0282992Y0180027D01*
X0279904Y0181306D01*
X0276562Y0181306D01*
X0273475Y0180027D01*
X0271112Y0177665D01*
X0270698Y0176665D01*
X0269868Y0177495D01*
X0267185Y0178606D01*
X0264281Y0178606D01*
X0261598Y0177495D01*
X0259545Y0175441D01*
X0258433Y0172758D01*
X0258433Y0164254D01*
X0259545Y0161571D01*
X0261598Y0159518D01*
X0264281Y0158406D01*
X0267185Y0158406D01*
X0269868Y0159518D01*
X0270991Y0160640D01*
X0271112Y0160348D01*
X0273475Y0157985D01*
X0276562Y0156706D01*
X0273133Y0158328D02*
X0045134Y0158328D01*
X0046133Y0159326D02*
X0057951Y0159326D01*
X0057869Y0159339D02*
X0057060Y0159602D01*
X0056303Y0159988D01*
X0055615Y0160487D01*
X0055014Y0161088D01*
X0054515Y0161776D01*
X0054129Y0162533D01*
X0053866Y0163342D01*
X0053733Y0164181D01*
X0053733Y0168006D01*
X0058633Y0168006D01*
X0058633Y0169006D01*
X0053733Y0169006D01*
X0053733Y0172831D01*
X0053866Y0173671D01*
X0054129Y0174479D01*
X0054515Y0175237D01*
X0055014Y0175924D01*
X0055615Y0176525D01*
X0056303Y0177025D01*
X0057060Y0177411D01*
X0057869Y0177673D01*
X0058633Y0177794D01*
X0058633Y0169006D01*
X0059633Y0169006D01*
X0059633Y0177794D01*
X0060398Y0177673D01*
X0061206Y0177411D01*
X0061964Y0177025D01*
X0062651Y0176525D01*
X0063252Y0175924D01*
X0063752Y0175237D01*
X0064138Y0174479D01*
X0064400Y0173671D01*
X0064533Y0172831D01*
X0064533Y0169006D01*
X0059633Y0169006D01*
X0059633Y0168006D01*
X0059633Y0159218D01*
X0060398Y0159339D01*
X0061206Y0159602D01*
X0061964Y0159988D01*
X0062651Y0160487D01*
X0063252Y0161088D01*
X0063752Y0161776D01*
X0064138Y0162533D01*
X0064400Y0163342D01*
X0064533Y0164181D01*
X0064533Y0168006D01*
X0059633Y0168006D01*
X0058633Y0168006D01*
X0058633Y0159218D01*
X0057869Y0159339D01*
X0058633Y0159326D02*
X0059633Y0159326D01*
X0060315Y0159326D02*
X0117051Y0159326D01*
X0116969Y0159339D02*
X0116160Y0159602D01*
X0115403Y0159988D01*
X0114715Y0160487D01*
X0114114Y0161088D01*
X0113615Y0161776D01*
X0113229Y0162533D01*
X0112966Y0163342D01*
X0112833Y0164181D01*
X0112833Y0168006D01*
X0117733Y0168006D01*
X0117733Y0169006D01*
X0112833Y0169006D01*
X0112833Y0172831D01*
X0112966Y0173671D01*
X0113229Y0174479D01*
X0113615Y0175237D01*
X0114114Y0175924D01*
X0114715Y0176525D01*
X0115403Y0177025D01*
X0116160Y0177411D01*
X0116969Y0177673D01*
X0117733Y0177794D01*
X0117733Y0169006D01*
X0118733Y0169006D01*
X0118733Y0177794D01*
X0119498Y0177673D01*
X0120306Y0177411D01*
X0121064Y0177025D01*
X0121751Y0176525D01*
X0122352Y0175924D01*
X0122852Y0175237D01*
X0123238Y0174479D01*
X0123500Y0173671D01*
X0123633Y0172831D01*
X0123633Y0169006D01*
X0118733Y0169006D01*
X0118733Y0168006D01*
X0118733Y0159218D01*
X0119498Y0159339D01*
X0120306Y0159602D01*
X0121064Y0159988D01*
X0121751Y0160487D01*
X0122352Y0161088D01*
X0122852Y0161776D01*
X0123238Y0162533D01*
X0123500Y0163342D01*
X0123633Y0164181D01*
X0123633Y0168006D01*
X0118733Y0168006D01*
X0117733Y0168006D01*
X0117733Y0159218D01*
X0116969Y0159339D01*
X0117733Y0159326D02*
X0118733Y0159326D01*
X0119415Y0159326D02*
X0262060Y0159326D01*
X0260791Y0160325D02*
X0121527Y0160325D01*
X0122523Y0161323D02*
X0259793Y0161323D01*
X0259234Y0162322D02*
X0133390Y0162322D01*
X0133535Y0162426D02*
X0134013Y0162905D01*
X0134411Y0163453D01*
X0134718Y0164056D01*
X0134927Y0164699D01*
X0135033Y0165368D01*
X0135033Y0168206D01*
X0131033Y0168206D01*
X0131033Y0161406D01*
X0131072Y0161406D01*
X0131740Y0161512D01*
X0132384Y0161721D01*
X0132987Y0162029D01*
X0133535Y0162426D01*
X0134315Y0163320D02*
X0258820Y0163320D01*
X0258433Y0164319D02*
X0134804Y0164319D01*
X0135025Y0165317D02*
X0258433Y0165317D01*
X0258433Y0166316D02*
X0135033Y0166316D01*
X0135033Y0167314D02*
X0258433Y0167314D01*
X0258433Y0168313D02*
X0131033Y0168313D01*
X0131033Y0168206D02*
X0131033Y0168806D01*
X0130433Y0168806D01*
X0130433Y0168206D01*
X0126433Y0168206D01*
X0126433Y0165368D01*
X0126539Y0164699D01*
X0126748Y0164056D01*
X0127056Y0163453D01*
X0127453Y0162905D01*
X0127932Y0162426D01*
X0128480Y0162029D01*
X0129083Y0161721D01*
X0129726Y0161512D01*
X0130395Y0161406D01*
X0130433Y0161406D01*
X0130433Y0168206D01*
X0131033Y0168206D01*
X0131033Y0168806D02*
X0135033Y0168806D01*
X0135033Y0171645D01*
X0134927Y0172313D01*
X0134718Y0172957D01*
X0134411Y0173560D01*
X0134013Y0174108D01*
X0133535Y0174586D01*
X0132987Y0174984D01*
X0132384Y0175291D01*
X0131740Y0175500D01*
X0131072Y0175606D01*
X0131033Y0175606D01*
X0131033Y0168806D01*
X0131033Y0169311D02*
X0130433Y0169311D01*
X0130433Y0168806D02*
X0130433Y0175606D01*
X0130395Y0175606D01*
X0129726Y0175500D01*
X0129083Y0175291D01*
X0128480Y0174984D01*
X0127932Y0174586D01*
X0127453Y0174108D01*
X0127056Y0173560D01*
X0126748Y0172957D01*
X0126539Y0172313D01*
X0126433Y0171645D01*
X0126433Y0168806D01*
X0130433Y0168806D01*
X0130433Y0168313D02*
X0118733Y0168313D01*
X0118733Y0169311D02*
X0117733Y0169311D01*
X0117733Y0168313D02*
X0112733Y0168313D01*
X0112733Y0169311D02*
X0112833Y0169311D01*
X0112833Y0170310D02*
X0112733Y0170310D01*
X0112733Y0171308D02*
X0112833Y0171308D01*
X0112733Y0171406D02*
X0111833Y0172306D01*
X0111833Y0188627D01*
X0113475Y0186985D01*
X0116562Y0185706D01*
X0119904Y0185706D01*
X0122992Y0186985D01*
X0125354Y0189348D01*
X0125768Y0190347D01*
X0126598Y0189518D01*
X0129281Y0188406D01*
X0132185Y0188406D01*
X0134868Y0189518D01*
X0136922Y0191571D01*
X0138033Y0194254D01*
X0138033Y0202758D01*
X0136922Y0205441D01*
X0134868Y0207495D01*
X0132185Y0208606D01*
X0129281Y0208606D01*
X0126598Y0207495D01*
X0125476Y0206372D01*
X0125354Y0206665D01*
X0122992Y0209027D01*
X0119904Y0210306D01*
X0116562Y0210306D01*
X0113475Y0209027D01*
X0111112Y0206665D01*
X0110260Y0204606D01*
X0108270Y0204606D01*
X0106028Y0203678D01*
X0102278Y0199928D01*
X0100562Y0198212D01*
X0099633Y0195970D01*
X0099633Y0172306D01*
X0098733Y0171406D01*
X0098733Y0165607D01*
X0102834Y0161506D01*
X0108633Y0161506D01*
X0112733Y0165607D01*
X0112733Y0171406D01*
X0112833Y0172307D02*
X0111833Y0172307D01*
X0111833Y0173305D02*
X0112908Y0173305D01*
X0113172Y0174304D02*
X0111833Y0174304D01*
X0111833Y0175302D02*
X0113663Y0175302D01*
X0114491Y0176301D02*
X0111833Y0176301D01*
X0111833Y0177299D02*
X0115942Y0177299D01*
X0117733Y0177299D02*
X0118733Y0177299D01*
X0118733Y0176301D02*
X0117733Y0176301D01*
X0117733Y0175302D02*
X0118733Y0175302D01*
X0118733Y0174304D02*
X0117733Y0174304D01*
X0117733Y0173305D02*
X0118733Y0173305D01*
X0118733Y0172307D02*
X0117733Y0172307D01*
X0117733Y0171308D02*
X0118733Y0171308D01*
X0118733Y0170310D02*
X0117733Y0170310D01*
X0117733Y0167314D02*
X0118733Y0167314D01*
X0118733Y0166316D02*
X0117733Y0166316D01*
X0117733Y0165317D02*
X0118733Y0165317D01*
X0118733Y0164319D02*
X0117733Y0164319D01*
X0117733Y0163320D02*
X0118733Y0163320D01*
X0118733Y0162322D02*
X0117733Y0162322D01*
X0117733Y0161323D02*
X0118733Y0161323D01*
X0118733Y0160325D02*
X0117733Y0160325D01*
X0114939Y0160325D02*
X0062427Y0160325D01*
X0063423Y0161323D02*
X0113944Y0161323D01*
X0113337Y0162322D02*
X0109448Y0162322D01*
X0110447Y0163320D02*
X0112973Y0163320D01*
X0112833Y0164319D02*
X0111445Y0164319D01*
X0112444Y0165317D02*
X0112833Y0165317D01*
X0112833Y0166316D02*
X0112733Y0166316D01*
X0112733Y0167314D02*
X0112833Y0167314D01*
X0123633Y0167314D02*
X0126433Y0167314D01*
X0126433Y0166316D02*
X0123633Y0166316D01*
X0123633Y0165317D02*
X0126441Y0165317D01*
X0126663Y0164319D02*
X0123633Y0164319D01*
X0123493Y0163320D02*
X0127152Y0163320D01*
X0128076Y0162322D02*
X0123130Y0162322D01*
X0130433Y0162322D02*
X0131033Y0162322D01*
X0131033Y0163320D02*
X0130433Y0163320D01*
X0130433Y0164319D02*
X0131033Y0164319D01*
X0131033Y0165317D02*
X0130433Y0165317D01*
X0130433Y0166316D02*
X0131033Y0166316D01*
X0131033Y0167314D02*
X0130433Y0167314D01*
X0130433Y0170310D02*
X0131033Y0170310D01*
X0131033Y0171308D02*
X0130433Y0171308D01*
X0130433Y0172307D02*
X0131033Y0172307D01*
X0131033Y0173305D02*
X0130433Y0173305D01*
X0130433Y0174304D02*
X0131033Y0174304D01*
X0131033Y0175302D02*
X0130433Y0175302D01*
X0129117Y0175302D02*
X0122804Y0175302D01*
X0123295Y0174304D02*
X0127650Y0174304D01*
X0126926Y0173305D02*
X0123558Y0173305D01*
X0123633Y0172307D02*
X0126538Y0172307D01*
X0126433Y0171308D02*
X0123633Y0171308D01*
X0123633Y0170310D02*
X0126433Y0170310D01*
X0126433Y0169311D02*
X0123633Y0169311D01*
X0121976Y0176301D02*
X0260404Y0176301D01*
X0259487Y0175302D02*
X0132350Y0175302D01*
X0133817Y0174304D02*
X0259073Y0174304D01*
X0258660Y0173305D02*
X0134541Y0173305D01*
X0134928Y0172307D02*
X0258433Y0172307D01*
X0258433Y0171308D02*
X0135033Y0171308D01*
X0135033Y0170310D02*
X0258433Y0170310D01*
X0258433Y0169311D02*
X0135033Y0169311D01*
X0120525Y0177299D02*
X0261403Y0177299D01*
X0263537Y0178298D02*
X0111833Y0178298D01*
X0111833Y0179296D02*
X0272744Y0179296D01*
X0271746Y0178298D02*
X0267930Y0178298D01*
X0270064Y0177299D02*
X0270961Y0177299D01*
X0274121Y0180295D02*
X0111833Y0180295D01*
X0111833Y0181293D02*
X0276531Y0181293D01*
X0279935Y0181293D02*
X0349183Y0181293D01*
X0349183Y0180295D02*
X0282346Y0180295D01*
X0283723Y0179296D02*
X0349183Y0179296D01*
X0349183Y0178298D02*
X0284721Y0178298D01*
X0285506Y0177299D02*
X0334193Y0177299D01*
X0334503Y0177525D02*
X0333815Y0177025D01*
X0333214Y0176424D01*
X0332715Y0175737D01*
X0332329Y0174979D01*
X0332066Y0174171D01*
X0331933Y0173331D01*
X0331933Y0169506D01*
X0336833Y0169506D01*
X0336833Y0168506D01*
X0331933Y0168506D01*
X0331933Y0164681D01*
X0332066Y0163842D01*
X0332329Y0163033D01*
X0332715Y0162276D01*
X0333214Y0161588D01*
X0333815Y0160987D01*
X0334503Y0160488D01*
X0335260Y0160102D01*
X0336069Y0159839D01*
X0336833Y0159718D01*
X0336833Y0168506D01*
X0337833Y0168506D01*
X0337833Y0159718D01*
X0338598Y0159839D01*
X0339406Y0160102D01*
X0340164Y0160488D01*
X0340851Y0160987D01*
X0341452Y0161588D01*
X0341952Y0162276D01*
X0342338Y0163033D01*
X0342600Y0163842D01*
X0342733Y0164681D01*
X0342733Y0168506D01*
X0337833Y0168506D01*
X0337833Y0169506D01*
X0336833Y0169506D01*
X0336833Y0178294D01*
X0336069Y0178173D01*
X0335260Y0177911D01*
X0334503Y0177525D01*
X0333125Y0176301D02*
X0285919Y0176301D01*
X0286333Y0175302D02*
X0332494Y0175302D01*
X0332110Y0174304D02*
X0286633Y0174304D01*
X0286633Y0173305D02*
X0331933Y0173305D01*
X0331933Y0172307D02*
X0286633Y0172307D01*
X0286633Y0171308D02*
X0331933Y0171308D01*
X0331933Y0170310D02*
X0286633Y0170310D01*
X0286633Y0169311D02*
X0336833Y0169311D01*
X0336833Y0168313D02*
X0337833Y0168313D01*
X0337833Y0169311D02*
X0348533Y0169311D01*
X0348533Y0168313D02*
X0342733Y0168313D01*
X0342733Y0167314D02*
X0348533Y0167314D01*
X0348533Y0166316D02*
X0342733Y0166316D01*
X0342733Y0165317D02*
X0348533Y0165317D01*
X0348533Y0164319D02*
X0342676Y0164319D01*
X0342431Y0163320D02*
X0348581Y0163320D01*
X0348995Y0162322D02*
X0341975Y0162322D01*
X0341187Y0161323D02*
X0349408Y0161323D01*
X0349836Y0160325D02*
X0339843Y0160325D01*
X0337833Y0160325D02*
X0336833Y0160325D01*
X0336833Y0161323D02*
X0337833Y0161323D01*
X0337833Y0162322D02*
X0336833Y0162322D01*
X0336833Y0163320D02*
X0337833Y0163320D01*
X0337833Y0164319D02*
X0336833Y0164319D01*
X0336833Y0165317D02*
X0337833Y0165317D01*
X0337833Y0166316D02*
X0336833Y0166316D01*
X0336833Y0167314D02*
X0337833Y0167314D01*
X0337833Y0169506D02*
X0342733Y0169506D01*
X0342733Y0173331D01*
X0342600Y0174171D01*
X0342338Y0174979D01*
X0341952Y0175737D01*
X0341452Y0176424D01*
X0340851Y0177025D01*
X0340164Y0177525D01*
X0339406Y0177911D01*
X0338598Y0178173D01*
X0337833Y0178294D01*
X0337833Y0169506D01*
X0337833Y0170310D02*
X0336833Y0170310D01*
X0336833Y0171308D02*
X0337833Y0171308D01*
X0337833Y0172307D02*
X0336833Y0172307D01*
X0336833Y0173305D02*
X0337833Y0173305D01*
X0337833Y0174304D02*
X0336833Y0174304D01*
X0336833Y0175302D02*
X0337833Y0175302D01*
X0337833Y0176301D02*
X0336833Y0176301D01*
X0336833Y0177299D02*
X0337833Y0177299D01*
X0340474Y0177299D02*
X0349183Y0177299D01*
X0349183Y0176301D02*
X0341542Y0176301D01*
X0342173Y0175302D02*
X0348834Y0175302D01*
X0348533Y0174304D02*
X0342557Y0174304D01*
X0342733Y0173305D02*
X0348533Y0173305D01*
X0348533Y0172307D02*
X0342733Y0172307D01*
X0342733Y0171308D02*
X0348533Y0171308D01*
X0348533Y0170310D02*
X0342733Y0170310D01*
X0331933Y0168313D02*
X0286633Y0168313D01*
X0286633Y0167314D02*
X0331933Y0167314D01*
X0331933Y0166316D02*
X0286633Y0166316D01*
X0286633Y0165317D02*
X0331933Y0165317D01*
X0331991Y0164319D02*
X0286633Y0164319D01*
X0286586Y0163320D02*
X0332236Y0163320D01*
X0332692Y0162322D02*
X0286172Y0162322D01*
X0285758Y0161323D02*
X0333480Y0161323D01*
X0334823Y0160325D02*
X0285331Y0160325D01*
X0284333Y0159326D02*
X0350834Y0159326D01*
X0351833Y0158328D02*
X0283334Y0158328D01*
X0281408Y0157329D02*
X0353759Y0157329D01*
X0360108Y0157329D02*
X0367275Y0157329D01*
X0368274Y0158328D02*
X0362034Y0158328D01*
X0363033Y0159326D02*
X0368833Y0159326D01*
X0368833Y0160325D02*
X0364031Y0160325D01*
X0364458Y0161323D02*
X0368833Y0161323D01*
X0368695Y0162322D02*
X0364872Y0162322D01*
X0365286Y0163320D02*
X0368281Y0163320D01*
X0368233Y0164319D02*
X0365333Y0164319D01*
X0365333Y0165317D02*
X0368233Y0165317D01*
X0368233Y0166316D02*
X0365333Y0166316D01*
X0365333Y0167314D02*
X0368233Y0167314D01*
X0368233Y0168313D02*
X0365333Y0168313D01*
X0365333Y0169311D02*
X0368233Y0169311D01*
X0368233Y0170310D02*
X0365333Y0170310D01*
X0365333Y0171308D02*
X0368233Y0171308D01*
X0368233Y0172307D02*
X0365333Y0172307D01*
X0365333Y0173305D02*
X0368233Y0173305D01*
X0368233Y0174304D02*
X0365333Y0174304D01*
X0365033Y0175302D02*
X0368534Y0175302D01*
X0368833Y0176301D02*
X0364783Y0176301D01*
X0364783Y0177299D02*
X0368833Y0177299D01*
X0368833Y0178298D02*
X0364783Y0178298D01*
X0364783Y0179296D02*
X0368833Y0179296D01*
X0368833Y0180295D02*
X0364783Y0180295D01*
X0364783Y0181293D02*
X0368833Y0181293D01*
X0368833Y0182292D02*
X0364783Y0182292D01*
X0364783Y0183290D02*
X0368833Y0183290D01*
X0368833Y0184289D02*
X0364783Y0184289D01*
X0364783Y0185287D02*
X0368833Y0185287D01*
X0368833Y0186286D02*
X0364783Y0186286D01*
X0364783Y0187284D02*
X0368833Y0187284D01*
X0368833Y0188283D02*
X0364783Y0188283D01*
X0364783Y0189282D02*
X0368833Y0189282D01*
X0368833Y0190280D02*
X0364783Y0190280D01*
X0364783Y0191279D02*
X0368833Y0191279D01*
X0368506Y0192277D02*
X0365061Y0192277D01*
X0365333Y0193276D02*
X0368233Y0193276D01*
X0368233Y0194274D02*
X0365333Y0194274D01*
X0365333Y0195273D02*
X0368233Y0195273D01*
X0368233Y0196271D02*
X0365333Y0196271D01*
X0365333Y0197270D02*
X0368233Y0197270D01*
X0368233Y0198268D02*
X0365333Y0198268D01*
X0365333Y0199267D02*
X0367246Y0199267D01*
X0366248Y0200265D02*
X0365333Y0200265D01*
X0356983Y0198506D02*
X0356933Y0198506D01*
X0348533Y0198268D02*
X0337833Y0198268D01*
X0337833Y0198006D02*
X0337833Y0199006D01*
X0336833Y0199006D01*
X0336833Y0198006D01*
X0331933Y0198006D01*
X0331933Y0194181D01*
X0332066Y0193342D01*
X0332329Y0192533D01*
X0332715Y0191776D01*
X0333214Y0191088D01*
X0333815Y0190487D01*
X0334503Y0189988D01*
X0335260Y0189602D01*
X0336069Y0189339D01*
X0336833Y0189218D01*
X0336833Y0198006D01*
X0337833Y0198006D01*
X0337833Y0189218D01*
X0338598Y0189339D01*
X0339406Y0189602D01*
X0340164Y0189988D01*
X0340851Y0190487D01*
X0341452Y0191088D01*
X0341952Y0191776D01*
X0342338Y0192533D01*
X0342600Y0193342D01*
X0342733Y0194181D01*
X0342733Y0198006D01*
X0337833Y0198006D01*
X0337833Y0197270D02*
X0336833Y0197270D01*
X0336833Y0198268D02*
X0278733Y0198268D01*
X0278733Y0198006D02*
X0278733Y0199006D01*
X0277733Y0199006D01*
X0277733Y0198006D01*
X0272833Y0198006D01*
X0272833Y0194181D01*
X0272966Y0193342D01*
X0273229Y0192533D01*
X0273615Y0191776D01*
X0274114Y0191088D01*
X0274715Y0190487D01*
X0275403Y0189988D01*
X0276160Y0189602D01*
X0276969Y0189339D01*
X0277733Y0189218D01*
X0277733Y0198006D01*
X0278733Y0198006D01*
X0278733Y0189218D01*
X0279498Y0189339D01*
X0280306Y0189602D01*
X0281064Y0189988D01*
X0281751Y0190487D01*
X0282352Y0191088D01*
X0282852Y0191776D01*
X0283238Y0192533D01*
X0283500Y0193342D01*
X0283633Y0194181D01*
X0283633Y0198006D01*
X0278733Y0198006D01*
X0278733Y0197270D02*
X0277733Y0197270D01*
X0277733Y0198268D02*
X0266033Y0198268D01*
X0266033Y0198206D02*
X0266033Y0198806D01*
X0270033Y0198806D01*
X0270033Y0201645D01*
X0269927Y0202313D01*
X0269718Y0202957D01*
X0269411Y0203560D01*
X0269013Y0204108D01*
X0268535Y0204586D01*
X0267987Y0204984D01*
X0267384Y0205291D01*
X0266740Y0205500D01*
X0266072Y0205606D01*
X0266033Y0205606D01*
X0266033Y0198806D01*
X0265433Y0198806D01*
X0265433Y0198206D01*
X0261433Y0198206D01*
X0261433Y0195368D01*
X0261539Y0194699D01*
X0261748Y0194056D01*
X0262056Y0193453D01*
X0262453Y0192905D01*
X0262932Y0192426D01*
X0263480Y0192029D01*
X0264083Y0191721D01*
X0264726Y0191512D01*
X0265395Y0191406D01*
X0265433Y0191406D01*
X0265433Y0198206D01*
X0266033Y0198206D01*
X0266033Y0191406D01*
X0266072Y0191406D01*
X0266740Y0191512D01*
X0267384Y0191721D01*
X0267987Y0192029D01*
X0268535Y0192426D01*
X0269013Y0192905D01*
X0269411Y0193453D01*
X0269718Y0194056D01*
X0269927Y0194699D01*
X0270033Y0195368D01*
X0270033Y0198206D01*
X0266033Y0198206D01*
X0265433Y0198268D02*
X0138033Y0198268D01*
X0138033Y0197270D02*
X0261433Y0197270D01*
X0261433Y0196271D02*
X0138033Y0196271D01*
X0138033Y0195273D02*
X0261448Y0195273D01*
X0261677Y0194274D02*
X0138033Y0194274D01*
X0137628Y0193276D02*
X0262184Y0193276D01*
X0263138Y0192277D02*
X0137214Y0192277D01*
X0136629Y0191279D02*
X0273976Y0191279D01*
X0273360Y0192277D02*
X0268329Y0192277D01*
X0269282Y0193276D02*
X0272988Y0193276D01*
X0272833Y0194274D02*
X0269789Y0194274D01*
X0270018Y0195273D02*
X0272833Y0195273D01*
X0272833Y0196271D02*
X0270033Y0196271D01*
X0270033Y0197270D02*
X0272833Y0197270D01*
X0272833Y0199006D02*
X0277733Y0199006D01*
X0277733Y0207794D01*
X0276969Y0207673D01*
X0276160Y0207411D01*
X0275403Y0207025D01*
X0274715Y0206525D01*
X0274114Y0205924D01*
X0273615Y0205237D01*
X0273229Y0204479D01*
X0272966Y0203671D01*
X0272833Y0202831D01*
X0272833Y0199006D01*
X0272833Y0199267D02*
X0270033Y0199267D01*
X0270033Y0200265D02*
X0272833Y0200265D01*
X0272833Y0201264D02*
X0270033Y0201264D01*
X0269936Y0202262D02*
X0272833Y0202262D01*
X0272901Y0203261D02*
X0269564Y0203261D01*
X0268862Y0204259D02*
X0273157Y0204259D01*
X0273630Y0205258D02*
X0267450Y0205258D01*
X0266033Y0205258D02*
X0265433Y0205258D01*
X0265433Y0205606D02*
X0265395Y0205606D01*
X0264726Y0205500D01*
X0264083Y0205291D01*
X0263480Y0204984D01*
X0262932Y0204586D01*
X0262453Y0204108D01*
X0262056Y0203560D01*
X0261748Y0202957D01*
X0261539Y0202313D01*
X0261433Y0201645D01*
X0261433Y0198806D01*
X0265433Y0198806D01*
X0265433Y0205606D01*
X0265433Y0204259D02*
X0266033Y0204259D01*
X0266033Y0203261D02*
X0265433Y0203261D01*
X0265433Y0202262D02*
X0266033Y0202262D01*
X0266033Y0201264D02*
X0265433Y0201264D01*
X0265433Y0200265D02*
X0266033Y0200265D01*
X0266033Y0199267D02*
X0265433Y0199267D01*
X0265433Y0197270D02*
X0266033Y0197270D01*
X0266033Y0196271D02*
X0265433Y0196271D01*
X0265433Y0195273D02*
X0266033Y0195273D01*
X0266033Y0194274D02*
X0265433Y0194274D01*
X0265433Y0193276D02*
X0266033Y0193276D01*
X0266033Y0192277D02*
X0265433Y0192277D01*
X0261433Y0199267D02*
X0138033Y0199267D01*
X0138033Y0200265D02*
X0261433Y0200265D01*
X0261433Y0201264D02*
X0138033Y0201264D01*
X0138033Y0202262D02*
X0261531Y0202262D01*
X0261903Y0203261D02*
X0137825Y0203261D01*
X0137412Y0204259D02*
X0262605Y0204259D01*
X0264017Y0205258D02*
X0136998Y0205258D01*
X0136107Y0206256D02*
X0274446Y0206256D01*
X0275854Y0207255D02*
X0135109Y0207255D01*
X0133038Y0208253D02*
X0348137Y0208253D01*
X0347139Y0209252D02*
X0122450Y0209252D01*
X0123766Y0208253D02*
X0128429Y0208253D01*
X0126358Y0207255D02*
X0124764Y0207255D01*
X0120039Y0210250D02*
X0346140Y0210250D01*
X0345142Y0211249D02*
X0051325Y0211249D01*
X0052323Y0212247D02*
X0344143Y0212247D01*
X0343481Y0213246D02*
X0052985Y0213246D01*
X0052985Y0214244D02*
X0343481Y0214244D01*
X0343481Y0215243D02*
X0052985Y0215243D01*
X0052985Y0216241D02*
X0343481Y0216241D01*
X0343481Y0217240D02*
X0052985Y0217240D01*
X0052985Y0218238D02*
X0343481Y0218238D01*
X0343481Y0219237D02*
X0052985Y0219237D01*
X0052286Y0220235D02*
X0344180Y0220235D01*
X0345179Y0221234D02*
X0051288Y0221234D01*
X0050289Y0222232D02*
X0346177Y0222232D01*
X0347176Y0223231D02*
X0049291Y0223231D01*
X0040680Y0223231D02*
X0034012Y0223231D01*
X0033753Y0222693D02*
X0034337Y0223907D01*
X0034782Y0225179D01*
X0035082Y0226493D01*
X0035233Y0227832D01*
X0035233Y0228006D01*
X0023733Y0228006D01*
X0023733Y0216506D01*
X0023907Y0216506D01*
X0025247Y0216657D01*
X0026561Y0216957D01*
X0027833Y0217402D01*
X0029047Y0217987D01*
X0030188Y0218704D01*
X0031242Y0219544D01*
X0032195Y0220498D01*
X0033035Y0221551D01*
X0033753Y0222693D01*
X0033463Y0222232D02*
X0036618Y0222232D01*
X0034434Y0221234D02*
X0032782Y0221234D01*
X0033436Y0220235D02*
X0031933Y0220235D01*
X0032437Y0219237D02*
X0030856Y0219237D01*
X0031439Y0218238D02*
X0029447Y0218238D01*
X0030440Y0217240D02*
X0027368Y0217240D01*
X0028443Y0215243D02*
X0010233Y0215243D01*
X0010233Y0216241D02*
X0029442Y0216241D01*
X0027445Y0214244D02*
X0010233Y0214244D01*
X0010233Y0213246D02*
X0026446Y0213246D01*
X0025448Y0212247D02*
X0010233Y0212247D01*
X0010233Y0211249D02*
X0024449Y0211249D01*
X0023451Y0210250D02*
X0021639Y0210250D01*
X0018027Y0210250D02*
X0010233Y0210250D01*
X0010233Y0209252D02*
X0015617Y0209252D01*
X0014301Y0208253D02*
X0010233Y0208253D01*
X0010233Y0207255D02*
X0013302Y0207255D01*
X0012543Y0206256D02*
X0010233Y0206256D01*
X0010233Y0205258D02*
X0012129Y0205258D01*
X0011716Y0204259D02*
X0010233Y0204259D01*
X0010233Y0203261D02*
X0011433Y0203261D01*
X0011433Y0202262D02*
X0010233Y0202262D01*
X0010233Y0201264D02*
X0011433Y0201264D01*
X0011433Y0200265D02*
X0010233Y0200265D01*
X0010233Y0199267D02*
X0011433Y0199267D01*
X0011433Y0198268D02*
X0010233Y0198268D01*
X0010233Y0197270D02*
X0011433Y0197270D01*
X0011433Y0196271D02*
X0010233Y0196271D01*
X0010233Y0195273D02*
X0011433Y0195273D01*
X0011433Y0194274D02*
X0010233Y0194274D01*
X0010233Y0193276D02*
X0011433Y0193276D01*
X0011499Y0192277D02*
X0010233Y0192277D01*
X0010233Y0191279D02*
X0011913Y0191279D01*
X0012033Y0190280D02*
X0010233Y0190280D01*
X0010233Y0189282D02*
X0012033Y0189282D01*
X0012033Y0188283D02*
X0010233Y0188283D01*
X0010233Y0187284D02*
X0012033Y0187284D01*
X0012033Y0186286D02*
X0010233Y0186286D01*
X0010233Y0185287D02*
X0012033Y0185287D01*
X0012033Y0184289D02*
X0010233Y0184289D01*
X0010233Y0183290D02*
X0012033Y0183290D01*
X0012033Y0182292D02*
X0010233Y0182292D01*
X0010233Y0181293D02*
X0012033Y0181293D01*
X0012033Y0180295D02*
X0010233Y0180295D01*
X0010233Y0179296D02*
X0012033Y0179296D01*
X0012033Y0178298D02*
X0010233Y0178298D01*
X0010233Y0177299D02*
X0012033Y0177299D01*
X0012033Y0176301D02*
X0010233Y0176301D01*
X0010233Y0175302D02*
X0011941Y0175302D01*
X0011527Y0174304D02*
X0010233Y0174304D01*
X0010233Y0173305D02*
X0011433Y0173305D01*
X0011433Y0172307D02*
X0010233Y0172307D01*
X0010233Y0171308D02*
X0011433Y0171308D01*
X0011433Y0170310D02*
X0010233Y0170310D01*
X0010233Y0169311D02*
X0011433Y0169311D01*
X0011433Y0168313D02*
X0010233Y0168313D01*
X0010233Y0167314D02*
X0011433Y0167314D01*
X0011433Y0166316D02*
X0010233Y0166316D01*
X0010233Y0165317D02*
X0011433Y0165317D01*
X0011433Y0164319D02*
X0010233Y0164319D01*
X0010233Y0163320D02*
X0011433Y0163320D01*
X0011688Y0162322D02*
X0010233Y0162322D01*
X0010233Y0161323D02*
X0012033Y0161323D01*
X0012033Y0160325D02*
X0010233Y0160325D01*
X0010233Y0159326D02*
X0012033Y0159326D01*
X0012033Y0158328D02*
X0010233Y0158328D01*
X0010233Y0157329D02*
X0012033Y0157329D01*
X0012033Y0156331D02*
X0010233Y0156331D01*
X0010233Y0155332D02*
X0012043Y0155332D01*
X0012456Y0154334D02*
X0010233Y0154334D01*
X0010233Y0153335D02*
X0012870Y0153335D01*
X0013372Y0152337D02*
X0010233Y0152337D01*
X0010233Y0151338D02*
X0014371Y0151338D01*
X0015369Y0150340D02*
X0010233Y0150340D01*
X0010233Y0149341D02*
X0016368Y0149341D01*
X0017366Y0148343D02*
X0010233Y0148343D01*
X0010233Y0147344D02*
X0018365Y0147344D01*
X0019363Y0146346D02*
X0010233Y0146346D01*
X0010233Y0145347D02*
X0019485Y0145347D01*
X0019485Y0144348D02*
X0010233Y0144348D01*
X0010233Y0143350D02*
X0019485Y0143350D01*
X0019610Y0142351D02*
X0010233Y0142351D01*
X0010233Y0141353D02*
X0020433Y0141353D01*
X0020433Y0140354D02*
X0010233Y0140354D01*
X0010233Y0139356D02*
X0020433Y0139356D01*
X0020433Y0138357D02*
X0010233Y0138357D01*
X0010233Y0137359D02*
X0020433Y0137359D01*
X0020057Y0136360D02*
X0010233Y0136360D01*
X0010233Y0135362D02*
X0019058Y0135362D01*
X0018060Y0134363D02*
X0010233Y0134363D01*
X0010233Y0133365D02*
X0017061Y0133365D01*
X0016063Y0132366D02*
X0010233Y0132366D01*
X0010233Y0131368D02*
X0015064Y0131368D01*
X0014066Y0130369D02*
X0010233Y0130369D01*
X0010233Y0129371D02*
X0013157Y0129371D01*
X0012744Y0128372D02*
X0010233Y0128372D01*
X0010233Y0127374D02*
X0012330Y0127374D01*
X0012033Y0126375D02*
X0010233Y0126375D01*
X0010233Y0125377D02*
X0012033Y0125377D01*
X0012033Y0124378D02*
X0010233Y0124378D01*
X0010233Y0123380D02*
X0012033Y0123380D01*
X0012033Y0122381D02*
X0010233Y0122381D01*
X0010233Y0121383D02*
X0012033Y0121383D01*
X0012033Y0120384D02*
X0010233Y0120384D01*
X0010233Y0119386D02*
X0011768Y0119386D01*
X0011433Y0118387D02*
X0010233Y0118387D01*
X0010233Y0117389D02*
X0011433Y0117389D01*
X0011433Y0116390D02*
X0010233Y0116390D01*
X0010233Y0115392D02*
X0011433Y0115392D01*
X0011433Y0114393D02*
X0010233Y0114393D01*
X0010233Y0113395D02*
X0011433Y0113395D01*
X0011433Y0112396D02*
X0010233Y0112396D01*
X0010233Y0111398D02*
X0011433Y0111398D01*
X0011433Y0110399D02*
X0010233Y0110399D01*
X0010233Y0109401D02*
X0011433Y0109401D01*
X0011433Y0108402D02*
X0010233Y0108402D01*
X0010233Y0107404D02*
X0011447Y0107404D01*
X0011860Y0106405D02*
X0010233Y0106405D01*
X0010233Y0105407D02*
X0012033Y0105407D01*
X0012033Y0104408D02*
X0010233Y0104408D01*
X0010233Y0103410D02*
X0012033Y0103410D01*
X0012033Y0102411D02*
X0010233Y0102411D01*
X0010233Y0101413D02*
X0012033Y0101413D01*
X0012033Y0100414D02*
X0010233Y0100414D01*
X0010233Y0099415D02*
X0012033Y0099415D01*
X0012033Y0098417D02*
X0010233Y0098417D01*
X0010233Y0097418D02*
X0012033Y0097418D01*
X0012033Y0096420D02*
X0010233Y0096420D01*
X0010233Y0095421D02*
X0012033Y0095421D01*
X0012033Y0094423D02*
X0010233Y0094423D01*
X0010233Y0093424D02*
X0012033Y0093424D01*
X0012033Y0092426D02*
X0010233Y0092426D01*
X0010233Y0091427D02*
X0012033Y0091427D01*
X0011993Y0090429D02*
X0010233Y0090429D01*
X0010233Y0089430D02*
X0011580Y0089430D01*
X0011433Y0088432D02*
X0010233Y0088432D01*
X0010233Y0087433D02*
X0011433Y0087433D01*
X0011433Y0086435D02*
X0010233Y0086435D01*
X0010233Y0085436D02*
X0011433Y0085436D01*
X0011433Y0084438D02*
X0010233Y0084438D01*
X0010233Y0083439D02*
X0011433Y0083439D01*
X0011433Y0082441D02*
X0010233Y0082441D01*
X0010233Y0081442D02*
X0011433Y0081442D01*
X0011433Y0080444D02*
X0010233Y0080444D01*
X0010233Y0079445D02*
X0011433Y0079445D01*
X0011433Y0078447D02*
X0010233Y0078447D01*
X0010233Y0077448D02*
X0011635Y0077448D01*
X0012049Y0076450D02*
X0010233Y0076450D01*
X0010233Y0075451D02*
X0012462Y0075451D01*
X0013108Y0074453D02*
X0010233Y0074453D01*
X0010233Y0073454D02*
X0014106Y0073454D01*
X0015146Y0072456D02*
X0010233Y0072456D01*
X0010233Y0069460D02*
X0386155Y0069460D01*
X0386155Y0068462D02*
X0010233Y0068462D01*
X0010233Y0055481D02*
X0011233Y0055481D01*
X0011329Y0054482D02*
X0010233Y0054482D01*
X0010233Y0053484D02*
X0011500Y0053484D01*
X0011752Y0052485D02*
X0010233Y0052485D01*
X0010233Y0051487D02*
X0012101Y0051487D01*
X0012572Y0050488D02*
X0010233Y0050488D01*
X0010233Y0049490D02*
X0013156Y0049490D01*
X0013878Y0048491D02*
X0010233Y0048491D01*
X0010233Y0047493D02*
X0014776Y0047493D01*
X0015914Y0046494D02*
X0010233Y0046494D01*
X0010233Y0045496D02*
X0017406Y0045496D01*
X0019791Y0044497D02*
X0010233Y0044497D01*
X0010233Y0043499D02*
X0039833Y0043499D01*
X0045333Y0043499D02*
X0046333Y0043499D01*
X0046333Y0044497D02*
X0045333Y0044497D01*
X0045333Y0045496D02*
X0046333Y0045496D01*
X0046333Y0046494D02*
X0045333Y0046494D01*
X0046333Y0049106D02*
X0051833Y0049106D01*
X0051833Y0058804D01*
X0051731Y0059185D01*
X0051534Y0059527D01*
X0051254Y0059807D01*
X0050912Y0060004D01*
X0050531Y0060106D01*
X0046333Y0060106D01*
X0046333Y0049106D01*
X0046333Y0049490D02*
X0045333Y0049490D01*
X0045333Y0050488D02*
X0046333Y0050488D01*
X0046333Y0051487D02*
X0045333Y0051487D01*
X0045333Y0052485D02*
X0046333Y0052485D01*
X0046333Y0053484D02*
X0045333Y0053484D01*
X0045333Y0054482D02*
X0046333Y0054482D01*
X0046333Y0055481D02*
X0045333Y0055481D01*
X0045333Y0056480D02*
X0046333Y0056480D01*
X0046333Y0057478D02*
X0045333Y0057478D01*
X0045333Y0058477D02*
X0046333Y0058477D01*
X0046333Y0059475D02*
X0045333Y0059475D01*
X0039833Y0055481D02*
X0035233Y0055481D01*
X0035138Y0054482D02*
X0039833Y0054482D01*
X0039833Y0053484D02*
X0034966Y0053484D01*
X0034715Y0052485D02*
X0039833Y0052485D01*
X0039833Y0051487D02*
X0034365Y0051487D01*
X0033895Y0050488D02*
X0039833Y0050488D01*
X0039833Y0049490D02*
X0033311Y0049490D01*
X0051833Y0049490D02*
X0074633Y0049490D01*
X0074633Y0049106D02*
X0080133Y0049106D01*
X0080133Y0060106D01*
X0075936Y0060106D01*
X0075554Y0060004D01*
X0075212Y0059807D01*
X0074933Y0059527D01*
X0074736Y0059185D01*
X0074633Y0058804D01*
X0074633Y0049106D01*
X0074633Y0050488D02*
X0051833Y0050488D01*
X0051833Y0051487D02*
X0074633Y0051487D01*
X0074633Y0052485D02*
X0051833Y0052485D01*
X0051833Y0053484D02*
X0074633Y0053484D01*
X0074633Y0054482D02*
X0051833Y0054482D01*
X0051833Y0055481D02*
X0074633Y0055481D01*
X0074633Y0056480D02*
X0051833Y0056480D01*
X0051833Y0057478D02*
X0074633Y0057478D01*
X0074633Y0058477D02*
X0051833Y0058477D01*
X0051564Y0059475D02*
X0074903Y0059475D01*
X0080133Y0059475D02*
X0081133Y0059475D01*
X0081133Y0060106D02*
X0081133Y0049106D01*
X0086633Y0049106D01*
X0086633Y0058804D01*
X0086531Y0059185D01*
X0086334Y0059527D01*
X0086054Y0059807D01*
X0085712Y0060004D01*
X0085331Y0060106D01*
X0081133Y0060106D01*
X0081133Y0058477D02*
X0080133Y0058477D01*
X0080133Y0057478D02*
X0081133Y0057478D01*
X0081133Y0056480D02*
X0080133Y0056480D01*
X0080133Y0055481D02*
X0081133Y0055481D01*
X0081133Y0054482D02*
X0080133Y0054482D01*
X0080133Y0053484D02*
X0081133Y0053484D01*
X0081133Y0052485D02*
X0080133Y0052485D01*
X0080133Y0051487D02*
X0081133Y0051487D01*
X0081133Y0050488D02*
X0080133Y0050488D01*
X0080133Y0049490D02*
X0081133Y0049490D01*
X0081133Y0046494D02*
X0080133Y0046494D01*
X0080133Y0045496D02*
X0081133Y0045496D01*
X0081133Y0044497D02*
X0080133Y0044497D01*
X0080133Y0043499D02*
X0081133Y0043499D01*
X0086633Y0043499D02*
X0309833Y0043499D01*
X0309833Y0044497D02*
X0086633Y0044497D01*
X0086633Y0045496D02*
X0309833Y0045496D01*
X0309833Y0046494D02*
X0086633Y0046494D01*
X0086633Y0047493D02*
X0309833Y0047493D01*
X0309833Y0049106D02*
X0309833Y0058804D01*
X0309936Y0059185D01*
X0310133Y0059527D01*
X0310412Y0059807D01*
X0310754Y0060004D01*
X0311136Y0060106D01*
X0315333Y0060106D01*
X0315333Y0049106D01*
X0309833Y0049106D01*
X0309833Y0049490D02*
X0086633Y0049490D01*
X0086633Y0050488D02*
X0309833Y0050488D01*
X0309833Y0051487D02*
X0086633Y0051487D01*
X0086633Y0052485D02*
X0309833Y0052485D01*
X0309833Y0053484D02*
X0086633Y0053484D01*
X0086633Y0054482D02*
X0309833Y0054482D01*
X0309833Y0055481D02*
X0086633Y0055481D01*
X0086633Y0056480D02*
X0309833Y0056480D01*
X0309833Y0057478D02*
X0086633Y0057478D01*
X0086633Y0058477D02*
X0309833Y0058477D01*
X0310103Y0059475D02*
X0086364Y0059475D01*
X0074633Y0047493D02*
X0051833Y0047493D01*
X0051833Y0046494D02*
X0074633Y0046494D01*
X0074633Y0045496D02*
X0051833Y0045496D01*
X0051833Y0044497D02*
X0074633Y0044497D01*
X0074633Y0043499D02*
X0051833Y0043499D01*
X0056857Y0071457D02*
X0044272Y0071457D01*
X0045618Y0072456D02*
X0054446Y0072456D01*
X0053406Y0073454D02*
X0046616Y0073454D01*
X0047569Y0074453D02*
X0052408Y0074453D01*
X0051603Y0075451D02*
X0047983Y0075451D01*
X0048396Y0076450D02*
X0051088Y0076450D01*
X0050674Y0077448D02*
X0048810Y0077448D01*
X0048983Y0078447D02*
X0050261Y0078447D01*
X0049983Y0079445D02*
X0048983Y0079445D01*
X0048983Y0080444D02*
X0049983Y0080444D01*
X0049983Y0081442D02*
X0048983Y0081442D01*
X0048983Y0082441D02*
X0049983Y0082441D01*
X0049983Y0083439D02*
X0048983Y0083439D01*
X0048983Y0084438D02*
X0049983Y0084438D01*
X0049983Y0085436D02*
X0048983Y0085436D01*
X0048983Y0086435D02*
X0049983Y0086435D01*
X0049983Y0087433D02*
X0048983Y0087433D01*
X0048983Y0088432D02*
X0049983Y0088432D01*
X0049983Y0089430D02*
X0048983Y0089430D01*
X0048983Y0090429D02*
X0049983Y0090429D01*
X0049983Y0091427D02*
X0048983Y0091427D01*
X0048983Y0092426D02*
X0049983Y0092426D01*
X0049983Y0093424D02*
X0048983Y0093424D01*
X0048983Y0094423D02*
X0049983Y0094423D01*
X0049983Y0095421D02*
X0048983Y0095421D01*
X0048983Y0096420D02*
X0049983Y0096420D01*
X0049983Y0097418D02*
X0048983Y0097418D01*
X0048983Y0098417D02*
X0049983Y0098417D01*
X0049983Y0099415D02*
X0048983Y0099415D01*
X0048983Y0100414D02*
X0049983Y0100414D01*
X0049983Y0101413D02*
X0048983Y0101413D01*
X0048983Y0102411D02*
X0049983Y0102411D01*
X0049983Y0103410D02*
X0048983Y0103410D01*
X0048983Y0104408D02*
X0049983Y0104408D01*
X0049983Y0105407D02*
X0048983Y0105407D01*
X0048983Y0106405D02*
X0049983Y0106405D01*
X0049983Y0107404D02*
X0048983Y0107404D01*
X0048983Y0108402D02*
X0049983Y0108402D01*
X0049983Y0109401D02*
X0048983Y0109401D01*
X0048983Y0110399D02*
X0049983Y0110399D01*
X0049983Y0111398D02*
X0049033Y0111398D01*
X0049033Y0112396D02*
X0049983Y0112396D01*
X0049983Y0113395D02*
X0049033Y0113395D01*
X0049033Y0114393D02*
X0049983Y0114393D01*
X0049983Y0115392D02*
X0048983Y0115392D01*
X0048983Y0116390D02*
X0049983Y0116390D01*
X0049983Y0117389D02*
X0048983Y0117389D01*
X0048983Y0118387D02*
X0049983Y0118387D01*
X0049983Y0119386D02*
X0048884Y0119386D01*
X0048470Y0120384D02*
X0049983Y0120384D01*
X0049983Y0121383D02*
X0048057Y0121383D01*
X0047643Y0122381D02*
X0049983Y0122381D01*
X0049983Y0123380D02*
X0046795Y0123380D01*
X0045796Y0124378D02*
X0049983Y0124378D01*
X0049983Y0125377D02*
X0044703Y0125377D01*
X0042293Y0126375D02*
X0049983Y0126375D01*
X0039483Y0113056D02*
X0036983Y0102256D01*
X0041983Y0098506D01*
X0036983Y0094756D01*
X0068983Y0094423D02*
X0147733Y0094423D01*
X0147733Y0094006D02*
X0153683Y0094006D01*
X0153683Y0093006D01*
X0147733Y0093006D01*
X0147733Y0088134D01*
X0147844Y0087295D01*
X0148063Y0086479D01*
X0148386Y0085697D01*
X0148809Y0084965D01*
X0149324Y0084294D01*
X0149921Y0083697D01*
X0150592Y0083182D01*
X0151324Y0082759D01*
X0152106Y0082435D01*
X0152922Y0082217D01*
X0153683Y0082116D01*
X0153683Y0093006D01*
X0154683Y0093006D01*
X0154683Y0082116D01*
X0155444Y0082217D01*
X0156261Y0082435D01*
X0157042Y0082759D01*
X0157774Y0083182D01*
X0158445Y0083697D01*
X0159043Y0084294D01*
X0159558Y0084965D01*
X0159981Y0085697D01*
X0160304Y0086479D01*
X0160348Y0086642D01*
X0161772Y0083203D01*
X0164430Y0080545D01*
X0167904Y0079106D01*
X0170234Y0079106D01*
X0171768Y0077572D01*
X0174341Y0076506D01*
X0179610Y0076506D01*
X0181598Y0074518D01*
X0184281Y0073406D01*
X0187185Y0073406D01*
X0189868Y0074518D01*
X0191922Y0076571D01*
X0193033Y0079254D01*
X0193033Y0087758D01*
X0191922Y0090441D01*
X0189868Y0092495D01*
X0187185Y0093606D01*
X0184281Y0093606D01*
X0181598Y0092495D01*
X0179610Y0090506D01*
X0179233Y0090506D01*
X0179233Y0100336D01*
X0177795Y0103809D01*
X0175136Y0106468D01*
X0171663Y0107906D01*
X0167904Y0107906D01*
X0164430Y0106468D01*
X0161772Y0103809D01*
X0160348Y0100371D01*
X0160304Y0100534D01*
X0159981Y0101315D01*
X0159558Y0102047D01*
X0159043Y0102718D01*
X0158445Y0103316D01*
X0157774Y0103831D01*
X0157042Y0104254D01*
X0156261Y0104577D01*
X0155444Y0104796D01*
X0154683Y0104896D01*
X0154683Y0094006D01*
X0153683Y0094006D01*
X0153683Y0104896D01*
X0152922Y0104796D01*
X0152106Y0104577D01*
X0151324Y0104254D01*
X0150592Y0103831D01*
X0149921Y0103316D01*
X0149324Y0102718D01*
X0148809Y0102047D01*
X0148386Y0101315D01*
X0148063Y0100534D01*
X0147844Y0099717D01*
X0147733Y0098879D01*
X0147733Y0094006D01*
X0147733Y0095421D02*
X0068983Y0095421D01*
X0068983Y0096420D02*
X0147733Y0096420D01*
X0147733Y0097418D02*
X0068983Y0097418D01*
X0068983Y0098417D02*
X0147733Y0098417D01*
X0147804Y0099415D02*
X0068983Y0099415D01*
X0068983Y0100414D02*
X0148030Y0100414D01*
X0148442Y0101413D02*
X0121609Y0101413D01*
X0122992Y0101985D02*
X0119904Y0100706D01*
X0116562Y0100706D01*
X0113475Y0101985D01*
X0111112Y0104348D01*
X0109833Y0107435D01*
X0109833Y0118577D01*
X0111112Y0121665D01*
X0113475Y0124027D01*
X0116562Y0125306D01*
X0119904Y0125306D01*
X0122992Y0124027D01*
X0125354Y0121665D01*
X0125476Y0121372D01*
X0126598Y0122495D01*
X0129281Y0123606D01*
X0132185Y0123606D01*
X0134868Y0122495D01*
X0136922Y0120441D01*
X0138033Y0117758D01*
X0138033Y0109254D01*
X0136922Y0106571D01*
X0134868Y0104518D01*
X0132185Y0103406D01*
X0129281Y0103406D01*
X0126598Y0104518D01*
X0125768Y0105347D01*
X0125354Y0104348D01*
X0122992Y0101985D01*
X0123417Y0102411D02*
X0149088Y0102411D01*
X0150043Y0103410D02*
X0132193Y0103410D01*
X0134604Y0104408D02*
X0151697Y0104408D01*
X0153683Y0104408D02*
X0154683Y0104408D01*
X0154683Y0103410D02*
X0153683Y0103410D01*
X0153683Y0102411D02*
X0154683Y0102411D01*
X0154683Y0101413D02*
X0153683Y0101413D01*
X0153683Y0100414D02*
X0154683Y0100414D01*
X0154683Y0099415D02*
X0153683Y0099415D01*
X0153683Y0098417D02*
X0154683Y0098417D01*
X0154683Y0097418D02*
X0153683Y0097418D01*
X0153683Y0096420D02*
X0154683Y0096420D01*
X0154683Y0095421D02*
X0153683Y0095421D01*
X0153683Y0094423D02*
X0154683Y0094423D01*
X0153683Y0093424D02*
X0068983Y0093424D01*
X0068983Y0092426D02*
X0116207Y0092426D01*
X0116160Y0092411D02*
X0115403Y0092025D01*
X0114715Y0091525D01*
X0114114Y0090924D01*
X0113615Y0090237D01*
X0113229Y0089479D01*
X0112966Y0088671D01*
X0112833Y0087831D01*
X0112833Y0084006D01*
X0117733Y0084006D01*
X0117733Y0083006D01*
X0112833Y0083006D01*
X0112833Y0079181D01*
X0112966Y0078342D01*
X0113229Y0077533D01*
X0113615Y0076776D01*
X0114114Y0076088D01*
X0114715Y0075487D01*
X0115403Y0074988D01*
X0116160Y0074602D01*
X0116969Y0074339D01*
X0117733Y0074218D01*
X0117733Y0083006D01*
X0118733Y0083006D01*
X0118733Y0074218D01*
X0119498Y0074339D01*
X0120306Y0074602D01*
X0121064Y0074988D01*
X0121751Y0075487D01*
X0122352Y0076088D01*
X0122852Y0076776D01*
X0123238Y0077533D01*
X0123500Y0078342D01*
X0123633Y0079181D01*
X0123633Y0083006D01*
X0118733Y0083006D01*
X0118733Y0084006D01*
X0117733Y0084006D01*
X0117733Y0092794D01*
X0116969Y0092673D01*
X0116160Y0092411D01*
X0117733Y0092426D02*
X0118733Y0092426D01*
X0118733Y0092794D02*
X0118733Y0084006D01*
X0123633Y0084006D01*
X0123633Y0087831D01*
X0123500Y0088671D01*
X0123238Y0089479D01*
X0122852Y0090237D01*
X0122352Y0090924D01*
X0121751Y0091525D01*
X0121064Y0092025D01*
X0120306Y0092411D01*
X0119498Y0092673D01*
X0118733Y0092794D01*
X0118733Y0091427D02*
X0117733Y0091427D01*
X0117733Y0090429D02*
X0118733Y0090429D01*
X0118733Y0089430D02*
X0117733Y0089430D01*
X0117733Y0088432D02*
X0118733Y0088432D01*
X0118733Y0087433D02*
X0117733Y0087433D01*
X0117733Y0086435D02*
X0118733Y0086435D01*
X0118733Y0085436D02*
X0117733Y0085436D01*
X0117733Y0084438D02*
X0118733Y0084438D01*
X0118733Y0083439D02*
X0130433Y0083439D01*
X0130433Y0083206D02*
X0126433Y0083206D01*
X0126433Y0080368D01*
X0126539Y0079699D01*
X0126748Y0079056D01*
X0127056Y0078453D01*
X0127453Y0077905D01*
X0127932Y0077426D01*
X0128480Y0077029D01*
X0129083Y0076721D01*
X0129726Y0076512D01*
X0130395Y0076406D01*
X0130433Y0076406D01*
X0130433Y0083206D01*
X0130433Y0083806D01*
X0126433Y0083806D01*
X0126433Y0086645D01*
X0126539Y0087313D01*
X0126748Y0087957D01*
X0127056Y0088560D01*
X0127453Y0089108D01*
X0127932Y0089586D01*
X0128480Y0089984D01*
X0129083Y0090291D01*
X0129726Y0090500D01*
X0130395Y0090606D01*
X0130433Y0090606D01*
X0130433Y0083806D01*
X0131033Y0083806D01*
X0131033Y0090606D01*
X0131072Y0090606D01*
X0131740Y0090500D01*
X0132384Y0090291D01*
X0132987Y0089984D01*
X0133535Y0089586D01*
X0134013Y0089108D01*
X0134411Y0088560D01*
X0134718Y0087957D01*
X0134927Y0087313D01*
X0135033Y0086645D01*
X0135033Y0083806D01*
X0131033Y0083806D01*
X0131033Y0083206D01*
X0131033Y0076406D01*
X0131072Y0076406D01*
X0131740Y0076512D01*
X0132384Y0076721D01*
X0132987Y0077029D01*
X0133535Y0077426D01*
X0134013Y0077905D01*
X0134411Y0078453D01*
X0134718Y0079056D01*
X0134927Y0079699D01*
X0135033Y0080368D01*
X0135033Y0083206D01*
X0131033Y0083206D01*
X0130433Y0083206D01*
X0131033Y0083439D02*
X0150257Y0083439D01*
X0149213Y0084438D02*
X0135033Y0084438D01*
X0135033Y0085436D02*
X0148537Y0085436D01*
X0148081Y0086435D02*
X0135033Y0086435D01*
X0134888Y0087433D02*
X0147826Y0087433D01*
X0147733Y0088432D02*
X0134476Y0088432D01*
X0133690Y0089430D02*
X0147733Y0089430D01*
X0147733Y0090429D02*
X0131960Y0090429D01*
X0131033Y0090429D02*
X0130433Y0090429D01*
X0129506Y0090429D02*
X0122712Y0090429D01*
X0123254Y0089430D02*
X0127776Y0089430D01*
X0126990Y0088432D02*
X0123538Y0088432D01*
X0123633Y0087433D02*
X0126578Y0087433D01*
X0126433Y0086435D02*
X0123633Y0086435D01*
X0123633Y0085436D02*
X0126433Y0085436D01*
X0126433Y0084438D02*
X0123633Y0084438D01*
X0123633Y0082441D02*
X0126433Y0082441D01*
X0126433Y0081442D02*
X0123633Y0081442D01*
X0123633Y0080444D02*
X0126433Y0080444D01*
X0126622Y0079445D02*
X0123633Y0079445D01*
X0123517Y0078447D02*
X0127060Y0078447D01*
X0127910Y0077448D02*
X0123194Y0077448D01*
X0122615Y0076450D02*
X0130121Y0076450D01*
X0130433Y0076450D02*
X0131033Y0076450D01*
X0131346Y0076450D02*
X0179666Y0076450D01*
X0180665Y0075451D02*
X0121701Y0075451D01*
X0119847Y0074453D02*
X0181755Y0074453D01*
X0184166Y0073454D02*
X0065366Y0073454D01*
X0066365Y0074453D02*
X0116620Y0074453D01*
X0117733Y0074453D02*
X0118733Y0074453D01*
X0118733Y0075451D02*
X0117733Y0075451D01*
X0117733Y0076450D02*
X0118733Y0076450D01*
X0118733Y0077448D02*
X0117733Y0077448D01*
X0117733Y0078447D02*
X0118733Y0078447D01*
X0118733Y0079445D02*
X0117733Y0079445D01*
X0117733Y0080444D02*
X0118733Y0080444D01*
X0118733Y0081442D02*
X0117733Y0081442D01*
X0117733Y0082441D02*
X0118733Y0082441D01*
X0117733Y0083439D02*
X0068983Y0083439D01*
X0068983Y0082441D02*
X0112833Y0082441D01*
X0112833Y0081442D02*
X0068983Y0081442D01*
X0068983Y0080444D02*
X0112833Y0080444D01*
X0112833Y0079445D02*
X0068983Y0079445D01*
X0068706Y0078447D02*
X0112950Y0078447D01*
X0113272Y0077448D02*
X0068292Y0077448D01*
X0067879Y0076450D02*
X0113852Y0076450D01*
X0114765Y0075451D02*
X0067363Y0075451D01*
X0063820Y0072456D02*
X0274753Y0072456D01*
X0273475Y0072985D02*
X0271112Y0075348D01*
X0270991Y0075640D01*
X0269868Y0074518D01*
X0267185Y0073406D01*
X0264281Y0073406D01*
X0261598Y0074518D01*
X0259545Y0076571D01*
X0258433Y0079254D01*
X0258433Y0087758D01*
X0259545Y0090441D01*
X0261598Y0092495D01*
X0264281Y0093606D01*
X0267185Y0093606D01*
X0269868Y0092495D01*
X0270698Y0091665D01*
X0271112Y0092665D01*
X0273475Y0095027D01*
X0276562Y0096306D01*
X0279904Y0096306D01*
X0282992Y0095027D01*
X0285354Y0092665D01*
X0286633Y0089577D01*
X0286633Y0078435D01*
X0285354Y0075348D01*
X0282992Y0072985D01*
X0279904Y0071706D01*
X0276562Y0071706D01*
X0273475Y0072985D01*
X0273006Y0073454D02*
X0267301Y0073454D01*
X0269712Y0074453D02*
X0272008Y0074453D01*
X0271069Y0075451D02*
X0270802Y0075451D01*
X0264166Y0073454D02*
X0187301Y0073454D01*
X0189712Y0074453D02*
X0261755Y0074453D01*
X0260665Y0075451D02*
X0190802Y0075451D01*
X0191801Y0076450D02*
X0259666Y0076450D01*
X0259181Y0077448D02*
X0192285Y0077448D01*
X0192699Y0078447D02*
X0258768Y0078447D01*
X0258433Y0079445D02*
X0193033Y0079445D01*
X0193033Y0080444D02*
X0258433Y0080444D01*
X0258433Y0081442D02*
X0193033Y0081442D01*
X0193033Y0082441D02*
X0258433Y0082441D01*
X0258433Y0083439D02*
X0193033Y0083439D01*
X0193033Y0084438D02*
X0258433Y0084438D01*
X0258433Y0085436D02*
X0193033Y0085436D01*
X0193033Y0086435D02*
X0258433Y0086435D01*
X0258433Y0087433D02*
X0193033Y0087433D01*
X0192754Y0088432D02*
X0258712Y0088432D01*
X0259126Y0089430D02*
X0192341Y0089430D01*
X0191927Y0090429D02*
X0259540Y0090429D01*
X0260531Y0091427D02*
X0190936Y0091427D01*
X0189937Y0092426D02*
X0261529Y0092426D01*
X0263842Y0093424D02*
X0187624Y0093424D01*
X0183842Y0093424D02*
X0179233Y0093424D01*
X0179233Y0092426D02*
X0181529Y0092426D01*
X0180531Y0091427D02*
X0179233Y0091427D01*
X0179233Y0094423D02*
X0272871Y0094423D01*
X0271872Y0093424D02*
X0267624Y0093424D01*
X0269937Y0092426D02*
X0271013Y0092426D01*
X0274426Y0095421D02*
X0179233Y0095421D01*
X0179233Y0096420D02*
X0327483Y0096420D01*
X0327483Y0097418D02*
X0179233Y0097418D01*
X0179233Y0098417D02*
X0327483Y0098417D01*
X0327483Y0099415D02*
X0179233Y0099415D01*
X0179201Y0100414D02*
X0327483Y0100414D01*
X0327483Y0101413D02*
X0178787Y0101413D01*
X0178374Y0102411D02*
X0327483Y0102411D01*
X0327483Y0103410D02*
X0187193Y0103410D01*
X0187185Y0103406D02*
X0189868Y0104518D01*
X0191922Y0106571D01*
X0193033Y0109254D01*
X0193033Y0117758D01*
X0191922Y0120441D01*
X0189868Y0122495D01*
X0187185Y0123606D01*
X0184281Y0123606D01*
X0181598Y0122495D01*
X0179545Y0120441D01*
X0178433Y0117758D01*
X0178433Y0109254D01*
X0179545Y0106571D01*
X0181598Y0104518D01*
X0184281Y0103406D01*
X0187185Y0103406D01*
X0189604Y0104408D02*
X0276757Y0104408D01*
X0276969Y0104339D02*
X0277733Y0104218D01*
X0277733Y0113006D01*
X0272833Y0113006D01*
X0272833Y0109181D01*
X0272966Y0108342D01*
X0273229Y0107533D01*
X0273615Y0106776D01*
X0274114Y0106088D01*
X0274715Y0105487D01*
X0275403Y0104988D01*
X0276160Y0104602D01*
X0276969Y0104339D01*
X0277733Y0104408D02*
X0278733Y0104408D01*
X0278733Y0104218D02*
X0279498Y0104339D01*
X0280306Y0104602D01*
X0281064Y0104988D01*
X0281751Y0105487D01*
X0282352Y0106088D01*
X0282852Y0106776D01*
X0283238Y0107533D01*
X0283500Y0108342D01*
X0283633Y0109181D01*
X0283633Y0113006D01*
X0278733Y0113006D01*
X0278733Y0104218D01*
X0279710Y0104408D02*
X0327483Y0104408D01*
X0327483Y0105407D02*
X0281640Y0105407D01*
X0282582Y0106405D02*
X0327483Y0106405D01*
X0327483Y0107404D02*
X0283172Y0107404D01*
X0283510Y0108402D02*
X0327483Y0108402D01*
X0327483Y0109401D02*
X0283633Y0109401D01*
X0283633Y0110399D02*
X0327483Y0110399D01*
X0327483Y0111398D02*
X0283633Y0111398D01*
X0283633Y0112396D02*
X0327483Y0112396D01*
X0327483Y0113395D02*
X0278733Y0113395D01*
X0278733Y0113006D02*
X0278733Y0114006D01*
X0277733Y0114006D01*
X0277733Y0113006D01*
X0278733Y0113006D01*
X0278733Y0112396D02*
X0277733Y0112396D01*
X0277733Y0111398D02*
X0278733Y0111398D01*
X0278733Y0110399D02*
X0277733Y0110399D01*
X0277733Y0109401D02*
X0278733Y0109401D01*
X0278733Y0108402D02*
X0277733Y0108402D01*
X0277733Y0107404D02*
X0278733Y0107404D01*
X0278733Y0106405D02*
X0277733Y0106405D01*
X0277733Y0105407D02*
X0278733Y0105407D01*
X0274827Y0105407D02*
X0190757Y0105407D01*
X0191756Y0106405D02*
X0273884Y0106405D01*
X0273295Y0107404D02*
X0268503Y0107404D01*
X0268535Y0107426D02*
X0269013Y0107905D01*
X0269411Y0108453D01*
X0269718Y0109056D01*
X0269927Y0109699D01*
X0270033Y0110368D01*
X0270033Y0113206D01*
X0266033Y0113206D01*
X0266033Y0106406D01*
X0266072Y0106406D01*
X0266740Y0106512D01*
X0267384Y0106721D01*
X0267987Y0107029D01*
X0268535Y0107426D01*
X0269374Y0108402D02*
X0272957Y0108402D01*
X0272833Y0109401D02*
X0269830Y0109401D01*
X0270033Y0110399D02*
X0272833Y0110399D01*
X0272833Y0111398D02*
X0270033Y0111398D01*
X0270033Y0112396D02*
X0272833Y0112396D01*
X0272833Y0114006D02*
X0277733Y0114006D01*
X0277733Y0122794D01*
X0276969Y0122673D01*
X0276160Y0122411D01*
X0275403Y0122025D01*
X0274715Y0121525D01*
X0274114Y0120924D01*
X0273615Y0120237D01*
X0273229Y0119479D01*
X0272966Y0118671D01*
X0272833Y0117831D01*
X0272833Y0114006D01*
X0272833Y0114393D02*
X0270033Y0114393D01*
X0270033Y0113806D02*
X0270033Y0116645D01*
X0269927Y0117313D01*
X0269718Y0117957D01*
X0269411Y0118560D01*
X0269013Y0119108D01*
X0268535Y0119586D01*
X0267987Y0119984D01*
X0267384Y0120291D01*
X0266740Y0120500D01*
X0266072Y0120606D01*
X0266033Y0120606D01*
X0266033Y0113806D01*
X0270033Y0113806D01*
X0270033Y0115392D02*
X0272833Y0115392D01*
X0272833Y0116390D02*
X0270033Y0116390D01*
X0269903Y0117389D02*
X0272833Y0117389D01*
X0272921Y0118387D02*
X0269499Y0118387D01*
X0268735Y0119386D02*
X0273199Y0119386D01*
X0273722Y0120384D02*
X0267098Y0120384D01*
X0266033Y0120384D02*
X0265433Y0120384D01*
X0265433Y0120606D02*
X0265395Y0120606D01*
X0264726Y0120500D01*
X0264083Y0120291D01*
X0263480Y0119984D01*
X0262932Y0119586D01*
X0262453Y0119108D01*
X0262056Y0118560D01*
X0261748Y0117957D01*
X0261539Y0117313D01*
X0261433Y0116645D01*
X0261433Y0113806D01*
X0265433Y0113806D01*
X0265433Y0113206D01*
X0261433Y0113206D01*
X0261433Y0110368D01*
X0261539Y0109699D01*
X0261748Y0109056D01*
X0262056Y0108453D01*
X0262453Y0107905D01*
X0262932Y0107426D01*
X0263480Y0107029D01*
X0264083Y0106721D01*
X0264726Y0106512D01*
X0265395Y0106406D01*
X0265433Y0106406D01*
X0265433Y0113206D01*
X0266033Y0113206D01*
X0266033Y0113806D01*
X0265433Y0113806D01*
X0265433Y0120606D01*
X0264369Y0120384D02*
X0191946Y0120384D01*
X0192359Y0119386D02*
X0262732Y0119386D01*
X0261968Y0118387D02*
X0192773Y0118387D01*
X0193033Y0117389D02*
X0261564Y0117389D01*
X0261433Y0116390D02*
X0193033Y0116390D01*
X0193033Y0115392D02*
X0261433Y0115392D01*
X0261433Y0114393D02*
X0193033Y0114393D01*
X0193033Y0113395D02*
X0265433Y0113395D01*
X0266033Y0113395D02*
X0277733Y0113395D01*
X0277733Y0114393D02*
X0278733Y0114393D01*
X0278733Y0114006D02*
X0278733Y0122794D01*
X0279498Y0122673D01*
X0280306Y0122411D01*
X0281064Y0122025D01*
X0281751Y0121525D01*
X0282352Y0120924D01*
X0282852Y0120237D01*
X0283238Y0119479D01*
X0283500Y0118671D01*
X0283633Y0117831D01*
X0283633Y0114006D01*
X0278733Y0114006D01*
X0278733Y0115392D02*
X0277733Y0115392D01*
X0277733Y0116390D02*
X0278733Y0116390D01*
X0278733Y0117389D02*
X0277733Y0117389D01*
X0277733Y0118387D02*
X0278733Y0118387D01*
X0278733Y0119386D02*
X0277733Y0119386D01*
X0277733Y0120384D02*
X0278733Y0120384D01*
X0278733Y0121383D02*
X0277733Y0121383D01*
X0277733Y0122381D02*
X0278733Y0122381D01*
X0280364Y0122381D02*
X0327483Y0122381D01*
X0327483Y0121383D02*
X0281894Y0121383D01*
X0282745Y0120384D02*
X0327483Y0120384D01*
X0327483Y0119386D02*
X0283268Y0119386D01*
X0283545Y0118387D02*
X0327483Y0118387D01*
X0327483Y0117389D02*
X0283633Y0117389D01*
X0283633Y0116390D02*
X0327483Y0116390D01*
X0327483Y0115392D02*
X0283633Y0115392D01*
X0283633Y0114393D02*
X0327483Y0114393D01*
X0327483Y0123380D02*
X0187732Y0123380D01*
X0189982Y0122381D02*
X0276103Y0122381D01*
X0274573Y0121383D02*
X0190981Y0121383D01*
X0183734Y0123380D02*
X0132732Y0123380D01*
X0134982Y0122381D02*
X0181485Y0122381D01*
X0180486Y0121383D02*
X0135981Y0121383D01*
X0136946Y0120384D02*
X0179521Y0120384D01*
X0179107Y0119386D02*
X0137359Y0119386D01*
X0137773Y0118387D02*
X0178694Y0118387D01*
X0178433Y0117389D02*
X0138033Y0117389D01*
X0138033Y0116390D02*
X0178433Y0116390D01*
X0178433Y0115392D02*
X0138033Y0115392D01*
X0138033Y0114393D02*
X0178433Y0114393D01*
X0178433Y0113395D02*
X0138033Y0113395D01*
X0138033Y0112396D02*
X0178433Y0112396D01*
X0178433Y0111398D02*
X0138033Y0111398D01*
X0138033Y0110399D02*
X0178433Y0110399D01*
X0178433Y0109401D02*
X0138033Y0109401D01*
X0137680Y0108402D02*
X0178786Y0108402D01*
X0179200Y0107404D02*
X0172877Y0107404D01*
X0175199Y0106405D02*
X0179711Y0106405D01*
X0180709Y0105407D02*
X0176197Y0105407D01*
X0177196Y0104408D02*
X0181863Y0104408D01*
X0184273Y0103410D02*
X0177960Y0103410D01*
X0166690Y0107404D02*
X0137267Y0107404D01*
X0136756Y0106405D02*
X0164368Y0106405D01*
X0163369Y0105407D02*
X0135757Y0105407D01*
X0129273Y0103410D02*
X0124416Y0103410D01*
X0125379Y0104408D02*
X0126863Y0104408D01*
X0114858Y0101413D02*
X0068983Y0101413D01*
X0068983Y0102411D02*
X0113049Y0102411D01*
X0112051Y0103410D02*
X0068983Y0103410D01*
X0068983Y0104408D02*
X0111087Y0104408D01*
X0110674Y0105407D02*
X0068983Y0105407D01*
X0068983Y0106405D02*
X0110260Y0106405D01*
X0109847Y0107404D02*
X0068983Y0107404D01*
X0068983Y0108402D02*
X0109833Y0108402D01*
X0109833Y0109401D02*
X0068983Y0109401D01*
X0068983Y0110399D02*
X0109833Y0110399D01*
X0109833Y0111398D02*
X0068983Y0111398D01*
X0068983Y0112396D02*
X0109833Y0112396D01*
X0109833Y0113395D02*
X0068983Y0113395D01*
X0068983Y0114393D02*
X0109833Y0114393D01*
X0109833Y0115392D02*
X0068983Y0115392D01*
X0068983Y0116390D02*
X0109833Y0116390D01*
X0109833Y0117389D02*
X0068983Y0117389D01*
X0068983Y0118387D02*
X0109833Y0118387D01*
X0110168Y0119386D02*
X0068983Y0119386D01*
X0068983Y0120384D02*
X0110582Y0120384D01*
X0110995Y0121383D02*
X0068983Y0121383D01*
X0068983Y0122381D02*
X0111829Y0122381D01*
X0112827Y0123380D02*
X0068983Y0123380D01*
X0068983Y0124378D02*
X0114322Y0124378D01*
X0122145Y0124378D02*
X0327483Y0124378D01*
X0327483Y0125377D02*
X0068983Y0125377D01*
X0068983Y0126375D02*
X0327483Y0126375D01*
X0327483Y0127374D02*
X0068983Y0127374D01*
X0068983Y0128372D02*
X0327483Y0128372D01*
X0327483Y0129371D02*
X0068983Y0129371D01*
X0068983Y0130369D02*
X0327483Y0130369D01*
X0327483Y0131368D02*
X0068983Y0131368D01*
X0068983Y0132366D02*
X0327483Y0132366D01*
X0327483Y0132896D02*
X0327483Y0079117D01*
X0328930Y0075625D01*
X0331602Y0072953D01*
X0335094Y0071506D01*
X0338873Y0071506D01*
X0342365Y0072953D01*
X0345037Y0075625D01*
X0346483Y0079117D01*
X0346483Y0126099D01*
X0347733Y0129117D01*
X0347733Y0132896D01*
X0346287Y0136388D01*
X0343615Y0139060D01*
X0340123Y0140506D01*
X0335094Y0140506D01*
X0331602Y0139060D01*
X0328930Y0136388D01*
X0327483Y0132896D01*
X0327678Y0133365D02*
X0068789Y0133365D01*
X0068376Y0134363D02*
X0328091Y0134363D01*
X0328505Y0135362D02*
X0067962Y0135362D01*
X0067548Y0136360D02*
X0328918Y0136360D01*
X0329901Y0137359D02*
X0066566Y0137359D01*
X0065567Y0138357D02*
X0330899Y0138357D01*
X0332316Y0139356D02*
X0064150Y0139356D01*
X0061740Y0140354D02*
X0334727Y0140354D01*
X0340490Y0140354D02*
X0361683Y0140354D01*
X0361683Y0139356D02*
X0342900Y0139356D01*
X0344317Y0138357D02*
X0361683Y0138357D01*
X0361683Y0137359D02*
X0345316Y0137359D01*
X0346298Y0136360D02*
X0361683Y0136360D01*
X0361683Y0135362D02*
X0346712Y0135362D01*
X0347126Y0134363D02*
X0361683Y0134363D01*
X0361683Y0133365D02*
X0347539Y0133365D01*
X0347733Y0132366D02*
X0361683Y0132366D01*
X0361683Y0131368D02*
X0347733Y0131368D01*
X0347733Y0130369D02*
X0361822Y0130369D01*
X0362236Y0129371D02*
X0347733Y0129371D01*
X0347425Y0128372D02*
X0362649Y0128372D01*
X0363335Y0127374D02*
X0347011Y0127374D01*
X0346598Y0126375D02*
X0354174Y0126375D01*
X0355094Y0126756D02*
X0351602Y0125310D01*
X0348930Y0122638D01*
X0347483Y0119146D01*
X0347483Y0077867D01*
X0348930Y0074375D01*
X0351602Y0071703D01*
X0355094Y0070256D01*
X0358873Y0070256D01*
X0362365Y0071703D01*
X0365037Y0074375D01*
X0366483Y0077867D01*
X0366483Y0119146D01*
X0365037Y0122638D01*
X0362365Y0125310D01*
X0358873Y0126756D01*
X0355094Y0126756D01*
X0351763Y0125377D02*
X0346483Y0125377D01*
X0346483Y0124378D02*
X0350670Y0124378D01*
X0349672Y0123380D02*
X0346483Y0123380D01*
X0346483Y0122381D02*
X0348823Y0122381D01*
X0348410Y0121383D02*
X0346483Y0121383D01*
X0346483Y0120384D02*
X0347996Y0120384D01*
X0347583Y0119386D02*
X0346483Y0119386D01*
X0346483Y0118387D02*
X0347483Y0118387D01*
X0347483Y0117389D02*
X0346483Y0117389D01*
X0346483Y0116390D02*
X0347483Y0116390D01*
X0347483Y0115392D02*
X0346483Y0115392D01*
X0346483Y0114393D02*
X0347483Y0114393D01*
X0347483Y0113395D02*
X0346483Y0113395D01*
X0346483Y0112396D02*
X0347483Y0112396D01*
X0347483Y0111398D02*
X0346483Y0111398D01*
X0346483Y0110399D02*
X0347483Y0110399D01*
X0347483Y0109401D02*
X0346483Y0109401D01*
X0346483Y0108402D02*
X0347483Y0108402D01*
X0347483Y0107404D02*
X0346483Y0107404D01*
X0346483Y0106405D02*
X0347483Y0106405D01*
X0347483Y0105407D02*
X0346483Y0105407D01*
X0346483Y0104408D02*
X0347483Y0104408D01*
X0347483Y0103410D02*
X0346483Y0103410D01*
X0346483Y0102411D02*
X0347483Y0102411D01*
X0347483Y0101413D02*
X0346483Y0101413D01*
X0346483Y0100414D02*
X0347483Y0100414D01*
X0347483Y0099415D02*
X0346483Y0099415D01*
X0346483Y0098417D02*
X0347483Y0098417D01*
X0347483Y0097418D02*
X0346483Y0097418D01*
X0346483Y0096420D02*
X0347483Y0096420D01*
X0347483Y0095421D02*
X0346483Y0095421D01*
X0346483Y0094423D02*
X0347483Y0094423D01*
X0347483Y0093424D02*
X0346483Y0093424D01*
X0346483Y0092426D02*
X0347483Y0092426D01*
X0347483Y0091427D02*
X0346483Y0091427D01*
X0346483Y0090429D02*
X0347483Y0090429D01*
X0347483Y0089430D02*
X0346483Y0089430D01*
X0346483Y0088432D02*
X0347483Y0088432D01*
X0347483Y0087433D02*
X0346483Y0087433D01*
X0346483Y0086435D02*
X0347483Y0086435D01*
X0347483Y0085436D02*
X0346483Y0085436D01*
X0346483Y0084438D02*
X0347483Y0084438D01*
X0347483Y0083439D02*
X0346483Y0083439D01*
X0346483Y0082441D02*
X0347483Y0082441D01*
X0347483Y0081442D02*
X0346483Y0081442D01*
X0346483Y0080444D02*
X0347483Y0080444D01*
X0347483Y0079445D02*
X0346483Y0079445D01*
X0346206Y0078447D02*
X0347483Y0078447D01*
X0347657Y0077448D02*
X0345792Y0077448D01*
X0345379Y0076450D02*
X0348070Y0076450D01*
X0348484Y0075451D02*
X0344863Y0075451D01*
X0343865Y0074453D02*
X0348897Y0074453D01*
X0349850Y0073454D02*
X0342866Y0073454D01*
X0341165Y0072456D02*
X0350849Y0072456D01*
X0352194Y0071457D02*
X0061410Y0071457D01*
X0068983Y0084438D02*
X0112833Y0084438D01*
X0112833Y0085436D02*
X0068983Y0085436D01*
X0068983Y0086435D02*
X0112833Y0086435D01*
X0112833Y0087433D02*
X0068983Y0087433D01*
X0068983Y0088432D02*
X0112928Y0088432D01*
X0113213Y0089430D02*
X0068983Y0089430D01*
X0068983Y0090429D02*
X0113755Y0090429D01*
X0114618Y0091427D02*
X0068983Y0091427D01*
X0041862Y0070459D02*
X0354605Y0070459D01*
X0359362Y0070459D02*
X0386155Y0070459D01*
X0386155Y0071457D02*
X0361772Y0071457D01*
X0363118Y0072456D02*
X0373153Y0072456D01*
X0371406Y0073454D02*
X0364116Y0073454D01*
X0365069Y0074453D02*
X0370408Y0074453D01*
X0369469Y0075451D02*
X0365483Y0075451D01*
X0365896Y0076450D02*
X0369056Y0076450D01*
X0368642Y0077448D02*
X0366310Y0077448D01*
X0366483Y0078447D02*
X0368233Y0078447D01*
X0368233Y0079445D02*
X0366483Y0079445D01*
X0366483Y0080444D02*
X0368233Y0080444D01*
X0368233Y0081442D02*
X0366483Y0081442D01*
X0366483Y0082441D02*
X0368233Y0082441D01*
X0368233Y0083439D02*
X0366483Y0083439D01*
X0366483Y0084438D02*
X0368233Y0084438D01*
X0368233Y0085436D02*
X0366483Y0085436D01*
X0366483Y0086435D02*
X0368233Y0086435D01*
X0368233Y0087433D02*
X0366483Y0087433D01*
X0366483Y0088432D02*
X0368233Y0088432D01*
X0368233Y0089430D02*
X0366483Y0089430D01*
X0366483Y0090429D02*
X0368586Y0090429D01*
X0368833Y0091427D02*
X0366483Y0091427D01*
X0366483Y0092426D02*
X0368833Y0092426D01*
X0368833Y0093424D02*
X0366483Y0093424D01*
X0366483Y0094423D02*
X0368833Y0094423D01*
X0368833Y0095421D02*
X0366483Y0095421D01*
X0366483Y0096420D02*
X0368833Y0096420D01*
X0368833Y0097418D02*
X0366483Y0097418D01*
X0366483Y0098417D02*
X0368833Y0098417D01*
X0368833Y0099415D02*
X0366483Y0099415D01*
X0366483Y0100414D02*
X0368833Y0100414D01*
X0368833Y0101413D02*
X0366483Y0101413D01*
X0366483Y0102411D02*
X0368833Y0102411D01*
X0368833Y0103410D02*
X0366483Y0103410D01*
X0366483Y0104408D02*
X0368833Y0104408D01*
X0368833Y0105407D02*
X0366483Y0105407D01*
X0366483Y0106405D02*
X0368833Y0106405D01*
X0368454Y0107404D02*
X0366483Y0107404D01*
X0366483Y0108402D02*
X0368233Y0108402D01*
X0368233Y0109401D02*
X0366483Y0109401D01*
X0366483Y0110399D02*
X0368233Y0110399D01*
X0368233Y0111398D02*
X0366483Y0111398D01*
X0366483Y0112396D02*
X0368233Y0112396D01*
X0368233Y0113395D02*
X0366483Y0113395D01*
X0366483Y0114393D02*
X0368233Y0114393D01*
X0368233Y0115392D02*
X0366483Y0115392D01*
X0366483Y0116390D02*
X0368233Y0116390D01*
X0368233Y0117389D02*
X0366483Y0117389D01*
X0366483Y0118387D02*
X0368233Y0118387D01*
X0368361Y0119386D02*
X0366384Y0119386D01*
X0365970Y0120384D02*
X0368775Y0120384D01*
X0368833Y0121383D02*
X0365557Y0121383D01*
X0365143Y0122381D02*
X0368327Y0122381D01*
X0367329Y0123380D02*
X0364295Y0123380D01*
X0363296Y0124378D02*
X0366330Y0124378D01*
X0365332Y0125377D02*
X0362203Y0125377D01*
X0364333Y0126375D02*
X0359793Y0126375D01*
X0377409Y0135362D02*
X0386155Y0135362D01*
X0386155Y0136360D02*
X0377283Y0136360D01*
X0377283Y0137359D02*
X0386155Y0137359D01*
X0386155Y0138357D02*
X0377283Y0138357D01*
X0377283Y0139356D02*
X0386155Y0139356D01*
X0386155Y0140354D02*
X0377283Y0140354D01*
X0377283Y0141353D02*
X0386155Y0141353D01*
X0386155Y0142351D02*
X0377283Y0142351D01*
X0377283Y0143350D02*
X0386155Y0143350D01*
X0386155Y0144348D02*
X0377283Y0144348D01*
X0377355Y0145347D02*
X0386155Y0145347D01*
X0386155Y0146346D02*
X0378353Y0146346D01*
X0379352Y0147344D02*
X0386155Y0147344D01*
X0386155Y0148343D02*
X0380350Y0148343D01*
X0381349Y0149341D02*
X0386155Y0149341D01*
X0386155Y0150340D02*
X0382347Y0150340D01*
X0383287Y0151338D02*
X0386155Y0151338D01*
X0386155Y0152337D02*
X0383701Y0152337D01*
X0384115Y0153335D02*
X0386155Y0153335D01*
X0386155Y0154334D02*
X0384433Y0154334D01*
X0384433Y0155332D02*
X0386155Y0155332D01*
X0386155Y0156331D02*
X0384433Y0156331D01*
X0384433Y0157329D02*
X0386155Y0157329D01*
X0386155Y0158328D02*
X0384433Y0158328D01*
X0384433Y0159326D02*
X0386155Y0159326D01*
X0386155Y0160325D02*
X0384433Y0160325D01*
X0384433Y0161323D02*
X0386155Y0161323D01*
X0386155Y0162322D02*
X0384572Y0162322D01*
X0384986Y0163320D02*
X0386155Y0163320D01*
X0386155Y0164319D02*
X0385033Y0164319D01*
X0385033Y0165317D02*
X0386155Y0165317D01*
X0386155Y0166316D02*
X0385033Y0166316D01*
X0385033Y0167314D02*
X0386155Y0167314D01*
X0386155Y0168313D02*
X0385033Y0168313D01*
X0385033Y0169311D02*
X0386155Y0169311D01*
X0386155Y0170310D02*
X0385033Y0170310D01*
X0385033Y0171308D02*
X0386155Y0171308D01*
X0386155Y0172307D02*
X0385033Y0172307D01*
X0385033Y0173305D02*
X0386155Y0173305D01*
X0386155Y0174304D02*
X0385033Y0174304D01*
X0384733Y0175302D02*
X0386155Y0175302D01*
X0386155Y0176301D02*
X0384433Y0176301D01*
X0384433Y0177299D02*
X0386155Y0177299D01*
X0386155Y0178298D02*
X0384433Y0178298D01*
X0384433Y0179296D02*
X0386155Y0179296D01*
X0386155Y0180295D02*
X0384433Y0180295D01*
X0384433Y0181293D02*
X0386155Y0181293D01*
X0386155Y0182292D02*
X0384433Y0182292D01*
X0384433Y0183290D02*
X0386155Y0183290D01*
X0386155Y0184289D02*
X0384433Y0184289D01*
X0384433Y0185287D02*
X0386155Y0185287D01*
X0386155Y0186286D02*
X0384433Y0186286D01*
X0384433Y0187284D02*
X0386155Y0187284D01*
X0386155Y0188283D02*
X0384433Y0188283D01*
X0384433Y0189282D02*
X0386155Y0189282D01*
X0386155Y0190280D02*
X0384433Y0190280D01*
X0384433Y0191279D02*
X0386155Y0191279D01*
X0386155Y0192277D02*
X0384761Y0192277D01*
X0385033Y0193276D02*
X0386155Y0193276D01*
X0386155Y0194274D02*
X0385033Y0194274D01*
X0385033Y0195273D02*
X0386155Y0195273D01*
X0386155Y0196271D02*
X0385033Y0196271D01*
X0385033Y0197270D02*
X0386155Y0197270D01*
X0386155Y0198268D02*
X0385033Y0198268D01*
X0385033Y0199267D02*
X0386155Y0199267D01*
X0386155Y0200265D02*
X0385033Y0200265D01*
X0385033Y0201264D02*
X0386155Y0201264D01*
X0386155Y0202262D02*
X0385033Y0202262D01*
X0385033Y0203261D02*
X0386155Y0203261D01*
X0386155Y0204259D02*
X0384958Y0204259D01*
X0384544Y0205258D02*
X0386155Y0205258D01*
X0386155Y0206256D02*
X0384131Y0206256D01*
X0383664Y0207255D02*
X0386155Y0207255D01*
X0386155Y0208253D02*
X0382666Y0208253D01*
X0381667Y0209252D02*
X0386155Y0209252D01*
X0386155Y0210250D02*
X0379647Y0210250D01*
X0373620Y0210250D02*
X0373516Y0210250D01*
X0372518Y0211249D02*
X0386155Y0211249D01*
X0386155Y0212247D02*
X0371519Y0212247D01*
X0370521Y0213246D02*
X0386155Y0213246D01*
X0386155Y0214244D02*
X0369522Y0214244D01*
X0368524Y0215243D02*
X0386155Y0215243D01*
X0386155Y0216241D02*
X0367525Y0216241D01*
X0366526Y0217240D02*
X0369098Y0217240D01*
X0368634Y0217402D02*
X0369906Y0216957D01*
X0371220Y0216657D01*
X0372559Y0216506D01*
X0372733Y0216506D01*
X0372733Y0228006D01*
X0361233Y0228006D01*
X0361233Y0227832D01*
X0361384Y0226493D01*
X0361684Y0225179D01*
X0362129Y0223907D01*
X0362714Y0222693D01*
X0363431Y0221551D01*
X0364272Y0220498D01*
X0365225Y0219544D01*
X0366278Y0218704D01*
X0367420Y0217987D01*
X0368634Y0217402D01*
X0367020Y0218238D02*
X0365528Y0218238D01*
X0365610Y0219237D02*
X0364529Y0219237D01*
X0364534Y0220235D02*
X0363531Y0220235D01*
X0363684Y0221234D02*
X0362532Y0221234D01*
X0363003Y0222232D02*
X0360348Y0222232D01*
X0362455Y0223231D02*
X0355787Y0223231D01*
X0361673Y0225228D02*
X0034794Y0225228D01*
X0035022Y0226226D02*
X0073974Y0226226D01*
X0074410Y0225790D02*
X0075997Y0225790D01*
X0075997Y0230305D01*
X0076966Y0230305D01*
X0076966Y0225790D01*
X0078552Y0225790D01*
X0081481Y0228719D01*
X0081481Y0230305D01*
X0076966Y0230305D01*
X0076966Y0231274D01*
X0081481Y0231274D01*
X0081481Y0232861D01*
X0078552Y0235790D01*
X0076966Y0235790D01*
X0076966Y0231274D01*
X0075997Y0231274D01*
X0075997Y0230305D01*
X0071481Y0230305D01*
X0071481Y0228719D01*
X0074410Y0225790D01*
X0075997Y0226226D02*
X0076966Y0226226D01*
X0076966Y0227225D02*
X0075997Y0227225D01*
X0075997Y0228223D02*
X0076966Y0228223D01*
X0076966Y0229222D02*
X0075997Y0229222D01*
X0075997Y0230220D02*
X0076966Y0230220D01*
X0076966Y0231219D02*
X0319501Y0231219D01*
X0319501Y0231274D02*
X0319501Y0230305D01*
X0320470Y0230305D01*
X0320470Y0231274D01*
X0324985Y0231274D01*
X0324985Y0232861D01*
X0322056Y0235790D01*
X0320470Y0235790D01*
X0320470Y0231274D01*
X0319501Y0231274D01*
X0314985Y0231274D01*
X0314985Y0232861D01*
X0317914Y0235790D01*
X0319501Y0235790D01*
X0319501Y0231274D01*
X0319501Y0232217D02*
X0320470Y0232217D01*
X0320470Y0231219D02*
X0361544Y0231219D01*
X0361684Y0231834D02*
X0361384Y0230520D01*
X0361233Y0229180D01*
X0361233Y0229006D01*
X0372733Y0229006D01*
X0372733Y0228006D01*
X0373733Y0228006D01*
X0373733Y0216506D01*
X0373907Y0216506D01*
X0375247Y0216657D01*
X0376561Y0216957D01*
X0377833Y0217402D01*
X0379047Y0217987D01*
X0380188Y0218704D01*
X0381242Y0219544D01*
X0382195Y0220498D01*
X0383035Y0221551D01*
X0383753Y0222693D01*
X0384337Y0223907D01*
X0384782Y0225179D01*
X0385082Y0226493D01*
X0385233Y0227832D01*
X0385233Y0228006D01*
X0373733Y0228006D01*
X0373733Y0229006D01*
X0372733Y0229006D01*
X0372733Y0240506D01*
X0372559Y0240506D01*
X0371220Y0240355D01*
X0369906Y0240055D01*
X0368634Y0239610D01*
X0367420Y0239026D01*
X0366278Y0238308D01*
X0365225Y0237468D01*
X0364272Y0236515D01*
X0363431Y0235461D01*
X0362714Y0234320D01*
X0362129Y0233106D01*
X0361684Y0231834D01*
X0361819Y0232217D02*
X0324985Y0232217D01*
X0324630Y0233216D02*
X0362182Y0233216D01*
X0362663Y0234215D02*
X0323632Y0234215D01*
X0322633Y0235213D02*
X0363275Y0235213D01*
X0364029Y0236212D02*
X0032437Y0236212D01*
X0032195Y0236515D02*
X0033035Y0235461D01*
X0033753Y0234320D01*
X0034337Y0233106D01*
X0034782Y0231834D01*
X0035082Y0230520D01*
X0035233Y0229180D01*
X0035233Y0229006D01*
X0023733Y0229006D01*
X0022733Y0229006D01*
X0022733Y0228006D01*
X0011233Y0228006D01*
X0011233Y0227832D01*
X0011384Y0226493D01*
X0011684Y0225179D01*
X0012129Y0223907D01*
X0012714Y0222693D01*
X0013431Y0221551D01*
X0014272Y0220498D01*
X0015225Y0219544D01*
X0016278Y0218704D01*
X0017420Y0217987D01*
X0018634Y0217402D01*
X0019906Y0216957D01*
X0021220Y0216657D01*
X0022559Y0216506D01*
X0022733Y0216506D01*
X0022733Y0228006D01*
X0023733Y0228006D01*
X0023733Y0229006D01*
X0023733Y0240506D01*
X0023907Y0240506D01*
X0025247Y0240355D01*
X0026561Y0240055D01*
X0027833Y0239610D01*
X0029047Y0239026D01*
X0030188Y0238308D01*
X0031242Y0237468D01*
X0032195Y0236515D01*
X0031500Y0237210D02*
X0364967Y0237210D01*
X0366153Y0238209D02*
X0030314Y0238209D01*
X0028670Y0239207D02*
X0367797Y0239207D01*
X0370564Y0240206D02*
X0025903Y0240206D01*
X0023733Y0240206D02*
X0022733Y0240206D01*
X0022733Y0240506D02*
X0022559Y0240506D01*
X0021220Y0240355D01*
X0019906Y0240055D01*
X0018634Y0239610D01*
X0017420Y0239026D01*
X0016278Y0238308D01*
X0015225Y0237468D01*
X0014272Y0236515D01*
X0013431Y0235461D01*
X0012714Y0234320D01*
X0012129Y0233106D01*
X0011684Y0231834D01*
X0011384Y0230520D01*
X0011233Y0229180D01*
X0011233Y0229006D01*
X0022733Y0229006D01*
X0022733Y0240506D01*
X0022733Y0239207D02*
X0023733Y0239207D01*
X0023733Y0238209D02*
X0022733Y0238209D01*
X0022733Y0237210D02*
X0023733Y0237210D01*
X0023733Y0236212D02*
X0022733Y0236212D01*
X0022733Y0235213D02*
X0023733Y0235213D01*
X0023733Y0234215D02*
X0022733Y0234215D01*
X0022733Y0233216D02*
X0023733Y0233216D01*
X0023733Y0232217D02*
X0022733Y0232217D01*
X0022733Y0231219D02*
X0023733Y0231219D01*
X0023733Y0230220D02*
X0022733Y0230220D01*
X0022733Y0229222D02*
X0023733Y0229222D01*
X0023733Y0228223D02*
X0071977Y0228223D01*
X0071481Y0229222D02*
X0035229Y0229222D01*
X0035116Y0230220D02*
X0071481Y0230220D01*
X0071481Y0231274D02*
X0075997Y0231274D01*
X0075997Y0235790D01*
X0074410Y0235790D01*
X0071481Y0232861D01*
X0071481Y0231274D01*
X0071481Y0232217D02*
X0034648Y0232217D01*
X0034923Y0231219D02*
X0075997Y0231219D01*
X0075997Y0232217D02*
X0076966Y0232217D01*
X0076966Y0233216D02*
X0075997Y0233216D01*
X0075997Y0234215D02*
X0076966Y0234215D01*
X0076966Y0235213D02*
X0075997Y0235213D01*
X0073834Y0235213D02*
X0033191Y0235213D01*
X0033803Y0234215D02*
X0072835Y0234215D01*
X0071837Y0233216D02*
X0034284Y0233216D01*
X0035165Y0227225D02*
X0072975Y0227225D01*
X0078989Y0226226D02*
X0317478Y0226226D01*
X0317914Y0225790D02*
X0319501Y0225790D01*
X0319501Y0230305D01*
X0314985Y0230305D01*
X0314985Y0228719D01*
X0317914Y0225790D01*
X0319501Y0226226D02*
X0320470Y0226226D01*
X0320470Y0225790D02*
X0322056Y0225790D01*
X0324985Y0228719D01*
X0324985Y0230305D01*
X0320470Y0230305D01*
X0320470Y0225790D01*
X0320470Y0227225D02*
X0319501Y0227225D01*
X0319501Y0228223D02*
X0320470Y0228223D01*
X0320470Y0229222D02*
X0319501Y0229222D01*
X0319501Y0230220D02*
X0320470Y0230220D01*
X0320470Y0233216D02*
X0319501Y0233216D01*
X0319501Y0234215D02*
X0320470Y0234215D01*
X0320470Y0235213D02*
X0319501Y0235213D01*
X0317338Y0235213D02*
X0079129Y0235213D01*
X0080128Y0234215D02*
X0316339Y0234215D01*
X0315340Y0233216D02*
X0081126Y0233216D01*
X0081481Y0232217D02*
X0314985Y0232217D01*
X0314985Y0230220D02*
X0081481Y0230220D01*
X0081481Y0229222D02*
X0314985Y0229222D01*
X0315481Y0228223D02*
X0080986Y0228223D01*
X0079988Y0227225D02*
X0316479Y0227225D01*
X0322493Y0226226D02*
X0361445Y0226226D01*
X0361302Y0227225D02*
X0323492Y0227225D01*
X0324490Y0228223D02*
X0372733Y0228223D01*
X0372733Y0227225D02*
X0373733Y0227225D01*
X0373733Y0228223D02*
X0386155Y0228223D01*
X0386155Y0227225D02*
X0385165Y0227225D01*
X0385022Y0226226D02*
X0386155Y0226226D01*
X0386155Y0225228D02*
X0384794Y0225228D01*
X0384450Y0224229D02*
X0386155Y0224229D01*
X0386155Y0223231D02*
X0384012Y0223231D01*
X0383463Y0222232D02*
X0386155Y0222232D01*
X0386155Y0221234D02*
X0382782Y0221234D01*
X0381933Y0220235D02*
X0386155Y0220235D01*
X0386155Y0219237D02*
X0380856Y0219237D01*
X0379447Y0218238D02*
X0386155Y0218238D01*
X0386155Y0217240D02*
X0377368Y0217240D01*
X0373733Y0217240D02*
X0372733Y0217240D01*
X0372733Y0218238D02*
X0373733Y0218238D01*
X0373733Y0219237D02*
X0372733Y0219237D01*
X0372733Y0220235D02*
X0373733Y0220235D01*
X0373733Y0221234D02*
X0372733Y0221234D01*
X0372733Y0222232D02*
X0373733Y0222232D01*
X0373733Y0223231D02*
X0372733Y0223231D01*
X0372733Y0224229D02*
X0373733Y0224229D01*
X0373733Y0225228D02*
X0372733Y0225228D01*
X0372733Y0226226D02*
X0373733Y0226226D01*
X0373733Y0229006D02*
X0385233Y0229006D01*
X0385233Y0229180D01*
X0385082Y0230520D01*
X0384782Y0231834D01*
X0384337Y0233106D01*
X0383753Y0234320D01*
X0383035Y0235461D01*
X0382195Y0236515D01*
X0381242Y0237468D01*
X0380188Y0238308D01*
X0379047Y0239026D01*
X0377833Y0239610D01*
X0376561Y0240055D01*
X0375247Y0240355D01*
X0373907Y0240506D01*
X0373733Y0240506D01*
X0373733Y0229006D01*
X0373733Y0229222D02*
X0372733Y0229222D01*
X0372733Y0230220D02*
X0373733Y0230220D01*
X0373733Y0231219D02*
X0372733Y0231219D01*
X0372733Y0232217D02*
X0373733Y0232217D01*
X0373733Y0233216D02*
X0372733Y0233216D01*
X0372733Y0234215D02*
X0373733Y0234215D01*
X0373733Y0235213D02*
X0372733Y0235213D01*
X0372733Y0236212D02*
X0373733Y0236212D01*
X0373733Y0237210D02*
X0372733Y0237210D01*
X0372733Y0238209D02*
X0373733Y0238209D01*
X0373733Y0239207D02*
X0372733Y0239207D01*
X0372733Y0240206D02*
X0373733Y0240206D01*
X0375903Y0240206D02*
X0386155Y0240206D01*
X0386155Y0241204D02*
X0010233Y0241204D01*
X0010233Y0240206D02*
X0020564Y0240206D01*
X0017797Y0239207D02*
X0010233Y0239207D01*
X0010233Y0238209D02*
X0016153Y0238209D01*
X0014967Y0237210D02*
X0010233Y0237210D01*
X0010233Y0236212D02*
X0014029Y0236212D01*
X0013275Y0235213D02*
X0010233Y0235213D01*
X0010233Y0234215D02*
X0012663Y0234215D01*
X0012182Y0233216D02*
X0010233Y0233216D01*
X0010233Y0232217D02*
X0011819Y0232217D01*
X0011544Y0231219D02*
X0010233Y0231219D01*
X0010233Y0230220D02*
X0011351Y0230220D01*
X0011238Y0229222D02*
X0010233Y0229222D01*
X0010233Y0228223D02*
X0022733Y0228223D01*
X0022733Y0227225D02*
X0023733Y0227225D01*
X0023733Y0226226D02*
X0022733Y0226226D01*
X0022733Y0225228D02*
X0023733Y0225228D01*
X0023733Y0224229D02*
X0022733Y0224229D01*
X0022733Y0223231D02*
X0023733Y0223231D01*
X0023733Y0222232D02*
X0022733Y0222232D01*
X0022733Y0221234D02*
X0023733Y0221234D01*
X0023733Y0220235D02*
X0022733Y0220235D01*
X0022733Y0219237D02*
X0023733Y0219237D01*
X0023733Y0218238D02*
X0022733Y0218238D01*
X0022733Y0217240D02*
X0023733Y0217240D01*
X0019098Y0217240D02*
X0010233Y0217240D01*
X0010233Y0218238D02*
X0017020Y0218238D01*
X0015610Y0219237D02*
X0010233Y0219237D01*
X0010233Y0220235D02*
X0014534Y0220235D01*
X0013684Y0221234D02*
X0010233Y0221234D01*
X0010233Y0222232D02*
X0013003Y0222232D01*
X0012455Y0223231D02*
X0010233Y0223231D01*
X0010233Y0224229D02*
X0012016Y0224229D01*
X0011673Y0225228D02*
X0010233Y0225228D01*
X0010233Y0226226D02*
X0011445Y0226226D01*
X0011302Y0227225D02*
X0010233Y0227225D01*
X0010233Y0242203D02*
X0386155Y0242203D01*
X0386155Y0239207D02*
X0378670Y0239207D01*
X0380314Y0238209D02*
X0386155Y0238209D01*
X0386155Y0237210D02*
X0381500Y0237210D01*
X0382437Y0236212D02*
X0386155Y0236212D01*
X0386155Y0235213D02*
X0383191Y0235213D01*
X0383803Y0234215D02*
X0386155Y0234215D01*
X0386155Y0233216D02*
X0384284Y0233216D01*
X0384648Y0232217D02*
X0386155Y0232217D01*
X0386155Y0231219D02*
X0384923Y0231219D01*
X0385116Y0230220D02*
X0386155Y0230220D01*
X0386155Y0229222D02*
X0385229Y0229222D01*
X0362016Y0224229D02*
X0034450Y0224229D01*
X0049328Y0209252D02*
X0114017Y0209252D01*
X0112701Y0208253D02*
X0048329Y0208253D01*
X0046064Y0207255D02*
X0058383Y0207255D01*
X0058633Y0207255D02*
X0059633Y0207255D01*
X0059633Y0207294D02*
X0059633Y0198506D01*
X0058633Y0198506D01*
X0058633Y0197506D01*
X0053733Y0197506D01*
X0053733Y0193681D01*
X0053866Y0192842D01*
X0054129Y0192033D01*
X0054515Y0191276D01*
X0055014Y0190588D01*
X0055615Y0189987D01*
X0056303Y0189488D01*
X0057060Y0189102D01*
X0057869Y0188839D01*
X0058633Y0188718D01*
X0058633Y0197506D01*
X0059633Y0197506D01*
X0059633Y0188718D01*
X0060398Y0188839D01*
X0061206Y0189102D01*
X0061964Y0189488D01*
X0062651Y0189987D01*
X0063252Y0190588D01*
X0063752Y0191276D01*
X0064138Y0192033D01*
X0064400Y0192842D01*
X0064533Y0193681D01*
X0064533Y0197506D01*
X0059633Y0197506D01*
X0059633Y0198506D01*
X0064533Y0198506D01*
X0064533Y0202331D01*
X0064400Y0203171D01*
X0064138Y0203979D01*
X0063752Y0204737D01*
X0063252Y0205424D01*
X0062651Y0206025D01*
X0061964Y0206525D01*
X0061206Y0206911D01*
X0060398Y0207173D01*
X0059633Y0207294D01*
X0059884Y0207255D02*
X0111702Y0207255D01*
X0110943Y0206256D02*
X0062333Y0206256D01*
X0063373Y0205258D02*
X0110529Y0205258D01*
X0107432Y0204259D02*
X0063995Y0204259D01*
X0064371Y0203261D02*
X0105611Y0203261D01*
X0104612Y0202262D02*
X0064533Y0202262D01*
X0064533Y0201264D02*
X0103614Y0201264D01*
X0102615Y0200265D02*
X0064533Y0200265D01*
X0064533Y0199267D02*
X0101617Y0199267D01*
X0100618Y0198268D02*
X0059633Y0198268D01*
X0059633Y0197270D02*
X0058633Y0197270D01*
X0058633Y0198268D02*
X0047933Y0198268D01*
X0047933Y0197270D02*
X0053733Y0197270D01*
X0053733Y0196271D02*
X0047933Y0196271D01*
X0047933Y0195273D02*
X0053733Y0195273D01*
X0053733Y0194274D02*
X0047933Y0194274D01*
X0047933Y0193276D02*
X0053798Y0193276D01*
X0054050Y0192277D02*
X0047868Y0192277D01*
X0047454Y0191279D02*
X0054514Y0191279D01*
X0055323Y0190280D02*
X0047283Y0190280D01*
X0047283Y0189282D02*
X0056708Y0189282D01*
X0058633Y0189282D02*
X0059633Y0189282D01*
X0059633Y0190280D02*
X0058633Y0190280D01*
X0058633Y0191279D02*
X0059633Y0191279D01*
X0059633Y0192277D02*
X0058633Y0192277D01*
X0058633Y0193276D02*
X0059633Y0193276D01*
X0059633Y0194274D02*
X0058633Y0194274D01*
X0058633Y0195273D02*
X0059633Y0195273D01*
X0059633Y0196271D02*
X0058633Y0196271D01*
X0058633Y0198506D02*
X0053733Y0198506D01*
X0053733Y0202331D01*
X0053866Y0203171D01*
X0054129Y0203979D01*
X0054515Y0204737D01*
X0055014Y0205424D01*
X0055615Y0206025D01*
X0056303Y0206525D01*
X0057060Y0206911D01*
X0057869Y0207173D01*
X0058633Y0207294D01*
X0058633Y0198506D01*
X0058633Y0199267D02*
X0059633Y0199267D01*
X0059633Y0200265D02*
X0058633Y0200265D01*
X0058633Y0201264D02*
X0059633Y0201264D01*
X0059633Y0202262D02*
X0058633Y0202262D01*
X0058633Y0203261D02*
X0059633Y0203261D01*
X0059633Y0204259D02*
X0058633Y0204259D01*
X0058633Y0205258D02*
X0059633Y0205258D01*
X0059633Y0206256D02*
X0058633Y0206256D01*
X0055933Y0206256D02*
X0046824Y0206256D01*
X0047237Y0205258D02*
X0054893Y0205258D01*
X0054272Y0204259D02*
X0047651Y0204259D01*
X0047933Y0203261D02*
X0053895Y0203261D01*
X0053733Y0202262D02*
X0047933Y0202262D01*
X0047933Y0201264D02*
X0053733Y0201264D01*
X0053733Y0200265D02*
X0047933Y0200265D01*
X0047933Y0199267D02*
X0053733Y0199267D01*
X0064533Y0197270D02*
X0100172Y0197270D01*
X0099758Y0196271D02*
X0064533Y0196271D01*
X0064533Y0195273D02*
X0099633Y0195273D01*
X0099633Y0194274D02*
X0064533Y0194274D01*
X0064469Y0193276D02*
X0099633Y0193276D01*
X0099633Y0192277D02*
X0064217Y0192277D01*
X0063753Y0191279D02*
X0099633Y0191279D01*
X0099633Y0190280D02*
X0062944Y0190280D01*
X0061559Y0189282D02*
X0099633Y0189282D01*
X0099633Y0188283D02*
X0047283Y0188283D01*
X0047283Y0187284D02*
X0099633Y0187284D01*
X0099633Y0186286D02*
X0047283Y0186286D01*
X0047283Y0185287D02*
X0099633Y0185287D01*
X0099633Y0184289D02*
X0047283Y0184289D01*
X0047283Y0183290D02*
X0099633Y0183290D01*
X0099633Y0182292D02*
X0047283Y0182292D01*
X0047283Y0181293D02*
X0099633Y0181293D01*
X0099633Y0180295D02*
X0047283Y0180295D01*
X0047283Y0179296D02*
X0099633Y0179296D01*
X0099633Y0178298D02*
X0047283Y0178298D01*
X0047283Y0177299D02*
X0056842Y0177299D01*
X0055391Y0176301D02*
X0047283Y0176301D01*
X0047426Y0175302D02*
X0054563Y0175302D01*
X0054072Y0174304D02*
X0047839Y0174304D01*
X0047933Y0173305D02*
X0053808Y0173305D01*
X0053733Y0172307D02*
X0047933Y0172307D01*
X0047933Y0171308D02*
X0053733Y0171308D01*
X0053733Y0170310D02*
X0047933Y0170310D01*
X0047933Y0169311D02*
X0053733Y0169311D01*
X0053733Y0167314D02*
X0047933Y0167314D01*
X0047933Y0166316D02*
X0053733Y0166316D01*
X0053733Y0165317D02*
X0047933Y0165317D01*
X0047933Y0164319D02*
X0053733Y0164319D01*
X0053873Y0163320D02*
X0047933Y0163320D01*
X0047679Y0162322D02*
X0054237Y0162322D01*
X0054844Y0161323D02*
X0047266Y0161323D01*
X0046852Y0160325D02*
X0055839Y0160325D01*
X0058633Y0160325D02*
X0059633Y0160325D01*
X0059633Y0161323D02*
X0058633Y0161323D01*
X0058633Y0162322D02*
X0059633Y0162322D01*
X0059633Y0163320D02*
X0058633Y0163320D01*
X0058633Y0164319D02*
X0059633Y0164319D01*
X0059633Y0165317D02*
X0058633Y0165317D01*
X0058633Y0166316D02*
X0059633Y0166316D01*
X0059633Y0167314D02*
X0058633Y0167314D01*
X0058633Y0168313D02*
X0047933Y0168313D01*
X0058633Y0169311D02*
X0059633Y0169311D01*
X0059633Y0168313D02*
X0098733Y0168313D01*
X0098733Y0169311D02*
X0064533Y0169311D01*
X0064533Y0170310D02*
X0098733Y0170310D01*
X0098733Y0171308D02*
X0064533Y0171308D01*
X0064533Y0172307D02*
X0099633Y0172307D01*
X0099633Y0173305D02*
X0064458Y0173305D01*
X0064195Y0174304D02*
X0099633Y0174304D01*
X0099633Y0175302D02*
X0063704Y0175302D01*
X0062876Y0176301D02*
X0099633Y0176301D01*
X0099633Y0177299D02*
X0061425Y0177299D01*
X0059633Y0177299D02*
X0058633Y0177299D01*
X0058633Y0176301D02*
X0059633Y0176301D01*
X0059633Y0175302D02*
X0058633Y0175302D01*
X0058633Y0174304D02*
X0059633Y0174304D01*
X0059633Y0173305D02*
X0058633Y0173305D01*
X0058633Y0172307D02*
X0059633Y0172307D01*
X0059633Y0171308D02*
X0058633Y0171308D01*
X0058633Y0170310D02*
X0059633Y0170310D01*
X0064533Y0167314D02*
X0098733Y0167314D01*
X0098733Y0166316D02*
X0064533Y0166316D01*
X0064533Y0165317D02*
X0099023Y0165317D01*
X0100021Y0164319D02*
X0064533Y0164319D01*
X0064393Y0163320D02*
X0101020Y0163320D01*
X0102018Y0162322D02*
X0064030Y0162322D01*
X0037562Y0156331D02*
X0031440Y0156331D01*
X0030441Y0157329D02*
X0035152Y0157329D01*
X0033933Y0158328D02*
X0029443Y0158328D01*
X0028444Y0159326D02*
X0032934Y0159326D01*
X0032215Y0160325D02*
X0027633Y0160325D01*
X0027633Y0161323D02*
X0031801Y0161323D01*
X0031388Y0162322D02*
X0027979Y0162322D01*
X0028233Y0163320D02*
X0031133Y0163320D01*
X0031133Y0164319D02*
X0028233Y0164319D01*
X0028233Y0165317D02*
X0031133Y0165317D01*
X0031133Y0166316D02*
X0028233Y0166316D01*
X0028233Y0167314D02*
X0031133Y0167314D01*
X0031133Y0168313D02*
X0028233Y0168313D01*
X0028233Y0169311D02*
X0031133Y0169311D01*
X0031133Y0170310D02*
X0028233Y0170310D01*
X0028233Y0171308D02*
X0031133Y0171308D01*
X0031133Y0172307D02*
X0028233Y0172307D01*
X0028233Y0173305D02*
X0031133Y0173305D01*
X0031227Y0174304D02*
X0028139Y0174304D01*
X0027726Y0175302D02*
X0031641Y0175302D01*
X0031683Y0176301D02*
X0027633Y0176301D01*
X0027633Y0177299D02*
X0031683Y0177299D01*
X0031683Y0178298D02*
X0027633Y0178298D01*
X0027633Y0179296D02*
X0031683Y0179296D01*
X0031683Y0180295D02*
X0027633Y0180295D01*
X0027633Y0181293D02*
X0031683Y0181293D01*
X0031683Y0182292D02*
X0027633Y0182292D01*
X0027633Y0183290D02*
X0031683Y0183290D01*
X0031683Y0184289D02*
X0027633Y0184289D01*
X0027633Y0185287D02*
X0031683Y0185287D01*
X0031683Y0186286D02*
X0027633Y0186286D01*
X0027633Y0187284D02*
X0031683Y0187284D01*
X0031683Y0188283D02*
X0027633Y0188283D01*
X0027633Y0189282D02*
X0031683Y0189282D01*
X0031683Y0190280D02*
X0027633Y0190280D01*
X0027754Y0191279D02*
X0031613Y0191279D01*
X0031199Y0192277D02*
X0028168Y0192277D01*
X0028233Y0193276D02*
X0031133Y0193276D01*
X0031133Y0194274D02*
X0028233Y0194274D01*
X0028233Y0195273D02*
X0031133Y0195273D01*
X0031133Y0196271D02*
X0028233Y0196271D01*
X0028233Y0197270D02*
X0031133Y0197270D01*
X0031133Y0198268D02*
X0028722Y0198268D01*
X0029720Y0199267D02*
X0031133Y0199267D01*
X0031133Y0200265D02*
X0030719Y0200265D01*
X0039483Y0198506D02*
X0039533Y0198006D01*
X0050326Y0210250D02*
X0116427Y0210250D01*
X0125741Y0190280D02*
X0125836Y0190280D01*
X0125288Y0189282D02*
X0127168Y0189282D01*
X0124289Y0188283D02*
X0349183Y0188283D01*
X0349183Y0187284D02*
X0123291Y0187284D01*
X0121304Y0186286D02*
X0349183Y0186286D01*
X0349183Y0185287D02*
X0111833Y0185287D01*
X0111833Y0184289D02*
X0349183Y0184289D01*
X0349183Y0183290D02*
X0111833Y0183290D01*
X0111833Y0182292D02*
X0349183Y0182292D01*
X0349183Y0189282D02*
X0338233Y0189282D01*
X0337833Y0189282D02*
X0336833Y0189282D01*
X0336433Y0189282D02*
X0279133Y0189282D01*
X0278733Y0189282D02*
X0277733Y0189282D01*
X0277333Y0189282D02*
X0134298Y0189282D01*
X0135631Y0190280D02*
X0275001Y0190280D01*
X0277733Y0190280D02*
X0278733Y0190280D01*
X0278733Y0191279D02*
X0277733Y0191279D01*
X0277733Y0192277D02*
X0278733Y0192277D01*
X0278733Y0193276D02*
X0277733Y0193276D01*
X0277733Y0194274D02*
X0278733Y0194274D01*
X0278733Y0195273D02*
X0277733Y0195273D01*
X0277733Y0196271D02*
X0278733Y0196271D01*
X0283633Y0196271D02*
X0331933Y0196271D01*
X0331933Y0195273D02*
X0283633Y0195273D01*
X0283633Y0194274D02*
X0331933Y0194274D01*
X0332088Y0193276D02*
X0283479Y0193276D01*
X0283107Y0192277D02*
X0332460Y0192277D01*
X0333076Y0191279D02*
X0282490Y0191279D01*
X0281466Y0190280D02*
X0334101Y0190280D01*
X0336833Y0190280D02*
X0337833Y0190280D01*
X0337833Y0191279D02*
X0336833Y0191279D01*
X0336833Y0192277D02*
X0337833Y0192277D01*
X0337833Y0193276D02*
X0336833Y0193276D01*
X0336833Y0194274D02*
X0337833Y0194274D01*
X0337833Y0195273D02*
X0336833Y0195273D01*
X0336833Y0196271D02*
X0337833Y0196271D01*
X0342733Y0196271D02*
X0348533Y0196271D01*
X0348533Y0195273D02*
X0342733Y0195273D01*
X0342733Y0194274D02*
X0348533Y0194274D01*
X0348533Y0193276D02*
X0342579Y0193276D01*
X0342207Y0192277D02*
X0348806Y0192277D01*
X0349183Y0191279D02*
X0341590Y0191279D01*
X0340566Y0190280D02*
X0349183Y0190280D01*
X0348533Y0197270D02*
X0342733Y0197270D01*
X0342733Y0199006D02*
X0337833Y0199006D01*
X0337833Y0207794D01*
X0338598Y0207673D01*
X0339406Y0207411D01*
X0340164Y0207025D01*
X0340851Y0206525D01*
X0341452Y0205924D01*
X0341952Y0205237D01*
X0342338Y0204479D01*
X0342600Y0203671D01*
X0342733Y0202831D01*
X0342733Y0199006D01*
X0342733Y0199267D02*
X0348533Y0199267D01*
X0348533Y0200265D02*
X0342733Y0200265D01*
X0342733Y0201264D02*
X0348533Y0201264D01*
X0348533Y0202262D02*
X0342733Y0202262D01*
X0342665Y0203261D02*
X0348533Y0203261D01*
X0348609Y0204259D02*
X0342409Y0204259D01*
X0341936Y0205258D02*
X0349022Y0205258D01*
X0349436Y0206256D02*
X0341120Y0206256D01*
X0339712Y0207255D02*
X0349902Y0207255D01*
X0337833Y0207255D02*
X0336833Y0207255D01*
X0336833Y0207794D02*
X0336069Y0207673D01*
X0335260Y0207411D01*
X0334503Y0207025D01*
X0333815Y0206525D01*
X0333214Y0205924D01*
X0332715Y0205237D01*
X0332329Y0204479D01*
X0332066Y0203671D01*
X0331933Y0202831D01*
X0331933Y0199006D01*
X0336833Y0199006D01*
X0336833Y0207794D01*
X0336833Y0206256D02*
X0337833Y0206256D01*
X0337833Y0205258D02*
X0336833Y0205258D01*
X0336833Y0204259D02*
X0337833Y0204259D01*
X0337833Y0203261D02*
X0336833Y0203261D01*
X0336833Y0202262D02*
X0337833Y0202262D01*
X0337833Y0201264D02*
X0336833Y0201264D01*
X0336833Y0200265D02*
X0337833Y0200265D01*
X0337833Y0199267D02*
X0336833Y0199267D01*
X0331933Y0199267D02*
X0283633Y0199267D01*
X0283633Y0199006D02*
X0283633Y0202831D01*
X0283500Y0203671D01*
X0283238Y0204479D01*
X0282852Y0205237D01*
X0282352Y0205924D01*
X0281751Y0206525D01*
X0281064Y0207025D01*
X0280306Y0207411D01*
X0279498Y0207673D01*
X0278733Y0207794D01*
X0278733Y0199006D01*
X0283633Y0199006D01*
X0283633Y0200265D02*
X0331933Y0200265D01*
X0331933Y0201264D02*
X0283633Y0201264D01*
X0283633Y0202262D02*
X0331933Y0202262D01*
X0332001Y0203261D02*
X0283565Y0203261D01*
X0283309Y0204259D02*
X0332257Y0204259D01*
X0332730Y0205258D02*
X0282836Y0205258D01*
X0282020Y0206256D02*
X0333546Y0206256D01*
X0334954Y0207255D02*
X0280612Y0207255D01*
X0278733Y0207255D02*
X0277733Y0207255D01*
X0277733Y0206256D02*
X0278733Y0206256D01*
X0278733Y0205258D02*
X0277733Y0205258D01*
X0277733Y0204259D02*
X0278733Y0204259D01*
X0278733Y0203261D02*
X0277733Y0203261D01*
X0277733Y0202262D02*
X0278733Y0202262D01*
X0278733Y0201264D02*
X0277733Y0201264D01*
X0277733Y0200265D02*
X0278733Y0200265D01*
X0278733Y0199267D02*
X0277733Y0199267D01*
X0283633Y0197270D02*
X0331933Y0197270D01*
X0324985Y0229222D02*
X0361238Y0229222D01*
X0361351Y0230220D02*
X0324985Y0230220D01*
X0271136Y0160325D02*
X0270675Y0160325D01*
X0269406Y0159326D02*
X0272134Y0159326D01*
X0266033Y0119386D02*
X0265433Y0119386D01*
X0265433Y0118387D02*
X0266033Y0118387D01*
X0266033Y0117389D02*
X0265433Y0117389D01*
X0265433Y0116390D02*
X0266033Y0116390D01*
X0266033Y0115392D02*
X0265433Y0115392D01*
X0265433Y0114393D02*
X0266033Y0114393D01*
X0266033Y0112396D02*
X0265433Y0112396D01*
X0265433Y0111398D02*
X0266033Y0111398D01*
X0266033Y0110399D02*
X0265433Y0110399D01*
X0265433Y0109401D02*
X0266033Y0109401D01*
X0266033Y0108402D02*
X0265433Y0108402D01*
X0265433Y0107404D02*
X0266033Y0107404D01*
X0262964Y0107404D02*
X0192267Y0107404D01*
X0192680Y0108402D02*
X0262092Y0108402D01*
X0261636Y0109401D02*
X0193033Y0109401D01*
X0193033Y0110399D02*
X0261433Y0110399D01*
X0261433Y0111398D02*
X0193033Y0111398D01*
X0193033Y0112396D02*
X0261433Y0112396D01*
X0282040Y0095421D02*
X0327483Y0095421D01*
X0327483Y0094423D02*
X0283596Y0094423D01*
X0284595Y0093424D02*
X0327483Y0093424D01*
X0327483Y0092426D02*
X0285453Y0092426D01*
X0285867Y0091427D02*
X0327483Y0091427D01*
X0327483Y0090429D02*
X0286281Y0090429D01*
X0286633Y0089430D02*
X0327483Y0089430D01*
X0327483Y0088432D02*
X0286633Y0088432D01*
X0286633Y0087433D02*
X0327483Y0087433D01*
X0327483Y0086435D02*
X0286633Y0086435D01*
X0286633Y0085436D02*
X0327483Y0085436D01*
X0327483Y0084438D02*
X0286633Y0084438D01*
X0286633Y0083439D02*
X0327483Y0083439D01*
X0327483Y0082441D02*
X0286633Y0082441D01*
X0286633Y0081442D02*
X0327483Y0081442D01*
X0327483Y0080444D02*
X0286633Y0080444D01*
X0286633Y0079445D02*
X0327483Y0079445D01*
X0327761Y0078447D02*
X0286633Y0078447D01*
X0286224Y0077448D02*
X0328174Y0077448D01*
X0328588Y0076450D02*
X0285811Y0076450D01*
X0285397Y0075451D02*
X0329103Y0075451D01*
X0330102Y0074453D02*
X0284459Y0074453D01*
X0283461Y0073454D02*
X0331100Y0073454D01*
X0332802Y0072456D02*
X0281713Y0072456D01*
X0315333Y0059475D02*
X0316333Y0059475D01*
X0316333Y0060106D02*
X0316333Y0049106D01*
X0321833Y0049106D01*
X0321833Y0058804D01*
X0321731Y0059185D01*
X0321534Y0059527D01*
X0321254Y0059807D01*
X0320912Y0060004D01*
X0320531Y0060106D01*
X0316333Y0060106D01*
X0316333Y0058477D02*
X0315333Y0058477D01*
X0315333Y0057478D02*
X0316333Y0057478D01*
X0316333Y0056480D02*
X0315333Y0056480D01*
X0315333Y0055481D02*
X0316333Y0055481D01*
X0316333Y0054482D02*
X0315333Y0054482D01*
X0315333Y0053484D02*
X0316333Y0053484D01*
X0316333Y0052485D02*
X0315333Y0052485D01*
X0315333Y0051487D02*
X0316333Y0051487D01*
X0316333Y0050488D02*
X0315333Y0050488D01*
X0315333Y0049490D02*
X0316333Y0049490D01*
X0316333Y0046494D02*
X0315333Y0046494D01*
X0315333Y0045496D02*
X0316333Y0045496D01*
X0316333Y0044497D02*
X0315333Y0044497D01*
X0315333Y0043499D02*
X0316333Y0043499D01*
X0321833Y0043499D02*
X0344633Y0043499D01*
X0344633Y0044497D02*
X0321833Y0044497D01*
X0321833Y0045496D02*
X0344633Y0045496D01*
X0344633Y0046494D02*
X0321833Y0046494D01*
X0321833Y0047493D02*
X0344633Y0047493D01*
X0344633Y0049106D02*
X0350133Y0049106D01*
X0350133Y0048106D01*
X0351133Y0048106D01*
X0351133Y0049106D01*
X0350133Y0049106D01*
X0350133Y0060106D01*
X0345936Y0060106D01*
X0345554Y0060004D01*
X0345212Y0059807D01*
X0344933Y0059527D01*
X0344736Y0059185D01*
X0344633Y0058804D01*
X0344633Y0049106D01*
X0344633Y0049490D02*
X0321833Y0049490D01*
X0321833Y0050488D02*
X0344633Y0050488D01*
X0344633Y0051487D02*
X0321833Y0051487D01*
X0321833Y0052485D02*
X0344633Y0052485D01*
X0344633Y0053484D02*
X0321833Y0053484D01*
X0321833Y0054482D02*
X0344633Y0054482D01*
X0344633Y0055481D02*
X0321833Y0055481D01*
X0321833Y0056480D02*
X0344633Y0056480D01*
X0344633Y0057478D02*
X0321833Y0057478D01*
X0321833Y0058477D02*
X0344633Y0058477D01*
X0344903Y0059475D02*
X0321564Y0059475D01*
X0350133Y0059475D02*
X0351133Y0059475D01*
X0351133Y0060106D02*
X0351133Y0049106D01*
X0356633Y0049106D01*
X0356633Y0058804D01*
X0356531Y0059185D01*
X0356334Y0059527D01*
X0356054Y0059807D01*
X0355712Y0060004D01*
X0355331Y0060106D01*
X0351133Y0060106D01*
X0351133Y0058477D02*
X0350133Y0058477D01*
X0350133Y0057478D02*
X0351133Y0057478D01*
X0351133Y0056480D02*
X0350133Y0056480D01*
X0350133Y0055481D02*
X0351133Y0055481D01*
X0351133Y0054482D02*
X0350133Y0054482D01*
X0350133Y0053484D02*
X0351133Y0053484D01*
X0351133Y0052485D02*
X0350133Y0052485D01*
X0350133Y0051487D02*
X0351133Y0051487D01*
X0351133Y0050488D02*
X0350133Y0050488D01*
X0350133Y0049490D02*
X0351133Y0049490D01*
X0351133Y0048491D02*
X0363878Y0048491D01*
X0363156Y0049490D02*
X0356633Y0049490D01*
X0356633Y0050488D02*
X0362572Y0050488D01*
X0362101Y0051487D02*
X0356633Y0051487D01*
X0356633Y0052485D02*
X0361752Y0052485D01*
X0361500Y0053484D02*
X0356633Y0053484D01*
X0356633Y0054482D02*
X0361329Y0054482D01*
X0361233Y0055481D02*
X0356633Y0055481D01*
X0356633Y0056480D02*
X0372733Y0056480D01*
X0372733Y0057478D02*
X0373733Y0057478D01*
X0373733Y0056506D02*
X0373733Y0068006D01*
X0373907Y0068006D01*
X0375247Y0067855D01*
X0376561Y0067555D01*
X0377833Y0067110D01*
X0379047Y0066526D01*
X0380188Y0065808D01*
X0381242Y0064968D01*
X0382195Y0064015D01*
X0383035Y0062961D01*
X0383753Y0061820D01*
X0384337Y0060606D01*
X0384782Y0059334D01*
X0385082Y0058020D01*
X0385233Y0056680D01*
X0385233Y0056506D01*
X0373733Y0056506D01*
X0373733Y0056480D02*
X0386155Y0056480D01*
X0386155Y0057478D02*
X0385143Y0057478D01*
X0384978Y0058477D02*
X0386155Y0058477D01*
X0386155Y0059475D02*
X0384733Y0059475D01*
X0384384Y0060474D02*
X0386155Y0060474D01*
X0386155Y0061472D02*
X0383920Y0061472D01*
X0383344Y0062471D02*
X0386155Y0062471D01*
X0386155Y0063469D02*
X0382631Y0063469D01*
X0381743Y0064468D02*
X0386155Y0064468D01*
X0386155Y0065466D02*
X0380618Y0065466D01*
X0379144Y0066465D02*
X0386155Y0066465D01*
X0386155Y0067463D02*
X0376824Y0067463D01*
X0373733Y0067463D02*
X0372733Y0067463D01*
X0372733Y0066465D02*
X0373733Y0066465D01*
X0373733Y0065466D02*
X0372733Y0065466D01*
X0372733Y0064468D02*
X0373733Y0064468D01*
X0373733Y0063469D02*
X0372733Y0063469D01*
X0372733Y0062471D02*
X0373733Y0062471D01*
X0373733Y0061472D02*
X0372733Y0061472D01*
X0372733Y0060474D02*
X0373733Y0060474D01*
X0373733Y0059475D02*
X0372733Y0059475D01*
X0372733Y0058477D02*
X0373733Y0058477D01*
X0373733Y0055481D02*
X0372733Y0055481D01*
X0372733Y0054482D02*
X0373733Y0054482D01*
X0373733Y0053484D02*
X0372733Y0053484D01*
X0372733Y0052485D02*
X0373733Y0052485D01*
X0373733Y0051487D02*
X0372733Y0051487D01*
X0372733Y0050488D02*
X0373733Y0050488D01*
X0373733Y0049490D02*
X0372733Y0049490D01*
X0372733Y0048491D02*
X0373733Y0048491D01*
X0373733Y0047493D02*
X0372733Y0047493D01*
X0372733Y0046494D02*
X0373733Y0046494D01*
X0373733Y0045496D02*
X0372733Y0045496D01*
X0372733Y0044497D02*
X0373733Y0044497D01*
X0376676Y0044497D02*
X0386155Y0044497D01*
X0386155Y0043499D02*
X0356633Y0043499D01*
X0356633Y0044497D02*
X0369791Y0044497D01*
X0367406Y0045496D02*
X0356633Y0045496D01*
X0356633Y0046494D02*
X0365914Y0046494D01*
X0364776Y0047493D02*
X0356633Y0047493D01*
X0351133Y0047493D02*
X0350133Y0047493D01*
X0350133Y0046494D02*
X0351133Y0046494D01*
X0351133Y0045496D02*
X0350133Y0045496D01*
X0350133Y0044497D02*
X0351133Y0044497D01*
X0351133Y0043499D02*
X0350133Y0043499D01*
X0356633Y0057478D02*
X0361323Y0057478D01*
X0361489Y0058477D02*
X0356633Y0058477D01*
X0356364Y0059475D02*
X0361734Y0059475D01*
X0379061Y0045496D02*
X0386155Y0045496D01*
X0386155Y0046494D02*
X0380552Y0046494D01*
X0381690Y0047493D02*
X0386155Y0047493D01*
X0386155Y0048491D02*
X0382589Y0048491D01*
X0383311Y0049490D02*
X0386155Y0049490D01*
X0386155Y0050488D02*
X0383895Y0050488D01*
X0384365Y0051487D02*
X0386155Y0051487D01*
X0386155Y0052485D02*
X0384715Y0052485D01*
X0384966Y0053484D02*
X0386155Y0053484D01*
X0386155Y0054482D02*
X0385138Y0054482D01*
X0385233Y0055481D02*
X0386155Y0055481D01*
X0386155Y0072456D02*
X0380113Y0072456D01*
X0381861Y0073454D02*
X0386155Y0073454D01*
X0386155Y0074453D02*
X0382859Y0074453D01*
X0383797Y0075451D02*
X0386155Y0075451D01*
X0386155Y0076450D02*
X0384211Y0076450D01*
X0384624Y0077448D02*
X0386155Y0077448D01*
X0386155Y0078447D02*
X0385033Y0078447D01*
X0385033Y0079445D02*
X0386155Y0079445D01*
X0386155Y0080444D02*
X0385033Y0080444D01*
X0385033Y0081442D02*
X0386155Y0081442D01*
X0386155Y0082441D02*
X0385033Y0082441D01*
X0385033Y0083439D02*
X0386155Y0083439D01*
X0386155Y0084438D02*
X0385033Y0084438D01*
X0385033Y0085436D02*
X0386155Y0085436D01*
X0386155Y0086435D02*
X0385033Y0086435D01*
X0385033Y0087433D02*
X0386155Y0087433D01*
X0386155Y0088432D02*
X0385033Y0088432D01*
X0385033Y0089430D02*
X0386155Y0089430D01*
X0386155Y0090429D02*
X0384681Y0090429D01*
X0384433Y0091427D02*
X0386155Y0091427D01*
X0386155Y0092426D02*
X0384433Y0092426D01*
X0384433Y0093424D02*
X0386155Y0093424D01*
X0386155Y0094423D02*
X0384433Y0094423D01*
X0384433Y0095421D02*
X0386155Y0095421D01*
X0386155Y0096420D02*
X0384433Y0096420D01*
X0384433Y0097418D02*
X0386155Y0097418D01*
X0386155Y0098417D02*
X0384433Y0098417D01*
X0384433Y0099415D02*
X0386155Y0099415D01*
X0386155Y0100414D02*
X0384433Y0100414D01*
X0384433Y0101413D02*
X0386155Y0101413D01*
X0386155Y0102411D02*
X0384433Y0102411D01*
X0384433Y0103410D02*
X0386155Y0103410D01*
X0386155Y0104408D02*
X0384433Y0104408D01*
X0384433Y0105407D02*
X0386155Y0105407D01*
X0386155Y0106405D02*
X0384433Y0106405D01*
X0384813Y0107404D02*
X0386155Y0107404D01*
X0386155Y0108402D02*
X0385033Y0108402D01*
X0385033Y0109401D02*
X0386155Y0109401D01*
X0386155Y0110399D02*
X0385033Y0110399D01*
X0385033Y0111398D02*
X0386155Y0111398D01*
X0386155Y0112396D02*
X0385033Y0112396D01*
X0385033Y0113395D02*
X0386155Y0113395D01*
X0386155Y0114393D02*
X0385033Y0114393D01*
X0385033Y0115392D02*
X0386155Y0115392D01*
X0386155Y0116390D02*
X0385033Y0116390D01*
X0385033Y0117389D02*
X0386155Y0117389D01*
X0386155Y0118387D02*
X0385033Y0118387D01*
X0384906Y0119386D02*
X0386155Y0119386D01*
X0386155Y0120384D02*
X0384492Y0120384D01*
X0384433Y0121383D02*
X0386155Y0121383D01*
X0386155Y0122381D02*
X0384433Y0122381D01*
X0384433Y0123380D02*
X0386155Y0123380D01*
X0386155Y0124378D02*
X0384433Y0124378D01*
X0384433Y0125377D02*
X0386155Y0125377D01*
X0386155Y0126375D02*
X0384433Y0126375D01*
X0384137Y0127374D02*
X0386155Y0127374D01*
X0386155Y0128372D02*
X0383723Y0128372D01*
X0383310Y0129371D02*
X0386155Y0129371D01*
X0386155Y0130369D02*
X0382401Y0130369D01*
X0381403Y0131368D02*
X0386155Y0131368D01*
X0386155Y0132366D02*
X0380404Y0132366D01*
X0379406Y0133365D02*
X0386155Y0133365D01*
X0386155Y0134363D02*
X0378407Y0134363D01*
X0172067Y0077448D02*
X0133556Y0077448D01*
X0134407Y0078447D02*
X0170893Y0078447D01*
X0167085Y0079445D02*
X0134845Y0079445D01*
X0135033Y0080444D02*
X0164675Y0080444D01*
X0163533Y0081442D02*
X0135033Y0081442D01*
X0135033Y0082441D02*
X0152093Y0082441D01*
X0153683Y0082441D02*
X0154683Y0082441D01*
X0154683Y0083439D02*
X0153683Y0083439D01*
X0153683Y0084438D02*
X0154683Y0084438D01*
X0154683Y0085436D02*
X0153683Y0085436D01*
X0153683Y0086435D02*
X0154683Y0086435D01*
X0154683Y0087433D02*
X0153683Y0087433D01*
X0153683Y0088432D02*
X0154683Y0088432D01*
X0154683Y0089430D02*
X0153683Y0089430D01*
X0153683Y0090429D02*
X0154683Y0090429D01*
X0154683Y0091427D02*
X0153683Y0091427D01*
X0153683Y0092426D02*
X0154683Y0092426D01*
X0147733Y0092426D02*
X0120259Y0092426D01*
X0121849Y0091427D02*
X0147733Y0091427D01*
X0156274Y0082441D02*
X0162535Y0082441D01*
X0161674Y0083439D02*
X0158110Y0083439D01*
X0159153Y0084438D02*
X0161261Y0084438D01*
X0160847Y0085436D02*
X0159830Y0085436D01*
X0160286Y0086435D02*
X0160433Y0086435D01*
X0160336Y0100414D02*
X0160366Y0100414D01*
X0160779Y0101413D02*
X0159924Y0101413D01*
X0159279Y0102411D02*
X0161193Y0102411D01*
X0161606Y0103410D02*
X0158323Y0103410D01*
X0156669Y0104408D02*
X0162371Y0104408D01*
X0131033Y0089430D02*
X0130433Y0089430D01*
X0130433Y0088432D02*
X0131033Y0088432D01*
X0131033Y0087433D02*
X0130433Y0087433D01*
X0130433Y0086435D02*
X0131033Y0086435D01*
X0131033Y0085436D02*
X0130433Y0085436D01*
X0130433Y0084438D02*
X0131033Y0084438D01*
X0131033Y0082441D02*
X0130433Y0082441D01*
X0130433Y0081442D02*
X0131033Y0081442D01*
X0131033Y0080444D02*
X0130433Y0080444D01*
X0130433Y0079445D02*
X0131033Y0079445D01*
X0131033Y0078447D02*
X0130433Y0078447D01*
X0130433Y0077448D02*
X0131033Y0077448D01*
X0125486Y0121383D02*
X0125471Y0121383D01*
X0124638Y0122381D02*
X0126485Y0122381D01*
X0128734Y0123380D02*
X0123639Y0123380D01*
X0115163Y0186286D02*
X0111833Y0186286D01*
X0111833Y0187284D02*
X0113176Y0187284D01*
X0112177Y0188283D02*
X0111833Y0188283D01*
D17*
X0043233Y0041006D03*
X0038233Y0044756D03*
X0043233Y0046006D03*
X0043233Y0051006D03*
X0038233Y0051006D03*
X0043233Y0056006D03*
X0048233Y0056006D03*
X0048233Y0051006D03*
X0048233Y0046006D03*
X0048233Y0041006D03*
X0078233Y0041006D03*
X0083233Y0041006D03*
X0083233Y0046006D03*
X0078233Y0046006D03*
X0078233Y0051006D03*
X0083233Y0051006D03*
X0086983Y0051006D03*
X0089483Y0047256D03*
X0088233Y0042256D03*
X0095733Y0047256D03*
X0103233Y0047256D03*
X0110733Y0047256D03*
X0118233Y0047256D03*
X0125733Y0047256D03*
X0133233Y0047256D03*
X0140733Y0047256D03*
X0148233Y0047256D03*
X0155733Y0047256D03*
X0163233Y0047256D03*
X0170733Y0047256D03*
X0178233Y0047256D03*
X0185733Y0047256D03*
X0193233Y0047256D03*
X0200733Y0047256D03*
X0208233Y0047256D03*
X0215733Y0047256D03*
X0223233Y0047256D03*
X0230733Y0047256D03*
X0238233Y0047256D03*
X0245733Y0047256D03*
X0253233Y0047256D03*
X0260733Y0047256D03*
X0268233Y0047256D03*
X0275733Y0047256D03*
X0283233Y0047256D03*
X0290733Y0047256D03*
X0298233Y0047256D03*
X0304483Y0047256D03*
X0308233Y0043506D03*
X0313233Y0041006D03*
X0318233Y0041006D03*
X0318233Y0046006D03*
X0313233Y0046006D03*
X0313233Y0051006D03*
X0318233Y0051006D03*
X0318233Y0056006D03*
X0313233Y0056006D03*
X0308233Y0056006D03*
X0308233Y0051006D03*
X0283233Y0069756D03*
X0289483Y0072256D03*
X0295733Y0077256D03*
X0300733Y0082256D03*
X0305733Y0087256D03*
X0310733Y0092256D03*
X0318233Y0094756D03*
X0324483Y0096006D03*
X0324483Y0102256D03*
X0324483Y0109756D03*
X0324483Y0117256D03*
X0324483Y0124756D03*
X0324483Y0132256D03*
X0326983Y0138506D03*
X0333233Y0142256D03*
X0341983Y0142256D03*
X0348233Y0137256D03*
X0355733Y0129756D03*
X0349483Y0128506D03*
X0359483Y0134756D03*
X0359483Y0142256D03*
X0359483Y0149756D03*
X0361983Y0156006D03*
X0366983Y0161006D03*
X0350733Y0156006D03*
X0345733Y0161006D03*
X0345733Y0173506D03*
X0326983Y0173506D03*
X0320733Y0173506D03*
X0314483Y0173506D03*
X0308233Y0173506D03*
X0301983Y0173506D03*
X0301983Y0167256D03*
X0301983Y0161006D03*
X0301983Y0154756D03*
X0301983Y0148506D03*
X0306983Y0143506D03*
X0306983Y0138506D03*
X0301983Y0132256D03*
X0301983Y0124756D03*
X0301983Y0117256D03*
X0301983Y0109756D03*
X0301983Y0102256D03*
X0301983Y0096006D03*
X0334483Y0094756D03*
X0339483Y0098506D03*
X0334483Y0102256D03*
X0354483Y0102256D03*
X0359483Y0098506D03*
X0354483Y0094756D03*
X0383233Y0133506D03*
X0379483Y0137256D03*
X0383233Y0139756D03*
X0379483Y0143506D03*
X0383233Y0148506D03*
X0366983Y0178506D03*
X0366983Y0184756D03*
X0366983Y0191006D03*
X0345733Y0193506D03*
X0345733Y0206006D03*
X0341983Y0213506D03*
X0341983Y0223506D03*
X0350733Y0227256D03*
X0358233Y0226006D03*
X0373233Y0212256D03*
X0383233Y0212256D03*
X0360733Y0239756D03*
X0353233Y0239756D03*
X0345733Y0239756D03*
X0336983Y0239756D03*
X0328233Y0239756D03*
X0319483Y0239756D03*
X0310733Y0239756D03*
X0301983Y0239756D03*
X0293233Y0239756D03*
X0285733Y0239756D03*
X0278233Y0239756D03*
X0269483Y0239756D03*
X0261983Y0239756D03*
X0254483Y0239756D03*
X0245733Y0239756D03*
X0234483Y0239756D03*
X0221983Y0239756D03*
X0210733Y0239756D03*
X0200733Y0239756D03*
X0193233Y0239756D03*
X0185733Y0239756D03*
X0178233Y0239756D03*
X0170733Y0239756D03*
X0163233Y0239756D03*
X0155733Y0239756D03*
X0148233Y0239756D03*
X0140733Y0239756D03*
X0133233Y0239756D03*
X0125733Y0239756D03*
X0118233Y0239756D03*
X0110733Y0239756D03*
X0103233Y0239756D03*
X0095733Y0239756D03*
X0088233Y0239756D03*
X0080733Y0239756D03*
X0073233Y0239756D03*
X0065733Y0239756D03*
X0058233Y0239756D03*
X0050733Y0239756D03*
X0043233Y0239756D03*
X0035733Y0239756D03*
X0040733Y0227256D03*
X0051983Y0227256D03*
X0056983Y0218506D03*
X0056983Y0211006D03*
X0050733Y0207256D03*
X0050733Y0194756D03*
X0069483Y0194756D03*
X0075733Y0194756D03*
X0081983Y0194756D03*
X0088233Y0194756D03*
X0088233Y0201006D03*
X0088233Y0207256D03*
X0088233Y0213506D03*
X0088233Y0219756D03*
X0095733Y0219756D03*
X0103233Y0219756D03*
X0110733Y0219756D03*
X0118233Y0219756D03*
X0125733Y0219756D03*
X0133233Y0219756D03*
X0140733Y0219756D03*
X0148233Y0219756D03*
X0155733Y0219756D03*
X0163233Y0219756D03*
X0170733Y0219756D03*
X0178233Y0219756D03*
X0185733Y0219756D03*
X0193233Y0219756D03*
X0200733Y0219756D03*
X0210733Y0219756D03*
X0210733Y0212256D03*
X0210733Y0206006D03*
X0210733Y0199756D03*
X0221983Y0199756D03*
X0221983Y0206006D03*
X0228233Y0206006D03*
X0228233Y0199756D03*
X0234483Y0199756D03*
X0234483Y0206006D03*
X0245733Y0206006D03*
X0245733Y0199756D03*
X0245733Y0193506D03*
X0240733Y0193506D03*
X0234483Y0193506D03*
X0228233Y0193506D03*
X0228233Y0188506D03*
X0221983Y0193506D03*
X0215733Y0193506D03*
X0210733Y0193506D03*
X0228233Y0177256D03*
X0231983Y0172256D03*
X0234483Y0166006D03*
X0234483Y0158506D03*
X0234483Y0151006D03*
X0234483Y0143506D03*
X0234483Y0136006D03*
X0234483Y0128506D03*
X0234483Y0121006D03*
X0233233Y0116006D03*
X0226983Y0116006D03*
X0226983Y0111006D03*
X0233233Y0111006D03*
X0233233Y0104756D03*
X0226983Y0104756D03*
X0220733Y0104756D03*
X0214483Y0104756D03*
X0214483Y0111006D03*
X0220733Y0111006D03*
X0220733Y0116006D03*
X0214483Y0116006D03*
X0239483Y0116006D03*
X0245733Y0116006D03*
X0245733Y0111006D03*
X0245733Y0104756D03*
X0233233Y0098506D03*
X0226983Y0098506D03*
X0226983Y0093506D03*
X0233233Y0093506D03*
X0220733Y0093506D03*
X0214483Y0093506D03*
X0214483Y0098506D03*
X0220733Y0098506D03*
X0223233Y0069756D03*
X0215733Y0069756D03*
X0208233Y0069756D03*
X0200733Y0069756D03*
X0193233Y0069756D03*
X0185733Y0069756D03*
X0178233Y0069756D03*
X0170733Y0069756D03*
X0163233Y0069756D03*
X0155733Y0069756D03*
X0148233Y0069756D03*
X0140733Y0069756D03*
X0133233Y0069756D03*
X0125733Y0069756D03*
X0118233Y0069756D03*
X0110733Y0069756D03*
X0105733Y0072256D03*
X0100733Y0077256D03*
X0095733Y0082256D03*
X0090733Y0087256D03*
X0085733Y0092256D03*
X0079483Y0093506D03*
X0070733Y0093506D03*
X0061983Y0098506D03*
X0056983Y0094756D03*
X0056983Y0102256D03*
X0070733Y0101006D03*
X0070733Y0108506D03*
X0070733Y0116006D03*
X0070733Y0123506D03*
X0070733Y0131006D03*
X0069483Y0138506D03*
X0064483Y0142256D03*
X0058233Y0142256D03*
X0050733Y0139756D03*
X0048233Y0133506D03*
X0046983Y0128506D03*
X0040733Y0128506D03*
X0038233Y0134756D03*
X0038233Y0142256D03*
X0038233Y0151006D03*
X0029483Y0161006D03*
X0050733Y0159756D03*
X0050733Y0172256D03*
X0069483Y0173506D03*
X0075733Y0173506D03*
X0081983Y0173506D03*
X0088233Y0173506D03*
X0088233Y0167256D03*
X0088233Y0161006D03*
X0088233Y0153506D03*
X0086983Y0147256D03*
X0086983Y0142256D03*
X0086983Y0137256D03*
X0088233Y0131006D03*
X0088233Y0123506D03*
X0088233Y0116006D03*
X0088233Y0108506D03*
X0088233Y0101006D03*
X0041983Y0098506D03*
X0036983Y0094756D03*
X0036983Y0102256D03*
X0011983Y0133506D03*
X0016983Y0137256D03*
X0011983Y0141006D03*
X0016983Y0144756D03*
X0011983Y0148506D03*
X0029483Y0177256D03*
X0029483Y0183506D03*
X0029483Y0189756D03*
X0029483Y0196006D03*
X0021983Y0212256D03*
X0011983Y0212256D03*
X0136983Y0146006D03*
X0136983Y0139756D03*
X0143233Y0146006D03*
X0149483Y0146006D03*
X0149483Y0152256D03*
X0155733Y0152256D03*
X0161983Y0152256D03*
X0161983Y0146006D03*
X0168233Y0146006D03*
X0173233Y0142256D03*
X0175733Y0147256D03*
X0179483Y0142256D03*
X0185733Y0142256D03*
X0186983Y0147256D03*
X0188233Y0152256D03*
X0193233Y0152256D03*
X0198233Y0152256D03*
X0203233Y0152256D03*
X0204483Y0147256D03*
X0198233Y0142256D03*
X0193233Y0136006D03*
X0193233Y0131006D03*
X0210733Y0142256D03*
X0213233Y0146006D03*
X0168233Y0133506D03*
X0161983Y0133506D03*
X0155733Y0133506D03*
X0149483Y0133506D03*
X0143233Y0133506D03*
X0136983Y0133506D03*
X0230733Y0069756D03*
X0238233Y0069756D03*
X0245733Y0069756D03*
X0253233Y0069756D03*
X0260733Y0069756D03*
X0268233Y0069756D03*
X0275733Y0069756D03*
X0348233Y0056006D03*
X0348233Y0051006D03*
X0348233Y0046006D03*
X0348233Y0041006D03*
X0353233Y0041006D03*
X0359483Y0044756D03*
X0353233Y0046006D03*
X0353233Y0051006D03*
X0358233Y0049756D03*
X0353233Y0056006D03*
X0275733Y0127256D03*
X0280733Y0129756D03*
X0275733Y0133506D03*
X0280733Y0136006D03*
X0275733Y0139756D03*
X0280733Y0142256D03*
X0275733Y0146006D03*
X0280733Y0148506D03*
X0268233Y0149756D03*
X0268233Y0127256D03*
X0301983Y0193506D03*
X0308233Y0193506D03*
X0314483Y0193506D03*
X0320733Y0193506D03*
X0326983Y0193506D03*
X0301983Y0199756D03*
X0301983Y0206006D03*
X0301983Y0212256D03*
X0301983Y0219756D03*
X0293233Y0219756D03*
X0285733Y0219756D03*
X0278233Y0219756D03*
X0269483Y0219756D03*
X0261983Y0219756D03*
X0254483Y0219756D03*
X0245733Y0219756D03*
X0245733Y0212256D03*
X0086983Y0056006D03*
X0083233Y0056006D03*
X0078233Y0056006D03*
D18*
X0059483Y0083156D02*
X0059133Y0083506D01*
X0118233Y0113006D02*
X0130233Y0113006D01*
X0130733Y0113506D01*
X0169783Y0093506D02*
X0169783Y0089456D01*
X0175733Y0083506D01*
X0185733Y0083506D01*
X0265733Y0083506D02*
X0266233Y0084006D01*
X0278233Y0084006D01*
X0275733Y0168506D02*
X0265733Y0168506D01*
X0275733Y0168506D02*
X0278233Y0171006D01*
X0278233Y0169006D01*
X0130733Y0198506D02*
X0130233Y0198006D01*
X0118233Y0198006D01*
D19*
X0059483Y0131006D02*
X0059483Y0083156D01*
X0059483Y0081006D01*
X0039483Y0079756D02*
X0039483Y0113056D01*
X0039533Y0113006D01*
X0039483Y0113056D02*
X0039483Y0117256D01*
X0336983Y0131006D02*
X0336983Y0081006D01*
X0356983Y0079756D02*
X0356983Y0117256D01*
X0338233Y0131006D02*
X0336983Y0131006D01*
D20*
X0369483Y0132256D02*
X0369483Y0145288D01*
X0368981Y0145790D01*
X0369483Y0146292D01*
X0369483Y0148506D01*
X0376633Y0155656D01*
X0376633Y0169006D01*
X0376633Y0198506D01*
X0356983Y0198506D02*
X0356983Y0168506D01*
X0369483Y0132256D02*
X0376633Y0125106D01*
X0376633Y0113506D01*
X0376633Y0084006D01*
X0039483Y0167256D02*
X0039483Y0198506D01*
X0019833Y0198006D02*
X0019833Y0168506D01*
X0019833Y0156906D01*
X0027485Y0149254D01*
X0027485Y0145790D01*
X0028233Y0145042D01*
X0028233Y0133506D01*
X0019833Y0125106D01*
X0019833Y0113006D01*
X0019833Y0083506D01*
D21*
X0105733Y0168506D02*
X0105733Y0194756D01*
X0109483Y0198506D01*
X0118233Y0198506D01*
X0118733Y0198006D01*
X0130233Y0198006D01*
X0044985Y0216223D02*
X0038050Y0216223D01*
X0019833Y0198006D01*
X0351481Y0216223D02*
X0358917Y0216223D01*
X0376633Y0198506D01*
D22*
X0356983Y0117256D02*
X0356983Y0113556D01*
X0356933Y0113506D01*
X0337333Y0084006D02*
X0336983Y0083656D01*
X0336983Y0081006D01*
D23*
X0105733Y0168506D03*
M02*
