G75*
%MOIN*%
%OFA0B0*%
%FSLAX25Y25*%
%IPPOS*%
%LPD*%
%AMOC8*
5,1,8,0,0,1.08239X$1,22.5*
%
%ADD10R,0.07087X0.06299*%
%ADD11R,0.06299X0.07087*%
%ADD12R,0.09843X0.07677*%
%ADD13C,0.05600*%
%ADD14C,0.21000*%
%ADD15R,0.24409X0.21260*%
%ADD16R,0.06299X0.03937*%
%ADD17C,0.09900*%
%ADD18C,0.07800*%
%ADD19OC8,0.07000*%
%ADD20R,0.06299X0.07874*%
%ADD21R,0.07874X0.06299*%
%ADD22R,0.03150X0.05512*%
%ADD23R,0.03150X0.07480*%
%ADD24C,0.06000*%
%ADD25R,0.09000X0.20000*%
%ADD26C,0.03200*%
%ADD27C,0.01600*%
%ADD28C,0.01000*%
%ADD29C,0.05000*%
%ADD30OC8,0.04362*%
%ADD31C,0.06600*%
%ADD32C,0.10000*%
%ADD33OC8,0.05000*%
D10*
X0175733Y0124244D03*
X0185733Y0124244D03*
X0185733Y0135268D03*
X0175733Y0135268D03*
X0170733Y0152994D03*
X0180733Y0152994D03*
X0180733Y0164018D03*
X0170733Y0164018D03*
X0140733Y0164018D03*
X0140733Y0172994D03*
X0140733Y0184018D03*
X0140733Y0152994D03*
X0210733Y0152994D03*
X0210733Y0164018D03*
X0210733Y0172994D03*
X0210733Y0184018D03*
D11*
X0181245Y0173506D03*
X0170222Y0173506D03*
X0200222Y0133506D03*
X0211245Y0133506D03*
X0257722Y0133506D03*
X0268745Y0133506D03*
X0268745Y0143506D03*
X0257722Y0143506D03*
X0288972Y0141006D03*
X0299995Y0141006D03*
X0256245Y0183506D03*
X0245222Y0183506D03*
X0104995Y0142256D03*
X0093972Y0142256D03*
D12*
X0244483Y0097010D03*
X0244483Y0085002D03*
D13*
X0265733Y0086306D02*
X0265733Y0080706D01*
X0265733Y0110706D02*
X0265733Y0116306D01*
X0265733Y0165706D02*
X0265733Y0171306D01*
X0265733Y0195706D02*
X0265733Y0201306D01*
X0185733Y0116306D02*
X0185733Y0110706D01*
X0185733Y0086306D02*
X0185733Y0080706D01*
X0130733Y0080706D02*
X0130733Y0086306D01*
X0130733Y0110706D02*
X0130733Y0116306D01*
X0130733Y0165706D02*
X0130733Y0171306D01*
X0130733Y0195706D02*
X0130733Y0201306D01*
D14*
X0023233Y0228506D03*
X0023233Y0056006D03*
X0373233Y0056006D03*
X0373233Y0228506D03*
D15*
X0224326Y0104756D03*
D16*
X0195586Y0095780D03*
X0195586Y0113733D03*
D17*
X0169783Y0098456D02*
X0169783Y0088556D01*
X0154183Y0088556D02*
X0154183Y0098456D01*
D18*
X0118233Y0109106D02*
X0118233Y0116906D01*
X0118233Y0087406D02*
X0118233Y0079606D01*
X0059133Y0079606D02*
X0059133Y0087406D01*
X0039533Y0087406D02*
X0039533Y0079606D01*
X0019833Y0079606D02*
X0019833Y0087406D01*
X0019833Y0109106D02*
X0019833Y0116906D01*
X0039533Y0116906D02*
X0039533Y0109106D01*
X0059133Y0109106D02*
X0059133Y0116906D01*
X0059133Y0164606D02*
X0059133Y0172406D01*
X0039533Y0172406D02*
X0039533Y0164606D01*
X0019833Y0164606D02*
X0019833Y0172406D01*
X0019833Y0194106D02*
X0019833Y0201906D01*
X0039533Y0201906D02*
X0039533Y0194106D01*
X0059133Y0194106D02*
X0059133Y0201906D01*
X0118233Y0201906D02*
X0118233Y0194106D01*
X0118233Y0172406D02*
X0118233Y0164606D01*
X0278233Y0165106D02*
X0278233Y0172906D01*
X0278233Y0194606D02*
X0278233Y0202406D01*
X0337333Y0202406D02*
X0337333Y0194606D01*
X0356933Y0194606D02*
X0356933Y0202406D01*
X0376633Y0202406D02*
X0376633Y0194606D01*
X0376633Y0172906D02*
X0376633Y0165106D01*
X0356933Y0165106D02*
X0356933Y0172906D01*
X0337333Y0172906D02*
X0337333Y0165106D01*
X0337333Y0117406D02*
X0337333Y0109606D01*
X0356933Y0109606D02*
X0356933Y0117406D01*
X0376633Y0117406D02*
X0376633Y0109606D01*
X0376633Y0087906D02*
X0376633Y0080106D01*
X0356933Y0080106D02*
X0356933Y0087906D01*
X0337333Y0087906D02*
X0337333Y0080106D01*
X0278233Y0080106D02*
X0278233Y0087906D01*
X0278233Y0109606D02*
X0278233Y0117406D01*
D19*
X0337485Y0131223D03*
X0368981Y0145790D03*
X0351481Y0216223D03*
X0319985Y0230790D03*
X0076481Y0230790D03*
X0044985Y0216223D03*
X0027485Y0145790D03*
X0058981Y0131223D03*
D20*
X0150222Y0173506D03*
X0161245Y0173506D03*
X0190222Y0173506D03*
X0201245Y0173506D03*
D21*
X0223233Y0164018D03*
X0223233Y0152994D03*
X0223233Y0144018D03*
X0223233Y0132994D03*
X0245733Y0132994D03*
X0245733Y0144018D03*
X0245733Y0152994D03*
X0245733Y0164018D03*
D22*
X0234135Y0183207D03*
X0222332Y0183207D03*
D23*
X0228233Y0184207D03*
D24*
X0229233Y0190522D02*
X0227233Y0190522D01*
X0227233Y0198892D01*
X0229233Y0198892D01*
X0229233Y0190522D01*
X0229233Y0196521D02*
X0227233Y0196521D01*
D25*
X0315833Y0048606D03*
X0333233Y0048606D03*
X0350633Y0048606D03*
X0080633Y0048606D03*
X0063233Y0048606D03*
X0045833Y0048606D03*
D26*
X0110733Y0113506D02*
X0117733Y0113506D01*
X0118233Y0113006D01*
X0110733Y0113506D02*
X0105733Y0118506D01*
X0105733Y0142256D01*
X0105733Y0168506D01*
X0136472Y0124244D02*
X0130733Y0118506D01*
X0130733Y0113506D01*
X0136472Y0124244D02*
X0175733Y0124244D01*
X0185733Y0113506D02*
X0185733Y0094756D01*
X0203233Y0077256D01*
X0263233Y0077256D01*
X0265733Y0079756D01*
X0265733Y0083506D01*
X0278233Y0084006D02*
X0284983Y0084006D01*
X0289483Y0088506D01*
X0289483Y0141006D01*
X0289483Y0162256D01*
X0283233Y0168506D01*
X0278233Y0169006D01*
X0245222Y0183506D02*
X0244922Y0183207D01*
X0234135Y0183207D01*
X0228233Y0184207D02*
X0228233Y0177256D01*
X0222332Y0183207D02*
X0211544Y0183207D01*
X0210733Y0184018D01*
X0228233Y0184207D02*
X0228233Y0194707D01*
X0223233Y0152994D02*
X0223233Y0144018D01*
X0223233Y0132994D02*
X0211757Y0132994D01*
X0211245Y0133506D01*
X0245733Y0144018D02*
X0245733Y0152994D01*
X0245733Y0144018D02*
X0257210Y0144018D01*
X0257722Y0143506D01*
D27*
X0288972Y0141006D02*
X0289483Y0141006D01*
X0299995Y0141006D02*
X0299995Y0145268D01*
X0301983Y0148506D01*
X0353233Y0147256D01*
X0361983Y0156006D01*
X0376983Y0156006D01*
X0383233Y0149756D01*
X0383233Y0133506D01*
X0245733Y0164018D02*
X0245222Y0164530D01*
X0245222Y0183506D01*
X0222332Y0183207D02*
X0222332Y0164920D01*
X0223233Y0164018D01*
X0105733Y0142256D02*
X0104995Y0142256D01*
X0093972Y0142256D02*
X0091983Y0142256D01*
X0086983Y0147256D01*
D28*
X0036983Y0059756D02*
X0036983Y0040006D01*
X0050733Y0040006D01*
X0050733Y0059756D01*
X0036983Y0059756D01*
X0036983Y0059475D02*
X0034733Y0059475D01*
X0034782Y0059334D02*
X0034337Y0060606D01*
X0033753Y0061820D01*
X0033035Y0062961D01*
X0032195Y0064015D01*
X0031242Y0064968D01*
X0030188Y0065808D01*
X0029047Y0066526D01*
X0027833Y0067110D01*
X0026561Y0067555D01*
X0025247Y0067855D01*
X0023907Y0068006D01*
X0023733Y0068006D01*
X0023733Y0056506D01*
X0022733Y0056506D01*
X0022733Y0055506D01*
X0011233Y0055506D01*
X0011233Y0055332D01*
X0011384Y0053993D01*
X0011684Y0052679D01*
X0012129Y0051407D01*
X0012714Y0050193D01*
X0013431Y0049051D01*
X0014272Y0047998D01*
X0015225Y0047044D01*
X0016278Y0046204D01*
X0017420Y0045487D01*
X0018634Y0044902D01*
X0019906Y0044457D01*
X0021220Y0044157D01*
X0022559Y0044006D01*
X0022733Y0044006D01*
X0022733Y0055506D01*
X0023733Y0055506D01*
X0023733Y0044006D01*
X0023907Y0044006D01*
X0025247Y0044157D01*
X0026561Y0044457D01*
X0027833Y0044902D01*
X0029047Y0045487D01*
X0030188Y0046204D01*
X0031242Y0047044D01*
X0032195Y0047998D01*
X0033035Y0049051D01*
X0033753Y0050193D01*
X0034337Y0051407D01*
X0034782Y0052679D01*
X0035082Y0053993D01*
X0035233Y0055332D01*
X0035233Y0055506D01*
X0023733Y0055506D01*
X0023733Y0056506D01*
X0035233Y0056506D01*
X0035233Y0056680D01*
X0035082Y0058020D01*
X0034782Y0059334D01*
X0034978Y0058477D02*
X0036983Y0058477D01*
X0050733Y0058477D01*
X0050733Y0059475D02*
X0036983Y0059475D01*
X0036983Y0060474D02*
X0034384Y0060474D01*
X0033920Y0061472D02*
X0036983Y0061472D01*
X0036983Y0062471D02*
X0033344Y0062471D01*
X0032631Y0063469D02*
X0036983Y0063469D01*
X0036983Y0064468D02*
X0031743Y0064468D01*
X0030618Y0065466D02*
X0036588Y0065466D01*
X0036983Y0065071D02*
X0036983Y0043006D01*
X0010233Y0043006D01*
X0010233Y0187256D01*
X0014804Y0187256D01*
X0015075Y0186985D01*
X0018162Y0185706D01*
X0021504Y0185706D01*
X0024592Y0186985D01*
X0026954Y0189348D01*
X0028233Y0192435D01*
X0028233Y0203577D01*
X0026954Y0206665D01*
X0024592Y0209027D01*
X0021504Y0210306D01*
X0018162Y0210306D01*
X0015075Y0209027D01*
X0012712Y0206665D01*
X0011433Y0203577D01*
X0011433Y0192435D01*
X0012712Y0189348D01*
X0015075Y0186985D01*
X0018162Y0185706D01*
X0021504Y0185706D01*
X0024592Y0186985D01*
X0024863Y0187256D01*
X0030733Y0187256D01*
X0030733Y0162256D01*
X0031896Y0161093D01*
X0032412Y0159848D01*
X0034775Y0157485D01*
X0037862Y0156206D01*
X0041204Y0156206D01*
X0044292Y0157485D01*
X0046654Y0159848D01*
X0047933Y0162935D01*
X0047933Y0174077D01*
X0047333Y0175526D01*
X0047333Y0176218D01*
X0055308Y0176218D01*
X0055014Y0175924D01*
X0054515Y0175237D01*
X0054129Y0174479D01*
X0053866Y0173671D01*
X0053733Y0172831D01*
X0053733Y0169006D01*
X0058633Y0169006D01*
X0058633Y0168006D01*
X0053733Y0168006D01*
X0053733Y0164181D01*
X0053866Y0163342D01*
X0054129Y0162533D01*
X0054515Y0161776D01*
X0055014Y0161088D01*
X0055615Y0160487D01*
X0056303Y0159988D01*
X0057060Y0159602D01*
X0057869Y0159339D01*
X0058633Y0159218D01*
X0058633Y0168006D01*
X0059633Y0168006D01*
X0059633Y0159218D01*
X0060398Y0159339D01*
X0061206Y0159602D01*
X0061964Y0159988D01*
X0062651Y0160487D01*
X0063252Y0161088D01*
X0063752Y0161776D01*
X0064138Y0162533D01*
X0064400Y0163342D01*
X0064533Y0164181D01*
X0064533Y0168006D01*
X0059633Y0168006D01*
X0059633Y0169006D01*
X0064533Y0169006D01*
X0064533Y0172831D01*
X0064400Y0173671D01*
X0064138Y0174479D01*
X0063752Y0175237D01*
X0063252Y0175924D01*
X0062958Y0176218D01*
X0090733Y0176218D01*
X0090733Y0152256D01*
X0032332Y0152256D01*
X0030799Y0153790D01*
X0024172Y0153790D01*
X0022638Y0152256D01*
X0010233Y0152256D01*
X0010233Y0242707D01*
X0386155Y0242707D01*
X0386155Y0153506D01*
X0372579Y0153506D01*
X0372295Y0153790D01*
X0365668Y0153790D01*
X0365384Y0153506D01*
X0299483Y0153506D01*
X0299483Y0175706D01*
X0332699Y0175706D01*
X0332329Y0174979D01*
X0332066Y0174171D01*
X0331933Y0173331D01*
X0331933Y0169506D01*
X0336833Y0169506D01*
X0336833Y0168506D01*
X0331933Y0168506D01*
X0331933Y0164681D01*
X0332066Y0163842D01*
X0332329Y0163033D01*
X0332715Y0162276D01*
X0333214Y0161588D01*
X0333815Y0160987D01*
X0334503Y0160488D01*
X0335260Y0160102D01*
X0336069Y0159839D01*
X0336833Y0159718D01*
X0336833Y0168506D01*
X0337833Y0168506D01*
X0337833Y0159718D01*
X0338598Y0159839D01*
X0339406Y0160102D01*
X0340164Y0160488D01*
X0340851Y0160987D01*
X0341452Y0161588D01*
X0341952Y0162276D01*
X0342338Y0163033D01*
X0342600Y0163842D01*
X0342733Y0164681D01*
X0342733Y0168506D01*
X0337833Y0168506D01*
X0337833Y0169506D01*
X0342733Y0169506D01*
X0342733Y0173331D01*
X0342600Y0174171D01*
X0342338Y0174979D01*
X0341967Y0175706D01*
X0349001Y0175706D01*
X0348533Y0174577D01*
X0348533Y0163435D01*
X0349812Y0160348D01*
X0352175Y0157985D01*
X0355262Y0156706D01*
X0358604Y0156706D01*
X0361692Y0157985D01*
X0364054Y0160348D01*
X0365333Y0163435D01*
X0365333Y0174577D01*
X0364733Y0176026D01*
X0364733Y0191487D01*
X0365333Y0192935D01*
X0365333Y0204077D01*
X0364054Y0207165D01*
X0361692Y0209527D01*
X0358604Y0210806D01*
X0357378Y0210806D01*
X0359481Y0212909D01*
X0359481Y0219537D01*
X0354795Y0224223D01*
X0348168Y0224223D01*
X0343481Y0219537D01*
X0343481Y0212909D01*
X0348168Y0208223D01*
X0350870Y0208223D01*
X0349812Y0207165D01*
X0348533Y0204077D01*
X0348533Y0192935D01*
X0349133Y0191487D01*
X0349133Y0191306D01*
X0341610Y0191306D01*
X0341952Y0191776D01*
X0342338Y0192533D01*
X0342600Y0193342D01*
X0342733Y0194181D01*
X0342733Y0198006D01*
X0337833Y0198006D01*
X0337833Y0199006D01*
X0336833Y0199006D01*
X0336833Y0198006D01*
X0331933Y0198006D01*
X0331933Y0194181D01*
X0332066Y0193342D01*
X0332329Y0192533D01*
X0332715Y0191776D01*
X0333056Y0191306D01*
X0299483Y0191306D01*
X0299483Y0217256D01*
X0090733Y0217256D01*
X0090733Y0191818D01*
X0064028Y0191818D01*
X0064138Y0192033D01*
X0064400Y0192842D01*
X0064533Y0193681D01*
X0064533Y0197506D01*
X0059633Y0197506D01*
X0059633Y0198506D01*
X0058633Y0198506D01*
X0058633Y0197506D01*
X0053733Y0197506D01*
X0053733Y0193681D01*
X0053866Y0192842D01*
X0054129Y0192033D01*
X0054239Y0191818D01*
X0047678Y0191818D01*
X0047933Y0192435D01*
X0047933Y0203577D01*
X0046654Y0206665D01*
X0045096Y0208223D01*
X0048299Y0208223D01*
X0052985Y0212909D01*
X0052985Y0219537D01*
X0048299Y0224223D01*
X0041672Y0224223D01*
X0036985Y0219537D01*
X0036985Y0212909D01*
X0039588Y0210306D01*
X0037862Y0210306D01*
X0034775Y0209027D01*
X0032412Y0206665D01*
X0031133Y0203577D01*
X0031133Y0192435D01*
X0031733Y0190987D01*
X0031733Y0175526D01*
X0031133Y0174077D01*
X0031133Y0162935D01*
X0032412Y0159848D01*
X0034775Y0157485D01*
X0036020Y0156969D01*
X0036983Y0156006D01*
X0090733Y0156006D01*
X0090733Y0147300D01*
X0090624Y0147300D01*
X0090243Y0147197D01*
X0089901Y0147000D01*
X0089622Y0146721D01*
X0089424Y0146379D01*
X0089322Y0145997D01*
X0089322Y0142756D01*
X0090733Y0142756D01*
X0090733Y0141756D01*
X0089322Y0141756D01*
X0089322Y0138516D01*
X0089424Y0138134D01*
X0089622Y0137792D01*
X0089901Y0137513D01*
X0090243Y0137315D01*
X0090624Y0137213D01*
X0090733Y0137213D01*
X0090733Y0092256D01*
X0110733Y0072256D01*
X0199607Y0072256D01*
X0199778Y0072085D01*
X0202020Y0071156D01*
X0264447Y0071156D01*
X0266689Y0072085D01*
X0266860Y0072256D01*
X0275235Y0072256D01*
X0276562Y0071706D01*
X0279904Y0071706D01*
X0281232Y0072256D01*
X0284483Y0072256D01*
X0299483Y0087256D01*
X0299483Y0135963D01*
X0299495Y0135963D01*
X0299495Y0140506D01*
X0300495Y0140506D01*
X0300495Y0135963D01*
X0303342Y0135963D01*
X0303724Y0136065D01*
X0304066Y0136263D01*
X0304345Y0136542D01*
X0304543Y0136884D01*
X0304645Y0137266D01*
X0304645Y0140506D01*
X0300495Y0140506D01*
X0300495Y0141506D01*
X0304645Y0141506D01*
X0304645Y0144747D01*
X0304543Y0145129D01*
X0304345Y0145471D01*
X0304066Y0145750D01*
X0303724Y0145947D01*
X0303342Y0146050D01*
X0300495Y0146050D01*
X0300495Y0141506D01*
X0299495Y0141506D01*
X0299495Y0146050D01*
X0299483Y0146050D01*
X0299483Y0157256D01*
X0353935Y0157256D01*
X0355262Y0156706D01*
X0358604Y0156706D01*
X0359932Y0157256D01*
X0360733Y0157256D01*
X0361300Y0157823D01*
X0361692Y0157985D01*
X0364054Y0160348D01*
X0364217Y0160740D01*
X0364483Y0161006D01*
X0364483Y0161383D01*
X0365333Y0163435D01*
X0365333Y0174577D01*
X0364733Y0176026D01*
X0364733Y0186006D01*
X0386155Y0186006D01*
X0386155Y0043006D01*
X0359483Y0043006D01*
X0359483Y0064756D01*
X0359326Y0064914D01*
X0364987Y0070575D01*
X0366433Y0074067D01*
X0366433Y0082046D01*
X0366483Y0082167D01*
X0366483Y0119146D01*
X0365733Y0120957D01*
X0365733Y0121006D01*
X0365698Y0121041D01*
X0365037Y0122638D01*
X0362365Y0125310D01*
X0360768Y0125971D01*
X0360733Y0126006D01*
X0360684Y0126006D01*
X0358873Y0126756D01*
X0355094Y0126756D01*
X0353283Y0126006D01*
X0346833Y0126006D01*
X0346833Y0128966D01*
X0346985Y0129333D01*
X0346985Y0133113D01*
X0345539Y0136604D01*
X0342867Y0139277D01*
X0342178Y0139562D01*
X0341983Y0139756D01*
X0341708Y0139756D01*
X0339375Y0140723D01*
X0335596Y0140723D01*
X0333262Y0139756D01*
X0331983Y0139756D01*
X0326983Y0134756D01*
X0326983Y0093006D01*
X0316344Y0093006D01*
X0312852Y0091560D01*
X0312298Y0091006D01*
X0311983Y0091006D01*
X0288983Y0068006D01*
X0107483Y0068006D01*
X0084483Y0091006D01*
X0083184Y0091006D01*
X0081373Y0091756D01*
X0069483Y0091756D01*
X0069483Y0134756D01*
X0064483Y0139756D01*
X0063204Y0139756D01*
X0060871Y0140723D01*
X0057092Y0140723D01*
X0054758Y0139756D01*
X0054483Y0139756D01*
X0054289Y0139562D01*
X0053600Y0139277D01*
X0050928Y0136604D01*
X0050642Y0135915D01*
X0049483Y0134756D01*
X0049483Y0133117D01*
X0049481Y0133113D01*
X0049481Y0129333D01*
X0049483Y0129328D01*
X0049483Y0126006D01*
X0043184Y0126006D01*
X0041373Y0126756D01*
X0037594Y0126756D01*
X0035783Y0126006D01*
X0035733Y0126006D01*
X0035698Y0125971D01*
X0034102Y0125310D01*
X0031430Y0122638D01*
X0030768Y0121041D01*
X0030733Y0121006D01*
X0030733Y0120957D01*
X0029983Y0119146D01*
X0029983Y0081667D01*
X0030007Y0081609D01*
X0029959Y0078007D01*
X0029933Y0077946D01*
X0029933Y0076120D01*
X0029909Y0074294D01*
X0029933Y0074233D01*
X0029933Y0074167D01*
X0030632Y0072480D01*
X0031308Y0070784D01*
X0031354Y0070736D01*
X0031380Y0070675D01*
X0032671Y0069384D01*
X0033944Y0068076D01*
X0034005Y0068049D01*
X0036983Y0065071D01*
X0035590Y0066465D02*
X0029144Y0066465D01*
X0026824Y0067463D02*
X0034591Y0067463D01*
X0033569Y0068462D02*
X0010233Y0068462D01*
X0010233Y0069460D02*
X0032594Y0069460D01*
X0031596Y0070459D02*
X0010233Y0070459D01*
X0010233Y0071457D02*
X0017557Y0071457D01*
X0018162Y0071206D02*
X0021504Y0071206D01*
X0024592Y0072485D01*
X0026954Y0074848D01*
X0028233Y0077935D01*
X0028233Y0089077D01*
X0026954Y0092165D01*
X0024592Y0094527D01*
X0021504Y0095806D01*
X0018162Y0095806D01*
X0015075Y0094527D01*
X0012712Y0092165D01*
X0011433Y0089077D01*
X0011433Y0077935D01*
X0012712Y0074848D01*
X0015075Y0072485D01*
X0018162Y0071206D01*
X0015146Y0072456D02*
X0010233Y0072456D01*
X0010233Y0073454D02*
X0014106Y0073454D01*
X0013108Y0074453D02*
X0010233Y0074453D01*
X0010233Y0075451D02*
X0012462Y0075451D01*
X0012049Y0076450D02*
X0010233Y0076450D01*
X0010233Y0077448D02*
X0011635Y0077448D01*
X0011433Y0078447D02*
X0010233Y0078447D01*
X0010233Y0079445D02*
X0011433Y0079445D01*
X0011433Y0080444D02*
X0010233Y0080444D01*
X0010233Y0081442D02*
X0011433Y0081442D01*
X0011433Y0082441D02*
X0010233Y0082441D01*
X0010233Y0083439D02*
X0011433Y0083439D01*
X0011433Y0084438D02*
X0010233Y0084438D01*
X0010233Y0085436D02*
X0011433Y0085436D01*
X0011433Y0086435D02*
X0010233Y0086435D01*
X0010233Y0087433D02*
X0011433Y0087433D01*
X0011433Y0088432D02*
X0010233Y0088432D01*
X0010233Y0089430D02*
X0011580Y0089430D01*
X0011993Y0090429D02*
X0010233Y0090429D01*
X0010233Y0091427D02*
X0012407Y0091427D01*
X0012974Y0092426D02*
X0010233Y0092426D01*
X0010233Y0093424D02*
X0013972Y0093424D01*
X0014971Y0094423D02*
X0010233Y0094423D01*
X0010233Y0095421D02*
X0017233Y0095421D01*
X0022433Y0095421D02*
X0029983Y0095421D01*
X0029983Y0094423D02*
X0024696Y0094423D01*
X0025695Y0093424D02*
X0029983Y0093424D01*
X0029983Y0092426D02*
X0026693Y0092426D01*
X0027260Y0091427D02*
X0029983Y0091427D01*
X0029983Y0090429D02*
X0027673Y0090429D01*
X0028087Y0089430D02*
X0029983Y0089430D01*
X0029983Y0088432D02*
X0028233Y0088432D01*
X0028233Y0087433D02*
X0029983Y0087433D01*
X0029983Y0086435D02*
X0028233Y0086435D01*
X0028233Y0085436D02*
X0029983Y0085436D01*
X0029983Y0084438D02*
X0028233Y0084438D01*
X0028233Y0083439D02*
X0029983Y0083439D01*
X0029983Y0082441D02*
X0028233Y0082441D01*
X0028233Y0081442D02*
X0030005Y0081442D01*
X0029991Y0080444D02*
X0028233Y0080444D01*
X0028233Y0079445D02*
X0029978Y0079445D01*
X0029965Y0078447D02*
X0028233Y0078447D01*
X0028032Y0077448D02*
X0029933Y0077448D01*
X0029933Y0076450D02*
X0027618Y0076450D01*
X0027204Y0075451D02*
X0029924Y0075451D01*
X0029911Y0074453D02*
X0026559Y0074453D01*
X0025561Y0073454D02*
X0030228Y0073454D01*
X0030642Y0072456D02*
X0024520Y0072456D01*
X0022110Y0071457D02*
X0031040Y0071457D01*
X0023733Y0067463D02*
X0022733Y0067463D01*
X0022733Y0068006D02*
X0022559Y0068006D01*
X0021220Y0067855D01*
X0019906Y0067555D01*
X0018634Y0067110D01*
X0017420Y0066526D01*
X0016278Y0065808D01*
X0015225Y0064968D01*
X0014272Y0064015D01*
X0013431Y0062961D01*
X0012714Y0061820D01*
X0012129Y0060606D01*
X0011684Y0059334D01*
X0011384Y0058020D01*
X0011233Y0056680D01*
X0011233Y0056506D01*
X0022733Y0056506D01*
X0022733Y0068006D01*
X0022733Y0066465D02*
X0023733Y0066465D01*
X0023733Y0065466D02*
X0022733Y0065466D01*
X0022733Y0064468D02*
X0023733Y0064468D01*
X0023733Y0063469D02*
X0022733Y0063469D01*
X0022733Y0062471D02*
X0023733Y0062471D01*
X0023733Y0061472D02*
X0022733Y0061472D01*
X0022733Y0060474D02*
X0023733Y0060474D01*
X0023733Y0059475D02*
X0022733Y0059475D01*
X0022733Y0058477D02*
X0023733Y0058477D01*
X0023733Y0057478D02*
X0022733Y0057478D01*
X0022733Y0056480D02*
X0010233Y0056480D01*
X0010233Y0057478D02*
X0011323Y0057478D01*
X0011489Y0058477D02*
X0010233Y0058477D01*
X0010233Y0059475D02*
X0011734Y0059475D01*
X0012083Y0060474D02*
X0010233Y0060474D01*
X0010233Y0061472D02*
X0012547Y0061472D01*
X0013123Y0062471D02*
X0010233Y0062471D01*
X0010233Y0063469D02*
X0013836Y0063469D01*
X0014724Y0064468D02*
X0010233Y0064468D01*
X0010233Y0065466D02*
X0015849Y0065466D01*
X0017323Y0066465D02*
X0010233Y0066465D01*
X0010233Y0067463D02*
X0019642Y0067463D01*
X0035143Y0057478D02*
X0036983Y0057478D01*
X0050733Y0057478D01*
X0050733Y0056480D02*
X0036983Y0056480D01*
X0023733Y0056480D01*
X0023733Y0055481D02*
X0022733Y0055481D01*
X0022733Y0054482D02*
X0023733Y0054482D01*
X0023733Y0053484D02*
X0022733Y0053484D01*
X0022733Y0052485D02*
X0023733Y0052485D01*
X0023733Y0051487D02*
X0022733Y0051487D01*
X0022733Y0050488D02*
X0023733Y0050488D01*
X0023733Y0049490D02*
X0022733Y0049490D01*
X0022733Y0048491D02*
X0023733Y0048491D01*
X0023733Y0047493D02*
X0022733Y0047493D01*
X0022733Y0046494D02*
X0023733Y0046494D01*
X0023733Y0045496D02*
X0022733Y0045496D01*
X0022733Y0044497D02*
X0023733Y0044497D01*
X0026676Y0044497D02*
X0036983Y0044497D01*
X0050733Y0044497D01*
X0050733Y0043499D02*
X0036983Y0043499D01*
X0010233Y0043499D01*
X0010233Y0044497D02*
X0019791Y0044497D01*
X0017406Y0045496D02*
X0010233Y0045496D01*
X0010233Y0046494D02*
X0015914Y0046494D01*
X0014776Y0047493D02*
X0010233Y0047493D01*
X0010233Y0048491D02*
X0013878Y0048491D01*
X0013156Y0049490D02*
X0010233Y0049490D01*
X0010233Y0050488D02*
X0012572Y0050488D01*
X0012101Y0051487D02*
X0010233Y0051487D01*
X0010233Y0052485D02*
X0011752Y0052485D01*
X0011500Y0053484D02*
X0010233Y0053484D01*
X0010233Y0054482D02*
X0011329Y0054482D01*
X0011233Y0055481D02*
X0010233Y0055481D01*
X0029061Y0045496D02*
X0036983Y0045496D01*
X0050733Y0045496D01*
X0050733Y0046494D02*
X0036983Y0046494D01*
X0030552Y0046494D01*
X0031690Y0047493D02*
X0036983Y0047493D01*
X0050733Y0047493D01*
X0050733Y0048491D02*
X0036983Y0048491D01*
X0032589Y0048491D01*
X0033311Y0049490D02*
X0036983Y0049490D01*
X0050733Y0049490D01*
X0050733Y0050488D02*
X0036983Y0050488D01*
X0033895Y0050488D01*
X0034365Y0051487D02*
X0036983Y0051487D01*
X0050733Y0051487D01*
X0050733Y0052485D02*
X0036983Y0052485D01*
X0034715Y0052485D01*
X0034966Y0053484D02*
X0036983Y0053484D01*
X0050733Y0053484D01*
X0050733Y0054482D02*
X0036983Y0054482D01*
X0035138Y0054482D01*
X0035233Y0055481D02*
X0036983Y0055481D01*
X0050733Y0055481D01*
X0048233Y0051006D02*
X0045833Y0048606D01*
X0046983Y0047456D01*
X0046983Y0047256D01*
X0045833Y0048406D01*
X0045833Y0048606D01*
X0048233Y0046006D02*
X0048233Y0041006D01*
X0050733Y0041502D02*
X0036983Y0041502D01*
X0036983Y0042500D02*
X0050733Y0042500D01*
X0050733Y0040503D02*
X0036983Y0040503D01*
X0043233Y0041006D02*
X0043233Y0046006D01*
X0075733Y0046494D02*
X0089483Y0046494D01*
X0089483Y0045496D02*
X0075733Y0045496D01*
X0075733Y0044497D02*
X0089483Y0044497D01*
X0089483Y0043499D02*
X0075733Y0043499D01*
X0075733Y0042500D02*
X0089483Y0042500D01*
X0089483Y0041502D02*
X0075733Y0041502D01*
X0075733Y0040503D02*
X0089483Y0040503D01*
X0089483Y0040006D02*
X0075733Y0040006D01*
X0075733Y0059756D01*
X0089483Y0059756D01*
X0089483Y0040006D01*
X0088233Y0042256D02*
X0088233Y0049756D01*
X0308233Y0049756D01*
X0308233Y0042256D01*
X0088233Y0042256D01*
X0088233Y0042500D02*
X0308233Y0042500D01*
X0308233Y0043499D02*
X0088233Y0043499D01*
X0088233Y0044497D02*
X0308233Y0044497D01*
X0308233Y0045496D02*
X0088233Y0045496D01*
X0088233Y0046494D02*
X0308233Y0046494D01*
X0308233Y0047493D02*
X0088233Y0047493D01*
X0088233Y0048491D02*
X0308233Y0048491D01*
X0308233Y0049490D02*
X0088233Y0049490D01*
X0089483Y0049490D02*
X0075733Y0049490D01*
X0075733Y0050488D02*
X0089483Y0050488D01*
X0089483Y0051487D02*
X0075733Y0051487D01*
X0075733Y0052485D02*
X0089483Y0052485D01*
X0089483Y0053484D02*
X0075733Y0053484D01*
X0075733Y0054482D02*
X0089483Y0054482D01*
X0089483Y0055481D02*
X0075733Y0055481D01*
X0075733Y0056480D02*
X0089483Y0056480D01*
X0089483Y0057478D02*
X0075733Y0057478D01*
X0075733Y0058477D02*
X0089483Y0058477D01*
X0089483Y0059475D02*
X0075733Y0059475D01*
X0075733Y0048491D02*
X0089483Y0048491D01*
X0089483Y0047493D02*
X0075733Y0047493D01*
X0078233Y0046006D02*
X0078233Y0041006D01*
X0083233Y0041006D02*
X0083233Y0046006D01*
X0080633Y0048606D01*
X0106029Y0069460D02*
X0290437Y0069460D01*
X0289439Y0068462D02*
X0107028Y0068462D01*
X0105031Y0070459D02*
X0291436Y0070459D01*
X0292434Y0071457D02*
X0265173Y0071457D01*
X0284683Y0072456D02*
X0293433Y0072456D01*
X0294431Y0073454D02*
X0285681Y0073454D01*
X0286680Y0074453D02*
X0295430Y0074453D01*
X0296428Y0075451D02*
X0287678Y0075451D01*
X0288677Y0076450D02*
X0297427Y0076450D01*
X0298425Y0077448D02*
X0289675Y0077448D01*
X0290674Y0078447D02*
X0299424Y0078447D01*
X0300422Y0079445D02*
X0291672Y0079445D01*
X0292671Y0080444D02*
X0301421Y0080444D01*
X0302419Y0081442D02*
X0293669Y0081442D01*
X0294668Y0082441D02*
X0303418Y0082441D01*
X0304416Y0083439D02*
X0295666Y0083439D01*
X0296665Y0084438D02*
X0305415Y0084438D01*
X0306413Y0085436D02*
X0297663Y0085436D01*
X0298662Y0086435D02*
X0307412Y0086435D01*
X0308410Y0087433D02*
X0299483Y0087433D01*
X0299483Y0088432D02*
X0309409Y0088432D01*
X0310407Y0089430D02*
X0299483Y0089430D01*
X0299483Y0090429D02*
X0311406Y0090429D01*
X0312719Y0091427D02*
X0299483Y0091427D01*
X0299483Y0092426D02*
X0314943Y0092426D01*
X0326983Y0093424D02*
X0299483Y0093424D01*
X0299483Y0094423D02*
X0326983Y0094423D01*
X0326983Y0095421D02*
X0299483Y0095421D01*
X0299483Y0096420D02*
X0326983Y0096420D01*
X0326983Y0097418D02*
X0299483Y0097418D01*
X0299483Y0098417D02*
X0326983Y0098417D01*
X0326983Y0099415D02*
X0299483Y0099415D01*
X0299483Y0100414D02*
X0326983Y0100414D01*
X0326983Y0101413D02*
X0299483Y0101413D01*
X0299483Y0102411D02*
X0326983Y0102411D01*
X0326983Y0103410D02*
X0299483Y0103410D01*
X0299483Y0104408D02*
X0326983Y0104408D01*
X0326983Y0105407D02*
X0299483Y0105407D01*
X0299483Y0106405D02*
X0326983Y0106405D01*
X0326983Y0107404D02*
X0299483Y0107404D01*
X0299483Y0108402D02*
X0326983Y0108402D01*
X0326983Y0109401D02*
X0299483Y0109401D01*
X0299483Y0110399D02*
X0326983Y0110399D01*
X0326983Y0111398D02*
X0299483Y0111398D01*
X0299483Y0112396D02*
X0326983Y0112396D01*
X0326983Y0113395D02*
X0299483Y0113395D01*
X0299483Y0114393D02*
X0326983Y0114393D01*
X0326983Y0115392D02*
X0299483Y0115392D01*
X0299483Y0116390D02*
X0326983Y0116390D01*
X0326983Y0117389D02*
X0299483Y0117389D01*
X0299483Y0118387D02*
X0326983Y0118387D01*
X0326983Y0119386D02*
X0299483Y0119386D01*
X0299483Y0120384D02*
X0326983Y0120384D01*
X0326983Y0121383D02*
X0299483Y0121383D01*
X0299483Y0122381D02*
X0326983Y0122381D01*
X0326983Y0123380D02*
X0299483Y0123380D01*
X0299483Y0124378D02*
X0326983Y0124378D01*
X0326983Y0125377D02*
X0299483Y0125377D01*
X0299483Y0126375D02*
X0326983Y0126375D01*
X0326983Y0127374D02*
X0299483Y0127374D01*
X0299483Y0128372D02*
X0326983Y0128372D01*
X0326983Y0129371D02*
X0299483Y0129371D01*
X0299483Y0130369D02*
X0326983Y0130369D01*
X0326983Y0131368D02*
X0299483Y0131368D01*
X0299483Y0132366D02*
X0326983Y0132366D01*
X0326983Y0133365D02*
X0299483Y0133365D01*
X0299483Y0134363D02*
X0326983Y0134363D01*
X0327589Y0135362D02*
X0299483Y0135362D01*
X0299495Y0136360D02*
X0300495Y0136360D01*
X0300495Y0137359D02*
X0299495Y0137359D01*
X0299495Y0138357D02*
X0300495Y0138357D01*
X0300495Y0139356D02*
X0299495Y0139356D01*
X0299495Y0140354D02*
X0300495Y0140354D01*
X0300495Y0141353D02*
X0362104Y0141353D01*
X0361106Y0142351D02*
X0304645Y0142351D01*
X0304645Y0143350D02*
X0360981Y0143350D01*
X0360981Y0142476D02*
X0365668Y0137790D01*
X0372295Y0137790D01*
X0376981Y0142476D01*
X0376981Y0149103D01*
X0372295Y0153790D01*
X0365668Y0153790D01*
X0360981Y0149103D01*
X0360981Y0142476D01*
X0360981Y0144348D02*
X0304645Y0144348D01*
X0304416Y0145347D02*
X0360981Y0145347D01*
X0360981Y0146346D02*
X0299483Y0146346D01*
X0299483Y0147344D02*
X0360981Y0147344D01*
X0360981Y0148343D02*
X0299483Y0148343D01*
X0299483Y0149341D02*
X0361219Y0149341D01*
X0362217Y0150340D02*
X0299483Y0150340D01*
X0299483Y0151338D02*
X0363216Y0151338D01*
X0364214Y0152337D02*
X0299483Y0152337D01*
X0299483Y0153335D02*
X0365213Y0153335D01*
X0362034Y0158328D02*
X0371533Y0158328D01*
X0362034Y0158328D01*
X0363033Y0159326D02*
X0370534Y0159326D01*
X0363033Y0159326D01*
X0364031Y0160325D02*
X0369536Y0160325D01*
X0364031Y0160325D01*
X0364458Y0161323D02*
X0369108Y0161323D01*
X0364483Y0161323D01*
X0364872Y0162322D02*
X0368695Y0162322D01*
X0364872Y0162322D01*
X0365286Y0163320D02*
X0368281Y0163320D01*
X0365286Y0163320D01*
X0365333Y0164319D02*
X0368233Y0164319D01*
X0365333Y0164319D01*
X0365333Y0165317D02*
X0368233Y0165317D01*
X0365333Y0165317D01*
X0365333Y0166316D02*
X0368233Y0166316D01*
X0365333Y0166316D01*
X0365333Y0167314D02*
X0368233Y0167314D01*
X0365333Y0167314D01*
X0365333Y0168313D02*
X0368233Y0168313D01*
X0365333Y0168313D01*
X0365333Y0169311D02*
X0368233Y0169311D01*
X0365333Y0169311D01*
X0365333Y0170310D02*
X0368233Y0170310D01*
X0365333Y0170310D01*
X0365333Y0171308D02*
X0368233Y0171308D01*
X0365333Y0171308D01*
X0365333Y0172307D02*
X0368233Y0172307D01*
X0365333Y0172307D01*
X0365333Y0173305D02*
X0368233Y0173305D01*
X0365333Y0173305D01*
X0365333Y0174304D02*
X0368233Y0174304D01*
X0365333Y0174304D01*
X0365033Y0175302D02*
X0368534Y0175302D01*
X0365033Y0175302D01*
X0364733Y0176301D02*
X0368947Y0176301D01*
X0364733Y0176301D01*
X0364733Y0177299D02*
X0369361Y0177299D01*
X0364733Y0177299D01*
X0364733Y0178298D02*
X0370146Y0178298D01*
X0364733Y0178298D01*
X0364733Y0179296D02*
X0371144Y0179296D01*
X0364733Y0179296D01*
X0364733Y0180295D02*
X0372521Y0180295D01*
X0364733Y0180295D01*
X0364733Y0181293D02*
X0374931Y0181293D01*
X0364733Y0181293D01*
X0364733Y0182292D02*
X0386155Y0182292D01*
X0364733Y0182292D01*
X0364733Y0183290D02*
X0386155Y0183290D01*
X0364733Y0183290D01*
X0364733Y0184289D02*
X0386155Y0184289D01*
X0364733Y0184289D01*
X0364733Y0185287D02*
X0386155Y0185287D01*
X0364733Y0185287D01*
X0364733Y0186286D02*
X0374770Y0186286D01*
X0374962Y0186206D02*
X0378304Y0186206D01*
X0381392Y0187485D01*
X0383754Y0189848D01*
X0385033Y0192935D01*
X0385033Y0204077D01*
X0383754Y0207165D01*
X0381392Y0209527D01*
X0378304Y0210806D01*
X0374962Y0210806D01*
X0371875Y0209527D01*
X0369512Y0207165D01*
X0368233Y0204077D01*
X0368233Y0192935D01*
X0369512Y0189848D01*
X0371875Y0187485D01*
X0374962Y0186206D01*
X0372359Y0187284D02*
X0364733Y0187284D01*
X0364733Y0188283D02*
X0371077Y0188283D01*
X0370079Y0189282D02*
X0364733Y0189282D01*
X0364733Y0190280D02*
X0369333Y0190280D01*
X0368920Y0191279D02*
X0364733Y0191279D01*
X0365061Y0192277D02*
X0368506Y0192277D01*
X0368233Y0193276D02*
X0365333Y0193276D01*
X0365333Y0194274D02*
X0368233Y0194274D01*
X0368233Y0195273D02*
X0365333Y0195273D01*
X0365333Y0196271D02*
X0368233Y0196271D01*
X0368233Y0197270D02*
X0365333Y0197270D01*
X0365333Y0198268D02*
X0368233Y0198268D01*
X0368233Y0199267D02*
X0365333Y0199267D01*
X0365333Y0200265D02*
X0368233Y0200265D01*
X0368233Y0201264D02*
X0365333Y0201264D01*
X0365333Y0202262D02*
X0368233Y0202262D01*
X0368233Y0203261D02*
X0365333Y0203261D01*
X0365258Y0204259D02*
X0368309Y0204259D01*
X0368722Y0205258D02*
X0364844Y0205258D01*
X0364431Y0206256D02*
X0369136Y0206256D01*
X0369602Y0207255D02*
X0363964Y0207255D01*
X0362966Y0208253D02*
X0370601Y0208253D01*
X0371599Y0209252D02*
X0361967Y0209252D01*
X0359947Y0210250D02*
X0373620Y0210250D01*
X0379647Y0210250D02*
X0386155Y0210250D01*
X0386155Y0209252D02*
X0381667Y0209252D01*
X0382666Y0208253D02*
X0386155Y0208253D01*
X0386155Y0207255D02*
X0383664Y0207255D01*
X0384131Y0206256D02*
X0386155Y0206256D01*
X0386155Y0205258D02*
X0384544Y0205258D01*
X0384958Y0204259D02*
X0386155Y0204259D01*
X0386155Y0203261D02*
X0385033Y0203261D01*
X0385033Y0202262D02*
X0386155Y0202262D01*
X0386155Y0201264D02*
X0385033Y0201264D01*
X0385033Y0200265D02*
X0386155Y0200265D01*
X0386155Y0199267D02*
X0385033Y0199267D01*
X0385033Y0198268D02*
X0386155Y0198268D01*
X0386155Y0197270D02*
X0385033Y0197270D01*
X0385033Y0196271D02*
X0386155Y0196271D01*
X0386155Y0195273D02*
X0385033Y0195273D01*
X0385033Y0194274D02*
X0386155Y0194274D01*
X0386155Y0193276D02*
X0385033Y0193276D01*
X0384761Y0192277D02*
X0386155Y0192277D01*
X0386155Y0191279D02*
X0384347Y0191279D01*
X0383933Y0190280D02*
X0386155Y0190280D01*
X0386155Y0189282D02*
X0383188Y0189282D01*
X0382189Y0188283D02*
X0386155Y0188283D01*
X0386155Y0187284D02*
X0380907Y0187284D01*
X0378497Y0186286D02*
X0386155Y0186286D01*
X0386155Y0181293D02*
X0378335Y0181293D01*
X0386155Y0181293D01*
X0386155Y0180295D02*
X0380746Y0180295D01*
X0386155Y0180295D01*
X0386155Y0179296D02*
X0382123Y0179296D01*
X0386155Y0179296D01*
X0386155Y0178298D02*
X0383121Y0178298D01*
X0386155Y0178298D01*
X0386155Y0177299D02*
X0383906Y0177299D01*
X0386155Y0177299D01*
X0386155Y0176301D02*
X0384319Y0176301D01*
X0386155Y0176301D01*
X0386155Y0175302D02*
X0384733Y0175302D01*
X0386155Y0175302D01*
X0386155Y0174304D02*
X0385033Y0174304D01*
X0386155Y0174304D01*
X0386155Y0173305D02*
X0385033Y0173305D01*
X0386155Y0173305D01*
X0386155Y0172307D02*
X0385033Y0172307D01*
X0386155Y0172307D01*
X0386155Y0171308D02*
X0385033Y0171308D01*
X0386155Y0171308D01*
X0386155Y0170310D02*
X0385033Y0170310D01*
X0386155Y0170310D01*
X0386155Y0169311D02*
X0385033Y0169311D01*
X0386155Y0169311D01*
X0386155Y0168313D02*
X0385033Y0168313D01*
X0386155Y0168313D01*
X0386155Y0167314D02*
X0385033Y0167314D01*
X0386155Y0167314D01*
X0386155Y0166316D02*
X0385033Y0166316D01*
X0386155Y0166316D01*
X0386155Y0165317D02*
X0385033Y0165317D01*
X0386155Y0165317D01*
X0386155Y0164319D02*
X0385033Y0164319D01*
X0386155Y0164319D01*
X0386155Y0163320D02*
X0384986Y0163320D01*
X0386155Y0163320D01*
X0386155Y0162322D02*
X0384572Y0162322D01*
X0386155Y0162322D01*
X0386155Y0161323D02*
X0384158Y0161323D01*
X0386155Y0161323D01*
X0386155Y0160325D02*
X0383731Y0160325D01*
X0386155Y0160325D01*
X0386155Y0159326D02*
X0382733Y0159326D01*
X0386155Y0159326D01*
X0386155Y0158328D02*
X0381734Y0158328D01*
X0386155Y0158328D01*
X0386155Y0157329D02*
X0379808Y0157329D01*
X0386155Y0157329D01*
X0386155Y0156331D02*
X0299483Y0156331D01*
X0386155Y0156331D01*
X0386155Y0155332D02*
X0299483Y0155332D01*
X0386155Y0155332D01*
X0386155Y0154334D02*
X0299483Y0154334D01*
X0386155Y0154334D01*
X0386155Y0153335D02*
X0372750Y0153335D01*
X0373748Y0152337D02*
X0386155Y0152337D01*
X0386155Y0151338D02*
X0374747Y0151338D01*
X0375745Y0150340D02*
X0386155Y0150340D01*
X0386155Y0149341D02*
X0376744Y0149341D01*
X0376981Y0148343D02*
X0386155Y0148343D01*
X0386155Y0147344D02*
X0376981Y0147344D01*
X0376981Y0146346D02*
X0386155Y0146346D01*
X0386155Y0145347D02*
X0376981Y0145347D01*
X0376981Y0144348D02*
X0386155Y0144348D01*
X0386155Y0143350D02*
X0376981Y0143350D01*
X0376857Y0142351D02*
X0386155Y0142351D01*
X0386155Y0141353D02*
X0375858Y0141353D01*
X0374860Y0140354D02*
X0386155Y0140354D01*
X0386155Y0139356D02*
X0373861Y0139356D01*
X0372863Y0138357D02*
X0386155Y0138357D01*
X0386155Y0137359D02*
X0344784Y0137359D01*
X0345640Y0136360D02*
X0386155Y0136360D01*
X0386155Y0135362D02*
X0346054Y0135362D01*
X0346467Y0134363D02*
X0386155Y0134363D01*
X0386155Y0133365D02*
X0346881Y0133365D01*
X0346985Y0132366D02*
X0386155Y0132366D01*
X0386155Y0131368D02*
X0346985Y0131368D01*
X0346985Y0130369D02*
X0386155Y0130369D01*
X0386155Y0129371D02*
X0346985Y0129371D01*
X0346833Y0128372D02*
X0386155Y0128372D01*
X0386155Y0127374D02*
X0346833Y0127374D01*
X0346833Y0126375D02*
X0354174Y0126375D01*
X0359793Y0126375D02*
X0386155Y0126375D01*
X0386155Y0125377D02*
X0379341Y0125377D01*
X0378304Y0125806D02*
X0374962Y0125806D01*
X0371875Y0124527D01*
X0369512Y0122165D01*
X0368233Y0119077D01*
X0368233Y0107935D01*
X0369512Y0104848D01*
X0371875Y0102485D01*
X0374962Y0101206D01*
X0378304Y0101206D01*
X0381392Y0102485D01*
X0383754Y0104848D01*
X0385033Y0107935D01*
X0385033Y0119077D01*
X0383754Y0122165D01*
X0381392Y0124527D01*
X0378304Y0125806D01*
X0381541Y0124378D02*
X0386155Y0124378D01*
X0386155Y0123380D02*
X0382539Y0123380D01*
X0383538Y0122381D02*
X0386155Y0122381D01*
X0386155Y0121383D02*
X0384078Y0121383D01*
X0384492Y0120384D02*
X0386155Y0120384D01*
X0386155Y0119386D02*
X0384906Y0119386D01*
X0385033Y0118387D02*
X0386155Y0118387D01*
X0386155Y0117389D02*
X0385033Y0117389D01*
X0385033Y0116390D02*
X0386155Y0116390D01*
X0386155Y0115392D02*
X0385033Y0115392D01*
X0385033Y0114393D02*
X0386155Y0114393D01*
X0386155Y0113395D02*
X0385033Y0113395D01*
X0385033Y0112396D02*
X0386155Y0112396D01*
X0386155Y0111398D02*
X0385033Y0111398D01*
X0385033Y0110399D02*
X0386155Y0110399D01*
X0386155Y0109401D02*
X0385033Y0109401D01*
X0385033Y0108402D02*
X0386155Y0108402D01*
X0386155Y0107404D02*
X0384813Y0107404D01*
X0384399Y0106405D02*
X0386155Y0106405D01*
X0386155Y0105407D02*
X0383986Y0105407D01*
X0383314Y0104408D02*
X0386155Y0104408D01*
X0386155Y0103410D02*
X0382316Y0103410D01*
X0381213Y0102411D02*
X0386155Y0102411D01*
X0386155Y0101413D02*
X0378802Y0101413D01*
X0374465Y0101413D02*
X0366483Y0101413D01*
X0366483Y0102411D02*
X0372054Y0102411D01*
X0370951Y0103410D02*
X0366483Y0103410D01*
X0366483Y0104408D02*
X0369952Y0104408D01*
X0369281Y0105407D02*
X0366483Y0105407D01*
X0366483Y0106405D02*
X0368867Y0106405D01*
X0368454Y0107404D02*
X0366483Y0107404D01*
X0366483Y0108402D02*
X0368233Y0108402D01*
X0368233Y0109401D02*
X0366483Y0109401D01*
X0366483Y0110399D02*
X0368233Y0110399D01*
X0368233Y0111398D02*
X0366483Y0111398D01*
X0366483Y0112396D02*
X0368233Y0112396D01*
X0368233Y0113395D02*
X0366483Y0113395D01*
X0366483Y0114393D02*
X0368233Y0114393D01*
X0368233Y0115392D02*
X0366483Y0115392D01*
X0366483Y0116390D02*
X0368233Y0116390D01*
X0368233Y0117389D02*
X0366483Y0117389D01*
X0366483Y0118387D02*
X0368233Y0118387D01*
X0368361Y0119386D02*
X0366384Y0119386D01*
X0365970Y0120384D02*
X0368775Y0120384D01*
X0369188Y0121383D02*
X0365557Y0121383D01*
X0365143Y0122381D02*
X0369729Y0122381D01*
X0370727Y0123380D02*
X0364295Y0123380D01*
X0363296Y0124378D02*
X0371726Y0124378D01*
X0373926Y0125377D02*
X0362203Y0125377D01*
X0365100Y0138357D02*
X0343786Y0138357D01*
X0342675Y0139356D02*
X0364101Y0139356D01*
X0363103Y0140354D02*
X0340264Y0140354D01*
X0334706Y0140354D02*
X0304645Y0140354D01*
X0304645Y0139356D02*
X0331583Y0139356D01*
X0330584Y0138357D02*
X0304645Y0138357D01*
X0304645Y0137359D02*
X0329586Y0137359D01*
X0328587Y0136360D02*
X0304163Y0136360D01*
X0300495Y0142351D02*
X0299495Y0142351D01*
X0299495Y0143350D02*
X0300495Y0143350D01*
X0300495Y0144348D02*
X0299495Y0144348D01*
X0299495Y0145347D02*
X0300495Y0145347D01*
X0283233Y0145347D02*
X0273395Y0145347D01*
X0273395Y0144348D02*
X0283233Y0144348D01*
X0283233Y0143350D02*
X0269245Y0143350D01*
X0269245Y0143006D02*
X0269245Y0144006D01*
X0273395Y0144006D01*
X0273395Y0147247D01*
X0273293Y0147629D01*
X0273095Y0147971D01*
X0272816Y0148250D01*
X0272474Y0148447D01*
X0272092Y0148550D01*
X0269245Y0148550D01*
X0269245Y0144006D01*
X0268245Y0144006D01*
X0268245Y0148550D01*
X0265398Y0148550D01*
X0265017Y0148447D01*
X0264675Y0148250D01*
X0264483Y0148059D01*
X0264483Y0152256D01*
X0283233Y0152256D01*
X0283233Y0124756D01*
X0264483Y0124756D01*
X0264483Y0128954D01*
X0264675Y0128763D01*
X0265017Y0128565D01*
X0265398Y0128463D01*
X0268245Y0128463D01*
X0268245Y0133006D01*
X0269245Y0133006D01*
X0269245Y0128463D01*
X0272092Y0128463D01*
X0272474Y0128565D01*
X0272816Y0128763D01*
X0273095Y0129042D01*
X0273293Y0129384D01*
X0273395Y0129766D01*
X0273395Y0133006D01*
X0269245Y0133006D01*
X0269245Y0134006D01*
X0273395Y0134006D01*
X0273395Y0137247D01*
X0273293Y0137629D01*
X0273095Y0137971D01*
X0272816Y0138250D01*
X0272474Y0138447D01*
X0272254Y0138506D01*
X0272474Y0138565D01*
X0272816Y0138763D01*
X0273095Y0139042D01*
X0273293Y0139384D01*
X0273395Y0139766D01*
X0273395Y0143006D01*
X0269245Y0143006D01*
X0269245Y0138463D01*
X0269245Y0134006D01*
X0268245Y0134006D01*
X0268245Y0143006D01*
X0269245Y0143006D01*
X0269245Y0142351D02*
X0268245Y0142351D01*
X0268245Y0141353D02*
X0269245Y0141353D01*
X0269245Y0140354D02*
X0268245Y0140354D01*
X0268245Y0139356D02*
X0269245Y0139356D01*
X0269245Y0138357D02*
X0268245Y0138357D01*
X0268245Y0137359D02*
X0269245Y0137359D01*
X0269245Y0136360D02*
X0268245Y0136360D01*
X0268245Y0135362D02*
X0269245Y0135362D01*
X0269245Y0134363D02*
X0268245Y0134363D01*
X0269245Y0133365D02*
X0283233Y0133365D01*
X0283233Y0134363D02*
X0273395Y0134363D01*
X0273395Y0135362D02*
X0283233Y0135362D01*
X0283233Y0136360D02*
X0273395Y0136360D01*
X0273365Y0137359D02*
X0283233Y0137359D01*
X0283233Y0138357D02*
X0272630Y0138357D01*
X0273276Y0139356D02*
X0283233Y0139356D01*
X0283233Y0140354D02*
X0273395Y0140354D01*
X0273395Y0141353D02*
X0283233Y0141353D01*
X0283233Y0142351D02*
X0273395Y0142351D01*
X0273395Y0146346D02*
X0283233Y0146346D01*
X0283233Y0147344D02*
X0273369Y0147344D01*
X0272655Y0148343D02*
X0283233Y0148343D01*
X0283233Y0149341D02*
X0264483Y0149341D01*
X0264483Y0148343D02*
X0264835Y0148343D01*
X0264483Y0150340D02*
X0283233Y0150340D01*
X0283233Y0151338D02*
X0264483Y0151338D01*
X0268245Y0148343D02*
X0269245Y0148343D01*
X0269245Y0147344D02*
X0268245Y0147344D01*
X0268245Y0146346D02*
X0269245Y0146346D01*
X0269245Y0145347D02*
X0268245Y0145347D01*
X0268245Y0144348D02*
X0269245Y0144348D01*
X0269245Y0132366D02*
X0268245Y0132366D01*
X0268245Y0131368D02*
X0269245Y0131368D01*
X0269245Y0130369D02*
X0268245Y0130369D01*
X0268245Y0129371D02*
X0269245Y0129371D01*
X0273285Y0129371D02*
X0283233Y0129371D01*
X0283233Y0130369D02*
X0273395Y0130369D01*
X0273395Y0131368D02*
X0283233Y0131368D01*
X0283233Y0132366D02*
X0273395Y0132366D01*
X0264483Y0128372D02*
X0283233Y0128372D01*
X0283233Y0127374D02*
X0264483Y0127374D01*
X0264483Y0126375D02*
X0283233Y0126375D01*
X0283233Y0125377D02*
X0264483Y0125377D01*
X0251983Y0122256D02*
X0251983Y0092256D01*
X0250608Y0092256D01*
X0250802Y0092593D01*
X0250905Y0092974D01*
X0250905Y0096510D01*
X0244983Y0096510D01*
X0244983Y0097510D01*
X0243983Y0097510D01*
X0243983Y0096510D01*
X0238062Y0096510D01*
X0238062Y0092974D01*
X0238164Y0092593D01*
X0238359Y0092256D01*
X0236983Y0092256D01*
X0236983Y0092695D01*
X0237110Y0092729D01*
X0237452Y0092926D01*
X0237731Y0093205D01*
X0237928Y0093547D01*
X0238031Y0093929D01*
X0238031Y0104256D01*
X0236983Y0104256D01*
X0236983Y0105256D01*
X0238031Y0105256D01*
X0238031Y0115584D01*
X0237928Y0115965D01*
X0237731Y0116307D01*
X0237452Y0116587D01*
X0237110Y0116784D01*
X0236983Y0116818D01*
X0236983Y0122256D01*
X0251983Y0122256D01*
X0251983Y0121383D02*
X0236983Y0121383D01*
X0236983Y0120384D02*
X0251983Y0120384D01*
X0251983Y0119386D02*
X0236983Y0119386D01*
X0236983Y0118387D02*
X0251983Y0118387D01*
X0251983Y0117389D02*
X0236983Y0117389D01*
X0237648Y0116390D02*
X0251983Y0116390D01*
X0251983Y0115392D02*
X0238031Y0115392D01*
X0238233Y0115392D02*
X0209483Y0115392D01*
X0209483Y0116390D02*
X0238233Y0116390D01*
X0238233Y0117256D02*
X0230733Y0117256D01*
X0230733Y0176006D01*
X0238233Y0176006D01*
X0238233Y0117256D01*
X0238233Y0117389D02*
X0230733Y0117389D01*
X0230733Y0118387D02*
X0238233Y0118387D01*
X0209483Y0118387D01*
X0209483Y0117389D02*
X0238233Y0117389D01*
X0238233Y0119386D02*
X0230733Y0119386D01*
X0230733Y0120384D02*
X0238233Y0120384D01*
X0209483Y0120384D01*
X0209483Y0119386D02*
X0238233Y0119386D01*
X0238233Y0121383D02*
X0230733Y0121383D01*
X0230733Y0122381D02*
X0238233Y0122381D01*
X0238233Y0122256D02*
X0209483Y0122256D01*
X0209483Y0091006D01*
X0238233Y0091006D01*
X0238233Y0122256D01*
X0238233Y0121383D02*
X0209483Y0121383D01*
X0209483Y0114393D02*
X0238233Y0114393D01*
X0238031Y0114393D02*
X0251983Y0114393D01*
X0251983Y0113395D02*
X0238031Y0113395D01*
X0238233Y0113395D02*
X0209483Y0113395D01*
X0209483Y0112396D02*
X0238233Y0112396D01*
X0238031Y0112396D02*
X0251983Y0112396D01*
X0251983Y0111398D02*
X0238031Y0111398D01*
X0238233Y0111398D02*
X0209483Y0111398D01*
X0209483Y0110399D02*
X0238233Y0110399D01*
X0238031Y0110399D02*
X0251983Y0110399D01*
X0251983Y0109401D02*
X0238031Y0109401D01*
X0238233Y0109401D02*
X0209483Y0109401D01*
X0209483Y0108402D02*
X0238233Y0108402D01*
X0238031Y0108402D02*
X0251983Y0108402D01*
X0251983Y0107404D02*
X0238031Y0107404D01*
X0238233Y0107404D02*
X0209483Y0107404D01*
X0209483Y0106405D02*
X0238233Y0106405D01*
X0238031Y0106405D02*
X0251983Y0106405D01*
X0251983Y0105407D02*
X0238031Y0105407D01*
X0238233Y0105407D02*
X0209483Y0105407D01*
X0209483Y0104408D02*
X0238233Y0104408D01*
X0238233Y0103410D02*
X0209483Y0103410D01*
X0209483Y0102411D02*
X0238233Y0102411D01*
X0238031Y0102411D02*
X0251983Y0102411D01*
X0251983Y0101413D02*
X0250806Y0101413D01*
X0250802Y0101428D02*
X0250605Y0101770D01*
X0250326Y0102049D01*
X0249984Y0102247D01*
X0249602Y0102349D01*
X0244983Y0102349D01*
X0244983Y0097510D01*
X0250905Y0097510D01*
X0250905Y0101046D01*
X0250802Y0101428D01*
X0250905Y0100414D02*
X0251983Y0100414D01*
X0251983Y0099415D02*
X0250905Y0099415D01*
X0250905Y0098417D02*
X0251983Y0098417D01*
X0251983Y0097418D02*
X0244983Y0097418D01*
X0244983Y0098417D02*
X0243983Y0098417D01*
X0243983Y0097510D02*
X0243983Y0102349D01*
X0239365Y0102349D01*
X0238983Y0102247D01*
X0238641Y0102049D01*
X0238362Y0101770D01*
X0238164Y0101428D01*
X0238062Y0101046D01*
X0238062Y0097510D01*
X0243983Y0097510D01*
X0243983Y0097418D02*
X0238031Y0097418D01*
X0238233Y0097418D02*
X0209483Y0097418D01*
X0209483Y0096420D02*
X0238233Y0096420D01*
X0238062Y0096420D02*
X0238031Y0096420D01*
X0238031Y0095421D02*
X0238062Y0095421D01*
X0238233Y0095421D02*
X0209483Y0095421D01*
X0209483Y0094423D02*
X0238233Y0094423D01*
X0238062Y0094423D02*
X0238031Y0094423D01*
X0238062Y0093424D02*
X0237857Y0093424D01*
X0238233Y0093424D02*
X0209483Y0093424D01*
X0209483Y0092426D02*
X0238233Y0092426D01*
X0238261Y0092426D02*
X0236983Y0092426D01*
X0238233Y0091427D02*
X0209483Y0091427D01*
X0209483Y0098417D02*
X0238233Y0098417D01*
X0238062Y0098417D02*
X0238031Y0098417D01*
X0238031Y0099415D02*
X0238062Y0099415D01*
X0238233Y0099415D02*
X0209483Y0099415D01*
X0209483Y0100414D02*
X0238233Y0100414D01*
X0238062Y0100414D02*
X0238031Y0100414D01*
X0238031Y0101413D02*
X0238160Y0101413D01*
X0238233Y0101413D02*
X0209483Y0101413D01*
X0236983Y0104408D02*
X0251983Y0104408D01*
X0251983Y0103410D02*
X0238031Y0103410D01*
X0243983Y0101413D02*
X0244983Y0101413D01*
X0244983Y0100414D02*
X0243983Y0100414D01*
X0243983Y0099415D02*
X0244983Y0099415D01*
X0250905Y0096420D02*
X0251983Y0096420D01*
X0251983Y0095421D02*
X0250905Y0095421D01*
X0250905Y0094423D02*
X0251983Y0094423D01*
X0251983Y0093424D02*
X0250905Y0093424D01*
X0250706Y0092426D02*
X0251983Y0092426D01*
X0238233Y0123380D02*
X0230733Y0123380D01*
X0230733Y0124378D02*
X0238233Y0124378D01*
X0238233Y0125377D02*
X0230733Y0125377D01*
X0230733Y0126375D02*
X0238233Y0126375D01*
X0238233Y0127374D02*
X0230733Y0127374D01*
X0230733Y0128372D02*
X0238233Y0128372D01*
X0238233Y0129371D02*
X0230733Y0129371D01*
X0230733Y0130369D02*
X0238233Y0130369D01*
X0238233Y0131368D02*
X0230733Y0131368D01*
X0230733Y0132366D02*
X0238233Y0132366D01*
X0238233Y0133365D02*
X0230733Y0133365D01*
X0230733Y0134363D02*
X0238233Y0134363D01*
X0238233Y0135362D02*
X0230733Y0135362D01*
X0230733Y0136360D02*
X0238233Y0136360D01*
X0238233Y0137359D02*
X0230733Y0137359D01*
X0230733Y0138357D02*
X0238233Y0138357D01*
X0238233Y0139356D02*
X0230733Y0139356D01*
X0230733Y0140354D02*
X0238233Y0140354D01*
X0238233Y0141353D02*
X0230733Y0141353D01*
X0230733Y0142351D02*
X0238233Y0142351D01*
X0238233Y0143350D02*
X0230733Y0143350D01*
X0230733Y0144348D02*
X0238233Y0144348D01*
X0238233Y0145347D02*
X0230733Y0145347D01*
X0230733Y0146346D02*
X0238233Y0146346D01*
X0238233Y0147344D02*
X0230733Y0147344D01*
X0230733Y0148343D02*
X0238233Y0148343D01*
X0238233Y0149341D02*
X0230733Y0149341D01*
X0230733Y0150340D02*
X0238233Y0150340D01*
X0238233Y0151338D02*
X0230733Y0151338D01*
X0230733Y0152337D02*
X0238233Y0152337D01*
X0238233Y0153335D02*
X0230733Y0153335D01*
X0230733Y0154334D02*
X0238233Y0154334D01*
X0238233Y0155332D02*
X0230733Y0155332D01*
X0230733Y0156331D02*
X0238233Y0156331D01*
X0238233Y0157329D02*
X0230733Y0157329D01*
X0230733Y0158328D02*
X0238233Y0158328D01*
X0238233Y0159326D02*
X0230733Y0159326D01*
X0230733Y0160325D02*
X0238233Y0160325D01*
X0238233Y0161323D02*
X0230733Y0161323D01*
X0230733Y0162322D02*
X0238233Y0162322D01*
X0238233Y0163320D02*
X0230733Y0163320D01*
X0230733Y0164319D02*
X0238233Y0164319D01*
X0238233Y0165317D02*
X0230733Y0165317D01*
X0230733Y0166316D02*
X0238233Y0166316D01*
X0238233Y0167314D02*
X0230733Y0167314D01*
X0230733Y0168313D02*
X0238233Y0168313D01*
X0238233Y0169311D02*
X0230733Y0169311D01*
X0230733Y0170310D02*
X0238233Y0170310D01*
X0238233Y0171308D02*
X0230733Y0171308D01*
X0230733Y0172307D02*
X0238233Y0172307D01*
X0238233Y0173305D02*
X0230733Y0173305D01*
X0230733Y0174304D02*
X0238233Y0174304D01*
X0238233Y0175302D02*
X0230733Y0175302D01*
X0248233Y0191006D02*
X0208233Y0191006D01*
X0208233Y0222256D01*
X0248233Y0222256D01*
X0248233Y0191006D01*
X0248233Y0191279D02*
X0208233Y0191279D01*
X0208233Y0192277D02*
X0248233Y0192277D01*
X0248233Y0193276D02*
X0208233Y0193276D01*
X0208233Y0194274D02*
X0248233Y0194274D01*
X0248233Y0195273D02*
X0208233Y0195273D01*
X0208233Y0196271D02*
X0248233Y0196271D01*
X0248233Y0197270D02*
X0208233Y0197270D01*
X0208233Y0198268D02*
X0248233Y0198268D01*
X0248233Y0199267D02*
X0208233Y0199267D01*
X0208233Y0200265D02*
X0248233Y0200265D01*
X0248233Y0201264D02*
X0208233Y0201264D01*
X0208233Y0202262D02*
X0248233Y0202262D01*
X0248233Y0203261D02*
X0208233Y0203261D01*
X0208233Y0204259D02*
X0248233Y0204259D01*
X0248233Y0205258D02*
X0208233Y0205258D01*
X0208233Y0206256D02*
X0248233Y0206256D01*
X0248233Y0207255D02*
X0208233Y0207255D01*
X0208233Y0208253D02*
X0248233Y0208253D01*
X0248233Y0209252D02*
X0208233Y0209252D01*
X0208233Y0210250D02*
X0248233Y0210250D01*
X0248233Y0211249D02*
X0208233Y0211249D01*
X0208233Y0212247D02*
X0248233Y0212247D01*
X0248233Y0213246D02*
X0208233Y0213246D01*
X0208233Y0214244D02*
X0248233Y0214244D01*
X0248233Y0215243D02*
X0208233Y0215243D01*
X0208233Y0216241D02*
X0248233Y0216241D01*
X0248233Y0217240D02*
X0208233Y0217240D01*
X0208233Y0218238D02*
X0248233Y0218238D01*
X0248233Y0219237D02*
X0208233Y0219237D01*
X0208233Y0220235D02*
X0248233Y0220235D01*
X0248233Y0221234D02*
X0208233Y0221234D01*
X0208233Y0222232D02*
X0248233Y0222232D01*
X0299483Y0217240D02*
X0343481Y0217240D01*
X0343481Y0218238D02*
X0052985Y0218238D01*
X0052985Y0217240D02*
X0090733Y0217240D01*
X0090733Y0216241D02*
X0052985Y0216241D01*
X0052985Y0215243D02*
X0090733Y0215243D01*
X0090733Y0214244D02*
X0052985Y0214244D01*
X0052985Y0213246D02*
X0090733Y0213246D01*
X0090733Y0212247D02*
X0052323Y0212247D01*
X0051325Y0211249D02*
X0090733Y0211249D01*
X0090733Y0210250D02*
X0050326Y0210250D01*
X0049328Y0209252D02*
X0090733Y0209252D01*
X0090733Y0208253D02*
X0048329Y0208253D01*
X0046064Y0207255D02*
X0058383Y0207255D01*
X0058633Y0207255D02*
X0059633Y0207255D01*
X0059633Y0207294D02*
X0059633Y0198506D01*
X0064533Y0198506D01*
X0064533Y0202331D01*
X0064400Y0203171D01*
X0064138Y0203979D01*
X0063752Y0204737D01*
X0063252Y0205424D01*
X0062651Y0206025D01*
X0061964Y0206525D01*
X0061206Y0206911D01*
X0060398Y0207173D01*
X0059633Y0207294D01*
X0059884Y0207255D02*
X0090733Y0207255D01*
X0090733Y0206256D02*
X0062333Y0206256D01*
X0063373Y0205258D02*
X0090733Y0205258D01*
X0090733Y0204259D02*
X0063995Y0204259D01*
X0064371Y0203261D02*
X0090733Y0203261D01*
X0090733Y0202262D02*
X0064533Y0202262D01*
X0064533Y0201264D02*
X0090733Y0201264D01*
X0090733Y0200265D02*
X0064533Y0200265D01*
X0064533Y0199267D02*
X0090733Y0199267D01*
X0090733Y0198268D02*
X0059633Y0198268D01*
X0059633Y0199267D02*
X0058633Y0199267D01*
X0058633Y0198506D02*
X0058633Y0207294D01*
X0057869Y0207173D01*
X0057060Y0206911D01*
X0056303Y0206525D01*
X0055615Y0206025D01*
X0055014Y0205424D01*
X0054515Y0204737D01*
X0054129Y0203979D01*
X0053866Y0203171D01*
X0053733Y0202331D01*
X0053733Y0198506D01*
X0058633Y0198506D01*
X0058633Y0198268D02*
X0047933Y0198268D01*
X0047933Y0197270D02*
X0053733Y0197270D01*
X0053733Y0196271D02*
X0047933Y0196271D01*
X0047933Y0195273D02*
X0053733Y0195273D01*
X0053733Y0194274D02*
X0047933Y0194274D01*
X0047933Y0193276D02*
X0053798Y0193276D01*
X0054050Y0192277D02*
X0047868Y0192277D01*
X0047933Y0199267D02*
X0053733Y0199267D01*
X0053733Y0200265D02*
X0047933Y0200265D01*
X0047933Y0201264D02*
X0053733Y0201264D01*
X0053733Y0202262D02*
X0047933Y0202262D01*
X0047933Y0203261D02*
X0053895Y0203261D01*
X0054272Y0204259D02*
X0047651Y0204259D01*
X0047237Y0205258D02*
X0054893Y0205258D01*
X0055933Y0206256D02*
X0046824Y0206256D01*
X0038646Y0211249D02*
X0010233Y0211249D01*
X0010233Y0212247D02*
X0037647Y0212247D01*
X0036985Y0213246D02*
X0010233Y0213246D01*
X0010233Y0214244D02*
X0036985Y0214244D01*
X0036985Y0215243D02*
X0010233Y0215243D01*
X0010233Y0216241D02*
X0036985Y0216241D01*
X0036985Y0217240D02*
X0027368Y0217240D01*
X0027833Y0217402D02*
X0026561Y0216957D01*
X0025247Y0216657D01*
X0023907Y0216506D01*
X0023733Y0216506D01*
X0023733Y0228006D01*
X0022733Y0228006D01*
X0011233Y0228006D01*
X0011233Y0227832D01*
X0011384Y0226493D01*
X0011684Y0225179D01*
X0012129Y0223907D01*
X0012714Y0222693D01*
X0013431Y0221551D01*
X0014272Y0220498D01*
X0015225Y0219544D01*
X0016278Y0218704D01*
X0017420Y0217987D01*
X0018634Y0217402D01*
X0019906Y0216957D01*
X0021220Y0216657D01*
X0022559Y0216506D01*
X0022733Y0216506D01*
X0022733Y0228006D01*
X0022733Y0229006D01*
X0011233Y0229006D01*
X0011233Y0229180D01*
X0011384Y0230520D01*
X0011684Y0231834D01*
X0012129Y0233106D01*
X0012714Y0234320D01*
X0013431Y0235461D01*
X0014272Y0236515D01*
X0015225Y0237468D01*
X0016278Y0238308D01*
X0017420Y0239026D01*
X0018634Y0239610D01*
X0019906Y0240055D01*
X0021220Y0240355D01*
X0022559Y0240506D01*
X0022733Y0240506D01*
X0022733Y0229006D01*
X0023733Y0229006D01*
X0023733Y0240506D01*
X0023907Y0240506D01*
X0025247Y0240355D01*
X0026561Y0240055D01*
X0027833Y0239610D01*
X0029047Y0239026D01*
X0030188Y0238308D01*
X0031242Y0237468D01*
X0032195Y0236515D01*
X0033035Y0235461D01*
X0033753Y0234320D01*
X0034337Y0233106D01*
X0034782Y0231834D01*
X0035082Y0230520D01*
X0035233Y0229180D01*
X0035233Y0229006D01*
X0023733Y0229006D01*
X0023733Y0228006D01*
X0035233Y0228006D01*
X0035233Y0227832D01*
X0035082Y0226493D01*
X0034782Y0225179D01*
X0034337Y0223907D01*
X0033753Y0222693D01*
X0033035Y0221551D01*
X0032195Y0220498D01*
X0031242Y0219544D01*
X0030188Y0218704D01*
X0029047Y0217987D01*
X0027833Y0217402D01*
X0029447Y0218238D02*
X0036985Y0218238D01*
X0036985Y0219237D02*
X0030856Y0219237D01*
X0031933Y0220235D02*
X0037684Y0220235D01*
X0038683Y0221234D02*
X0032782Y0221234D01*
X0033463Y0222232D02*
X0039681Y0222232D01*
X0040680Y0223231D02*
X0034012Y0223231D01*
X0034450Y0224229D02*
X0362016Y0224229D01*
X0362129Y0223907D02*
X0362714Y0222693D01*
X0363431Y0221551D01*
X0364272Y0220498D01*
X0365225Y0219544D01*
X0366278Y0218704D01*
X0367420Y0217987D01*
X0368634Y0217402D01*
X0369906Y0216957D01*
X0371220Y0216657D01*
X0372559Y0216506D01*
X0372733Y0216506D01*
X0372733Y0228006D01*
X0361233Y0228006D01*
X0361233Y0227832D01*
X0361384Y0226493D01*
X0361684Y0225179D01*
X0362129Y0223907D01*
X0362455Y0223231D02*
X0355787Y0223231D01*
X0356785Y0222232D02*
X0363003Y0222232D01*
X0363684Y0221234D02*
X0357784Y0221234D01*
X0358783Y0220235D02*
X0364534Y0220235D01*
X0365610Y0219237D02*
X0359481Y0219237D01*
X0359481Y0218238D02*
X0367020Y0218238D01*
X0369098Y0217240D02*
X0359481Y0217240D01*
X0359481Y0216241D02*
X0386155Y0216241D01*
X0386155Y0215243D02*
X0359481Y0215243D01*
X0359481Y0214244D02*
X0386155Y0214244D01*
X0386155Y0213246D02*
X0359481Y0213246D01*
X0358819Y0212247D02*
X0386155Y0212247D01*
X0386155Y0211249D02*
X0357821Y0211249D01*
X0349902Y0207255D02*
X0339712Y0207255D01*
X0339406Y0207411D02*
X0338598Y0207673D01*
X0337833Y0207794D01*
X0337833Y0199006D01*
X0342733Y0199006D01*
X0342733Y0202831D01*
X0342600Y0203671D01*
X0342338Y0204479D01*
X0341952Y0205237D01*
X0341452Y0205924D01*
X0340851Y0206525D01*
X0340164Y0207025D01*
X0339406Y0207411D01*
X0337833Y0207255D02*
X0336833Y0207255D01*
X0336833Y0207794D02*
X0336069Y0207673D01*
X0335260Y0207411D01*
X0334503Y0207025D01*
X0333815Y0206525D01*
X0333214Y0205924D01*
X0332715Y0205237D01*
X0332329Y0204479D01*
X0332066Y0203671D01*
X0331933Y0202831D01*
X0331933Y0199006D01*
X0336833Y0199006D01*
X0336833Y0207794D01*
X0336833Y0206256D02*
X0337833Y0206256D01*
X0337833Y0205258D02*
X0336833Y0205258D01*
X0336833Y0204259D02*
X0337833Y0204259D01*
X0337833Y0203261D02*
X0336833Y0203261D01*
X0336833Y0202262D02*
X0337833Y0202262D01*
X0337833Y0201264D02*
X0336833Y0201264D01*
X0336833Y0200265D02*
X0337833Y0200265D01*
X0337833Y0199267D02*
X0336833Y0199267D01*
X0336833Y0198268D02*
X0299483Y0198268D01*
X0299483Y0197270D02*
X0331933Y0197270D01*
X0331933Y0196271D02*
X0299483Y0196271D01*
X0299483Y0195273D02*
X0331933Y0195273D01*
X0331933Y0194274D02*
X0299483Y0194274D01*
X0299483Y0193276D02*
X0332088Y0193276D01*
X0332460Y0192277D02*
X0299483Y0192277D01*
X0299483Y0199267D02*
X0331933Y0199267D01*
X0331933Y0200265D02*
X0299483Y0200265D01*
X0299483Y0201264D02*
X0331933Y0201264D01*
X0331933Y0202262D02*
X0299483Y0202262D01*
X0299483Y0203261D02*
X0332001Y0203261D01*
X0332257Y0204259D02*
X0299483Y0204259D01*
X0299483Y0205258D02*
X0332730Y0205258D01*
X0333546Y0206256D02*
X0299483Y0206256D01*
X0299483Y0207255D02*
X0334954Y0207255D01*
X0341120Y0206256D02*
X0349436Y0206256D01*
X0349022Y0205258D02*
X0341936Y0205258D01*
X0342409Y0204259D02*
X0348609Y0204259D01*
X0348533Y0203261D02*
X0342665Y0203261D01*
X0342733Y0202262D02*
X0348533Y0202262D01*
X0348533Y0201264D02*
X0342733Y0201264D01*
X0342733Y0200265D02*
X0348533Y0200265D01*
X0348533Y0199267D02*
X0342733Y0199267D01*
X0342733Y0197270D02*
X0348533Y0197270D01*
X0348533Y0198268D02*
X0337833Y0198268D01*
X0342733Y0196271D02*
X0348533Y0196271D01*
X0348533Y0195273D02*
X0342733Y0195273D01*
X0342733Y0194274D02*
X0348533Y0194274D01*
X0348533Y0193276D02*
X0342579Y0193276D01*
X0342207Y0192277D02*
X0348806Y0192277D01*
X0348137Y0208253D02*
X0299483Y0208253D01*
X0299483Y0209252D02*
X0347139Y0209252D01*
X0346140Y0210250D02*
X0299483Y0210250D01*
X0299483Y0211249D02*
X0345142Y0211249D01*
X0344143Y0212247D02*
X0299483Y0212247D01*
X0299483Y0213246D02*
X0343481Y0213246D01*
X0343481Y0214244D02*
X0299483Y0214244D01*
X0299483Y0215243D02*
X0343481Y0215243D01*
X0343481Y0216241D02*
X0299483Y0216241D01*
X0314985Y0228719D02*
X0317914Y0225790D01*
X0319501Y0225790D01*
X0319501Y0230305D01*
X0320470Y0230305D01*
X0320470Y0231274D01*
X0324985Y0231274D01*
X0324985Y0232861D01*
X0322056Y0235790D01*
X0320470Y0235790D01*
X0320470Y0231274D01*
X0319501Y0231274D01*
X0319501Y0230305D01*
X0314985Y0230305D01*
X0314985Y0228719D01*
X0314985Y0229222D02*
X0081481Y0229222D01*
X0081481Y0228719D02*
X0081481Y0230305D01*
X0076966Y0230305D01*
X0076966Y0225790D01*
X0078552Y0225790D01*
X0081481Y0228719D01*
X0080986Y0228223D02*
X0315481Y0228223D01*
X0316479Y0227225D02*
X0079988Y0227225D01*
X0078989Y0226226D02*
X0317478Y0226226D01*
X0319501Y0226226D02*
X0320470Y0226226D01*
X0320470Y0225790D02*
X0322056Y0225790D01*
X0324985Y0228719D01*
X0324985Y0230305D01*
X0320470Y0230305D01*
X0320470Y0225790D01*
X0320470Y0227225D02*
X0319501Y0227225D01*
X0319501Y0228223D02*
X0320470Y0228223D01*
X0320470Y0229222D02*
X0319501Y0229222D01*
X0319501Y0230220D02*
X0320470Y0230220D01*
X0320470Y0231219D02*
X0361544Y0231219D01*
X0361684Y0231834D02*
X0361384Y0230520D01*
X0361233Y0229180D01*
X0361233Y0229006D01*
X0372733Y0229006D01*
X0372733Y0228006D01*
X0373733Y0228006D01*
X0373733Y0216506D01*
X0373907Y0216506D01*
X0375247Y0216657D01*
X0376561Y0216957D01*
X0377833Y0217402D01*
X0379047Y0217987D01*
X0380188Y0218704D01*
X0381242Y0219544D01*
X0382195Y0220498D01*
X0383035Y0221551D01*
X0383753Y0222693D01*
X0384337Y0223907D01*
X0384782Y0225179D01*
X0385082Y0226493D01*
X0385233Y0227832D01*
X0385233Y0228006D01*
X0373733Y0228006D01*
X0373733Y0229006D01*
X0372733Y0229006D01*
X0372733Y0240506D01*
X0372559Y0240506D01*
X0371220Y0240355D01*
X0369906Y0240055D01*
X0368634Y0239610D01*
X0367420Y0239026D01*
X0366278Y0238308D01*
X0365225Y0237468D01*
X0364272Y0236515D01*
X0363431Y0235461D01*
X0362714Y0234320D01*
X0362129Y0233106D01*
X0361684Y0231834D01*
X0361819Y0232217D02*
X0324985Y0232217D01*
X0324630Y0233216D02*
X0362182Y0233216D01*
X0362663Y0234215D02*
X0323632Y0234215D01*
X0322633Y0235213D02*
X0363275Y0235213D01*
X0364029Y0236212D02*
X0032437Y0236212D01*
X0033191Y0235213D02*
X0073834Y0235213D01*
X0074410Y0235790D02*
X0071481Y0232861D01*
X0071481Y0231274D01*
X0075997Y0231274D01*
X0075997Y0230305D01*
X0076966Y0230305D01*
X0076966Y0231274D01*
X0081481Y0231274D01*
X0081481Y0232861D01*
X0078552Y0235790D01*
X0076966Y0235790D01*
X0076966Y0231274D01*
X0075997Y0231274D01*
X0075997Y0235790D01*
X0074410Y0235790D01*
X0075997Y0235213D02*
X0076966Y0235213D01*
X0076966Y0234215D02*
X0075997Y0234215D01*
X0075997Y0233216D02*
X0076966Y0233216D01*
X0076966Y0232217D02*
X0075997Y0232217D01*
X0075997Y0231219D02*
X0034923Y0231219D01*
X0035116Y0230220D02*
X0071481Y0230220D01*
X0071481Y0230305D02*
X0071481Y0228719D01*
X0074410Y0225790D01*
X0075997Y0225790D01*
X0075997Y0230305D01*
X0071481Y0230305D01*
X0071481Y0229222D02*
X0035229Y0229222D01*
X0035165Y0227225D02*
X0072975Y0227225D01*
X0071977Y0228223D02*
X0023733Y0228223D01*
X0023733Y0227225D02*
X0022733Y0227225D01*
X0022733Y0228223D02*
X0010233Y0228223D01*
X0010233Y0227225D02*
X0011302Y0227225D01*
X0011445Y0226226D02*
X0010233Y0226226D01*
X0010233Y0225228D02*
X0011673Y0225228D01*
X0012016Y0224229D02*
X0010233Y0224229D01*
X0010233Y0223231D02*
X0012455Y0223231D01*
X0013003Y0222232D02*
X0010233Y0222232D01*
X0010233Y0221234D02*
X0013684Y0221234D01*
X0014534Y0220235D02*
X0010233Y0220235D01*
X0010233Y0219237D02*
X0015610Y0219237D01*
X0017020Y0218238D02*
X0010233Y0218238D01*
X0010233Y0217240D02*
X0019098Y0217240D01*
X0022733Y0217240D02*
X0023733Y0217240D01*
X0023733Y0218238D02*
X0022733Y0218238D01*
X0022733Y0219237D02*
X0023733Y0219237D01*
X0023733Y0220235D02*
X0022733Y0220235D01*
X0022733Y0221234D02*
X0023733Y0221234D01*
X0023733Y0222232D02*
X0022733Y0222232D01*
X0022733Y0223231D02*
X0023733Y0223231D01*
X0023733Y0224229D02*
X0022733Y0224229D01*
X0022733Y0225228D02*
X0023733Y0225228D01*
X0023733Y0226226D02*
X0022733Y0226226D01*
X0022733Y0229222D02*
X0023733Y0229222D01*
X0023733Y0230220D02*
X0022733Y0230220D01*
X0022733Y0231219D02*
X0023733Y0231219D01*
X0023733Y0232217D02*
X0022733Y0232217D01*
X0022733Y0233216D02*
X0023733Y0233216D01*
X0023733Y0234215D02*
X0022733Y0234215D01*
X0022733Y0235213D02*
X0023733Y0235213D01*
X0023733Y0236212D02*
X0022733Y0236212D01*
X0022733Y0237210D02*
X0023733Y0237210D01*
X0023733Y0238209D02*
X0022733Y0238209D01*
X0022733Y0239207D02*
X0023733Y0239207D01*
X0023733Y0240206D02*
X0022733Y0240206D01*
X0020564Y0240206D02*
X0010233Y0240206D01*
X0010233Y0241204D02*
X0386155Y0241204D01*
X0386155Y0240206D02*
X0375903Y0240206D01*
X0375247Y0240355D02*
X0373907Y0240506D01*
X0373733Y0240506D01*
X0373733Y0229006D01*
X0385233Y0229006D01*
X0385233Y0229180D01*
X0385082Y0230520D01*
X0384782Y0231834D01*
X0384337Y0233106D01*
X0383753Y0234320D01*
X0383035Y0235461D01*
X0382195Y0236515D01*
X0381242Y0237468D01*
X0380188Y0238308D01*
X0379047Y0239026D01*
X0377833Y0239610D01*
X0376561Y0240055D01*
X0375247Y0240355D01*
X0373733Y0240206D02*
X0372733Y0240206D01*
X0372733Y0239207D02*
X0373733Y0239207D01*
X0373733Y0238209D02*
X0372733Y0238209D01*
X0372733Y0237210D02*
X0373733Y0237210D01*
X0373733Y0236212D02*
X0372733Y0236212D01*
X0372733Y0235213D02*
X0373733Y0235213D01*
X0373733Y0234215D02*
X0372733Y0234215D01*
X0372733Y0233216D02*
X0373733Y0233216D01*
X0373733Y0232217D02*
X0372733Y0232217D01*
X0372733Y0231219D02*
X0373733Y0231219D01*
X0373733Y0230220D02*
X0372733Y0230220D01*
X0372733Y0229222D02*
X0373733Y0229222D01*
X0373733Y0228223D02*
X0386155Y0228223D01*
X0386155Y0227225D02*
X0385165Y0227225D01*
X0385022Y0226226D02*
X0386155Y0226226D01*
X0386155Y0225228D02*
X0384794Y0225228D01*
X0384450Y0224229D02*
X0386155Y0224229D01*
X0386155Y0223231D02*
X0384012Y0223231D01*
X0383463Y0222232D02*
X0386155Y0222232D01*
X0386155Y0221234D02*
X0382782Y0221234D01*
X0381933Y0220235D02*
X0386155Y0220235D01*
X0386155Y0219237D02*
X0380856Y0219237D01*
X0379447Y0218238D02*
X0386155Y0218238D01*
X0386155Y0217240D02*
X0377368Y0217240D01*
X0373733Y0217240D02*
X0372733Y0217240D01*
X0372733Y0218238D02*
X0373733Y0218238D01*
X0373733Y0219237D02*
X0372733Y0219237D01*
X0372733Y0220235D02*
X0373733Y0220235D01*
X0373733Y0221234D02*
X0372733Y0221234D01*
X0372733Y0222232D02*
X0373733Y0222232D01*
X0373733Y0223231D02*
X0372733Y0223231D01*
X0372733Y0224229D02*
X0373733Y0224229D01*
X0373733Y0225228D02*
X0372733Y0225228D01*
X0372733Y0226226D02*
X0373733Y0226226D01*
X0373733Y0227225D02*
X0372733Y0227225D01*
X0372733Y0228223D02*
X0324490Y0228223D01*
X0324985Y0229222D02*
X0361238Y0229222D01*
X0361351Y0230220D02*
X0324985Y0230220D01*
X0323492Y0227225D02*
X0361302Y0227225D01*
X0361445Y0226226D02*
X0322493Y0226226D01*
X0319501Y0231219D02*
X0076966Y0231219D01*
X0076966Y0230220D02*
X0075997Y0230220D01*
X0075997Y0229222D02*
X0076966Y0229222D01*
X0076966Y0228223D02*
X0075997Y0228223D01*
X0075997Y0227225D02*
X0076966Y0227225D01*
X0076966Y0226226D02*
X0075997Y0226226D01*
X0073974Y0226226D02*
X0035022Y0226226D01*
X0034794Y0225228D02*
X0361673Y0225228D01*
X0347176Y0223231D02*
X0049291Y0223231D01*
X0050289Y0222232D02*
X0346177Y0222232D01*
X0345179Y0221234D02*
X0051288Y0221234D01*
X0052286Y0220235D02*
X0344180Y0220235D01*
X0343481Y0219237D02*
X0052985Y0219237D01*
X0037727Y0210250D02*
X0021639Y0210250D01*
X0024050Y0209252D02*
X0035317Y0209252D01*
X0034001Y0208253D02*
X0025366Y0208253D01*
X0026364Y0207255D02*
X0033002Y0207255D01*
X0032243Y0206256D02*
X0027124Y0206256D01*
X0027537Y0205258D02*
X0031829Y0205258D01*
X0031416Y0204259D02*
X0027951Y0204259D01*
X0028233Y0203261D02*
X0031133Y0203261D01*
X0031133Y0202262D02*
X0028233Y0202262D01*
X0028233Y0201264D02*
X0031133Y0201264D01*
X0031133Y0200265D02*
X0028233Y0200265D01*
X0028233Y0199267D02*
X0031133Y0199267D01*
X0031133Y0198268D02*
X0028233Y0198268D01*
X0028233Y0197270D02*
X0031133Y0197270D01*
X0031133Y0196271D02*
X0028233Y0196271D01*
X0028233Y0195273D02*
X0031133Y0195273D01*
X0031133Y0194274D02*
X0028233Y0194274D01*
X0028233Y0193276D02*
X0031133Y0193276D01*
X0031199Y0192277D02*
X0028168Y0192277D01*
X0027754Y0191279D02*
X0031613Y0191279D01*
X0031733Y0190280D02*
X0027341Y0190280D01*
X0026888Y0189282D02*
X0031733Y0189282D01*
X0031733Y0188283D02*
X0025889Y0188283D01*
X0024891Y0187284D02*
X0031733Y0187284D01*
X0031733Y0186286D02*
X0022904Y0186286D01*
X0030733Y0186286D01*
X0030733Y0185287D02*
X0010233Y0185287D01*
X0031733Y0185287D01*
X0031733Y0184289D02*
X0010233Y0184289D01*
X0030733Y0184289D01*
X0030733Y0183290D02*
X0010233Y0183290D01*
X0031733Y0183290D01*
X0031733Y0182292D02*
X0010233Y0182292D01*
X0030733Y0182292D01*
X0030733Y0181293D02*
X0010233Y0181293D01*
X0031733Y0181293D01*
X0031733Y0180295D02*
X0022739Y0180295D01*
X0030733Y0180295D01*
X0030733Y0179296D02*
X0024823Y0179296D01*
X0031733Y0179296D01*
X0031733Y0178298D02*
X0025821Y0178298D01*
X0030733Y0178298D01*
X0030733Y0177299D02*
X0026820Y0177299D01*
X0031733Y0177299D01*
X0031733Y0176301D02*
X0027312Y0176301D01*
X0030733Y0176301D01*
X0030733Y0175302D02*
X0027726Y0175302D01*
X0031641Y0175302D01*
X0031227Y0174304D02*
X0028139Y0174304D01*
X0030733Y0174304D01*
X0030733Y0173305D02*
X0028233Y0173305D01*
X0031133Y0173305D01*
X0031133Y0172307D02*
X0028233Y0172307D01*
X0030733Y0172307D01*
X0030733Y0171308D02*
X0028233Y0171308D01*
X0031133Y0171308D01*
X0031133Y0170310D02*
X0028233Y0170310D01*
X0030733Y0170310D01*
X0030733Y0169311D02*
X0028233Y0169311D01*
X0031133Y0169311D01*
X0031133Y0168313D02*
X0028233Y0168313D01*
X0030733Y0168313D01*
X0030733Y0167314D02*
X0028233Y0167314D01*
X0031133Y0167314D01*
X0031133Y0166316D02*
X0028233Y0166316D01*
X0030733Y0166316D01*
X0030733Y0165317D02*
X0028233Y0165317D01*
X0031133Y0165317D01*
X0031133Y0164319D02*
X0028233Y0164319D01*
X0030733Y0164319D01*
X0030733Y0163320D02*
X0028233Y0163320D01*
X0031133Y0163320D01*
X0031388Y0162322D02*
X0027979Y0162322D01*
X0030733Y0162322D01*
X0031666Y0161323D02*
X0027566Y0161323D01*
X0031801Y0161323D01*
X0032215Y0160325D02*
X0027152Y0160325D01*
X0032215Y0160325D01*
X0032934Y0159326D02*
X0026433Y0159326D01*
X0032934Y0159326D01*
X0033933Y0158328D02*
X0025434Y0158328D01*
X0033933Y0158328D01*
X0035152Y0157329D02*
X0024215Y0157329D01*
X0035152Y0157329D01*
X0036659Y0156331D02*
X0021804Y0156331D01*
X0037562Y0156331D01*
X0041504Y0156331D02*
X0090733Y0156331D01*
X0090733Y0157329D02*
X0043915Y0157329D01*
X0045134Y0158328D02*
X0090733Y0158328D01*
X0090733Y0159326D02*
X0060315Y0159326D01*
X0059633Y0159326D02*
X0058633Y0159326D01*
X0057951Y0159326D02*
X0046133Y0159326D01*
X0046852Y0160325D02*
X0055839Y0160325D01*
X0054844Y0161323D02*
X0047266Y0161323D01*
X0047679Y0162322D02*
X0054237Y0162322D01*
X0053873Y0163320D02*
X0047933Y0163320D01*
X0047933Y0164319D02*
X0053733Y0164319D01*
X0053733Y0165317D02*
X0047933Y0165317D01*
X0047933Y0166316D02*
X0053733Y0166316D01*
X0053733Y0167314D02*
X0047933Y0167314D01*
X0047933Y0168313D02*
X0058633Y0168313D01*
X0058633Y0167314D02*
X0059633Y0167314D01*
X0059633Y0166316D02*
X0058633Y0166316D01*
X0058633Y0165317D02*
X0059633Y0165317D01*
X0059633Y0164319D02*
X0058633Y0164319D01*
X0058633Y0163320D02*
X0059633Y0163320D01*
X0059633Y0162322D02*
X0058633Y0162322D01*
X0058633Y0161323D02*
X0059633Y0161323D01*
X0059633Y0160325D02*
X0058633Y0160325D01*
X0062427Y0160325D02*
X0090733Y0160325D01*
X0090733Y0161323D02*
X0063423Y0161323D01*
X0064030Y0162322D02*
X0090733Y0162322D01*
X0090733Y0163320D02*
X0064393Y0163320D01*
X0064533Y0164319D02*
X0090733Y0164319D01*
X0090733Y0165317D02*
X0064533Y0165317D01*
X0064533Y0166316D02*
X0090733Y0166316D01*
X0090733Y0167314D02*
X0064533Y0167314D01*
X0064533Y0169311D02*
X0090733Y0169311D01*
X0090733Y0168313D02*
X0059633Y0168313D01*
X0064533Y0170310D02*
X0090733Y0170310D01*
X0090733Y0171308D02*
X0064533Y0171308D01*
X0064533Y0172307D02*
X0090733Y0172307D01*
X0090733Y0173305D02*
X0064458Y0173305D01*
X0064195Y0174304D02*
X0090733Y0174304D01*
X0090733Y0175302D02*
X0063704Y0175302D01*
X0054563Y0175302D02*
X0047426Y0175302D01*
X0047839Y0174304D02*
X0054072Y0174304D01*
X0053808Y0173305D02*
X0047933Y0173305D01*
X0047933Y0172307D02*
X0053733Y0172307D01*
X0053733Y0171308D02*
X0047933Y0171308D01*
X0047933Y0170310D02*
X0053733Y0170310D01*
X0053733Y0169311D02*
X0047933Y0169311D01*
X0028233Y0174077D02*
X0028233Y0162935D01*
X0026954Y0159848D01*
X0024592Y0157485D01*
X0021504Y0156206D01*
X0018162Y0156206D01*
X0015075Y0157485D01*
X0012712Y0159848D01*
X0011433Y0162935D01*
X0011433Y0174077D01*
X0012712Y0177165D01*
X0015075Y0179527D01*
X0018162Y0180806D01*
X0021504Y0180806D01*
X0024592Y0179527D01*
X0026954Y0177165D01*
X0028233Y0174077D01*
X0026954Y0177165D01*
X0024592Y0179527D01*
X0021504Y0180806D01*
X0018162Y0180806D01*
X0015075Y0179527D01*
X0012712Y0177165D01*
X0011433Y0174077D01*
X0011433Y0162935D01*
X0012712Y0159848D01*
X0015075Y0157485D01*
X0018162Y0156206D01*
X0021504Y0156206D01*
X0024592Y0157485D01*
X0026954Y0159848D01*
X0028233Y0162935D01*
X0028233Y0174077D01*
X0016928Y0180295D02*
X0010233Y0180295D01*
X0016928Y0180295D01*
X0014844Y0179296D02*
X0010233Y0179296D01*
X0014844Y0179296D01*
X0013846Y0178298D02*
X0010233Y0178298D01*
X0013846Y0178298D01*
X0012847Y0177299D02*
X0010233Y0177299D01*
X0012847Y0177299D01*
X0012354Y0176301D02*
X0010233Y0176301D01*
X0012354Y0176301D01*
X0011941Y0175302D02*
X0010233Y0175302D01*
X0011941Y0175302D01*
X0011527Y0174304D02*
X0010233Y0174304D01*
X0011527Y0174304D01*
X0011433Y0173305D02*
X0010233Y0173305D01*
X0011433Y0173305D01*
X0011433Y0172307D02*
X0010233Y0172307D01*
X0011433Y0172307D01*
X0011433Y0171308D02*
X0010233Y0171308D01*
X0011433Y0171308D01*
X0011433Y0170310D02*
X0010233Y0170310D01*
X0011433Y0170310D01*
X0011433Y0169311D02*
X0010233Y0169311D01*
X0011433Y0169311D01*
X0011433Y0168313D02*
X0010233Y0168313D01*
X0011433Y0168313D01*
X0011433Y0167314D02*
X0010233Y0167314D01*
X0011433Y0167314D01*
X0011433Y0166316D02*
X0010233Y0166316D01*
X0011433Y0166316D01*
X0011433Y0165317D02*
X0010233Y0165317D01*
X0011433Y0165317D01*
X0011433Y0164319D02*
X0010233Y0164319D01*
X0011433Y0164319D01*
X0011433Y0163320D02*
X0010233Y0163320D01*
X0011433Y0163320D01*
X0011688Y0162322D02*
X0010233Y0162322D01*
X0011688Y0162322D01*
X0012101Y0161323D02*
X0010233Y0161323D01*
X0012101Y0161323D01*
X0012515Y0160325D02*
X0010233Y0160325D01*
X0012515Y0160325D01*
X0013234Y0159326D02*
X0010233Y0159326D01*
X0013234Y0159326D01*
X0014233Y0158328D02*
X0010233Y0158328D01*
X0014233Y0158328D01*
X0015452Y0157329D02*
X0010233Y0157329D01*
X0015452Y0157329D01*
X0017862Y0156331D02*
X0010233Y0156331D01*
X0017862Y0156331D01*
X0022718Y0152337D02*
X0010233Y0152337D01*
X0022718Y0152337D01*
X0021720Y0151338D02*
X0010233Y0151338D01*
X0010233Y0150340D02*
X0020721Y0150340D01*
X0019723Y0149341D02*
X0010233Y0149341D01*
X0010233Y0148343D02*
X0019485Y0148343D01*
X0019485Y0149103D02*
X0019485Y0142476D01*
X0024172Y0137790D01*
X0030799Y0137790D01*
X0035485Y0142476D01*
X0035485Y0149103D01*
X0030799Y0153790D01*
X0024172Y0153790D01*
X0019485Y0149103D01*
X0019485Y0147344D02*
X0010233Y0147344D01*
X0010233Y0146346D02*
X0019485Y0146346D01*
X0019485Y0145347D02*
X0010233Y0145347D01*
X0010233Y0144348D02*
X0019485Y0144348D01*
X0019485Y0143350D02*
X0010233Y0143350D01*
X0010233Y0142351D02*
X0019610Y0142351D01*
X0020608Y0141353D02*
X0010233Y0141353D01*
X0010233Y0140354D02*
X0021607Y0140354D01*
X0022605Y0139356D02*
X0010233Y0139356D01*
X0010233Y0138357D02*
X0023604Y0138357D01*
X0031367Y0138357D02*
X0052681Y0138357D01*
X0051682Y0137359D02*
X0010233Y0137359D01*
X0010233Y0136360D02*
X0050827Y0136360D01*
X0050089Y0135362D02*
X0010233Y0135362D01*
X0010233Y0134363D02*
X0049483Y0134363D01*
X0049483Y0133365D02*
X0010233Y0133365D01*
X0010233Y0132366D02*
X0049481Y0132366D01*
X0049481Y0131368D02*
X0010233Y0131368D01*
X0010233Y0130369D02*
X0049481Y0130369D01*
X0049481Y0129371D02*
X0010233Y0129371D01*
X0010233Y0128372D02*
X0049483Y0128372D01*
X0049483Y0127374D02*
X0010233Y0127374D01*
X0010233Y0126375D02*
X0036674Y0126375D01*
X0034263Y0125377D02*
X0010233Y0125377D01*
X0010233Y0124378D02*
X0015922Y0124378D01*
X0015075Y0124027D02*
X0012712Y0121665D01*
X0011433Y0118577D01*
X0011433Y0107435D01*
X0012712Y0104348D01*
X0015075Y0101985D01*
X0018162Y0100706D01*
X0021504Y0100706D01*
X0024592Y0101985D01*
X0026954Y0104348D01*
X0028233Y0107435D01*
X0028233Y0118577D01*
X0026954Y0121665D01*
X0024592Y0124027D01*
X0021504Y0125306D01*
X0018162Y0125306D01*
X0015075Y0124027D01*
X0014427Y0123380D02*
X0010233Y0123380D01*
X0010233Y0122381D02*
X0013429Y0122381D01*
X0012595Y0121383D02*
X0010233Y0121383D01*
X0010233Y0120384D02*
X0012182Y0120384D01*
X0011768Y0119386D02*
X0010233Y0119386D01*
X0010233Y0118387D02*
X0011433Y0118387D01*
X0011433Y0117389D02*
X0010233Y0117389D01*
X0010233Y0116390D02*
X0011433Y0116390D01*
X0011433Y0115392D02*
X0010233Y0115392D01*
X0010233Y0114393D02*
X0011433Y0114393D01*
X0011433Y0113395D02*
X0010233Y0113395D01*
X0010233Y0112396D02*
X0011433Y0112396D01*
X0011433Y0111398D02*
X0010233Y0111398D01*
X0010233Y0110399D02*
X0011433Y0110399D01*
X0011433Y0109401D02*
X0010233Y0109401D01*
X0010233Y0108402D02*
X0011433Y0108402D01*
X0011447Y0107404D02*
X0010233Y0107404D01*
X0010233Y0106405D02*
X0011860Y0106405D01*
X0012274Y0105407D02*
X0010233Y0105407D01*
X0010233Y0104408D02*
X0012687Y0104408D01*
X0013651Y0103410D02*
X0010233Y0103410D01*
X0010233Y0102411D02*
X0014649Y0102411D01*
X0016458Y0101413D02*
X0010233Y0101413D01*
X0010233Y0100414D02*
X0029983Y0100414D01*
X0029983Y0101413D02*
X0023209Y0101413D01*
X0025017Y0102411D02*
X0029983Y0102411D01*
X0029983Y0103410D02*
X0026016Y0103410D01*
X0026979Y0104408D02*
X0029983Y0104408D01*
X0029983Y0105407D02*
X0027393Y0105407D01*
X0027807Y0106405D02*
X0029983Y0106405D01*
X0029983Y0107404D02*
X0028220Y0107404D01*
X0028233Y0108402D02*
X0029983Y0108402D01*
X0029983Y0109401D02*
X0028233Y0109401D01*
X0028233Y0110399D02*
X0029983Y0110399D01*
X0029983Y0111398D02*
X0028233Y0111398D01*
X0028233Y0112396D02*
X0029983Y0112396D01*
X0029983Y0113395D02*
X0028233Y0113395D01*
X0028233Y0114393D02*
X0029983Y0114393D01*
X0029983Y0115392D02*
X0028233Y0115392D01*
X0028233Y0116390D02*
X0029983Y0116390D01*
X0029983Y0117389D02*
X0028233Y0117389D01*
X0028233Y0118387D02*
X0029983Y0118387D01*
X0030083Y0119386D02*
X0027898Y0119386D01*
X0027485Y0120384D02*
X0030496Y0120384D01*
X0030910Y0121383D02*
X0027071Y0121383D01*
X0026238Y0122381D02*
X0031323Y0122381D01*
X0032172Y0123380D02*
X0025239Y0123380D01*
X0023745Y0124378D02*
X0033170Y0124378D01*
X0042293Y0126375D02*
X0049483Y0126375D01*
X0059483Y0112656D02*
X0056983Y0102256D01*
X0061983Y0098506D01*
X0056983Y0094756D01*
X0069483Y0094423D02*
X0090733Y0094423D01*
X0090733Y0095421D02*
X0069483Y0095421D01*
X0069483Y0096420D02*
X0090733Y0096420D01*
X0090733Y0097418D02*
X0069483Y0097418D01*
X0069483Y0098417D02*
X0090733Y0098417D01*
X0090733Y0099415D02*
X0069483Y0099415D01*
X0069483Y0100414D02*
X0090733Y0100414D01*
X0090733Y0101413D02*
X0069483Y0101413D01*
X0069483Y0102411D02*
X0090733Y0102411D01*
X0090733Y0103410D02*
X0069483Y0103410D01*
X0069483Y0104408D02*
X0090733Y0104408D01*
X0090733Y0105407D02*
X0069483Y0105407D01*
X0069483Y0106405D02*
X0090733Y0106405D01*
X0090733Y0107404D02*
X0069483Y0107404D01*
X0069483Y0108402D02*
X0090733Y0108402D01*
X0090733Y0109401D02*
X0069483Y0109401D01*
X0069483Y0110399D02*
X0090733Y0110399D01*
X0090733Y0111398D02*
X0069483Y0111398D01*
X0069483Y0112396D02*
X0090733Y0112396D01*
X0090733Y0113395D02*
X0069483Y0113395D01*
X0069483Y0114393D02*
X0090733Y0114393D01*
X0090733Y0115392D02*
X0069483Y0115392D01*
X0069483Y0116390D02*
X0090733Y0116390D01*
X0090733Y0117389D02*
X0069483Y0117389D01*
X0069483Y0118387D02*
X0090733Y0118387D01*
X0090733Y0119386D02*
X0069483Y0119386D01*
X0069483Y0120384D02*
X0090733Y0120384D01*
X0090733Y0121383D02*
X0069483Y0121383D01*
X0069483Y0122381D02*
X0090733Y0122381D01*
X0090733Y0123380D02*
X0069483Y0123380D01*
X0069483Y0124378D02*
X0090733Y0124378D01*
X0090733Y0125377D02*
X0069483Y0125377D01*
X0069483Y0126375D02*
X0090733Y0126375D01*
X0090733Y0127374D02*
X0069483Y0127374D01*
X0069483Y0128372D02*
X0090733Y0128372D01*
X0090733Y0129371D02*
X0069483Y0129371D01*
X0069483Y0130369D02*
X0090733Y0130369D01*
X0090733Y0131368D02*
X0069483Y0131368D01*
X0069483Y0132366D02*
X0090733Y0132366D01*
X0090733Y0133365D02*
X0069483Y0133365D01*
X0069483Y0134363D02*
X0090733Y0134363D01*
X0090733Y0135362D02*
X0068878Y0135362D01*
X0067879Y0136360D02*
X0090733Y0136360D01*
X0090167Y0137359D02*
X0066881Y0137359D01*
X0065882Y0138357D02*
X0089364Y0138357D01*
X0089322Y0139356D02*
X0064884Y0139356D01*
X0061760Y0140354D02*
X0089322Y0140354D01*
X0089322Y0141353D02*
X0034362Y0141353D01*
X0033364Y0140354D02*
X0056202Y0140354D01*
X0053792Y0139356D02*
X0032365Y0139356D01*
X0035361Y0142351D02*
X0090733Y0142351D01*
X0089322Y0143350D02*
X0035485Y0143350D01*
X0035485Y0144348D02*
X0089322Y0144348D01*
X0089322Y0145347D02*
X0035485Y0145347D01*
X0035485Y0146346D02*
X0089415Y0146346D01*
X0090733Y0147344D02*
X0035485Y0147344D01*
X0035485Y0148343D02*
X0090733Y0148343D01*
X0090733Y0149341D02*
X0035248Y0149341D01*
X0034249Y0150340D02*
X0090733Y0150340D01*
X0090733Y0151338D02*
X0033251Y0151338D01*
X0032252Y0152337D02*
X0090733Y0152337D01*
X0032252Y0152337D01*
X0031254Y0153335D02*
X0090733Y0153335D01*
X0031254Y0153335D01*
X0023717Y0153335D02*
X0010233Y0153335D01*
X0023717Y0153335D01*
X0010233Y0154334D02*
X0090733Y0154334D01*
X0010233Y0154334D01*
X0010233Y0155332D02*
X0090733Y0155332D01*
X0010233Y0155332D01*
X0010233Y0186286D02*
X0016763Y0186286D01*
X0010233Y0186286D01*
X0010233Y0187284D02*
X0014776Y0187284D01*
X0013777Y0188283D02*
X0010233Y0188283D01*
X0010233Y0189282D02*
X0012779Y0189282D01*
X0012326Y0190280D02*
X0010233Y0190280D01*
X0010233Y0191279D02*
X0011913Y0191279D01*
X0011499Y0192277D02*
X0010233Y0192277D01*
X0010233Y0193276D02*
X0011433Y0193276D01*
X0011433Y0194274D02*
X0010233Y0194274D01*
X0010233Y0195273D02*
X0011433Y0195273D01*
X0011433Y0196271D02*
X0010233Y0196271D01*
X0010233Y0197270D02*
X0011433Y0197270D01*
X0011433Y0198268D02*
X0010233Y0198268D01*
X0010233Y0199267D02*
X0011433Y0199267D01*
X0011433Y0200265D02*
X0010233Y0200265D01*
X0010233Y0201264D02*
X0011433Y0201264D01*
X0011433Y0202262D02*
X0010233Y0202262D01*
X0010233Y0203261D02*
X0011433Y0203261D01*
X0011716Y0204259D02*
X0010233Y0204259D01*
X0010233Y0205258D02*
X0012129Y0205258D01*
X0012543Y0206256D02*
X0010233Y0206256D01*
X0010233Y0207255D02*
X0013302Y0207255D01*
X0014301Y0208253D02*
X0010233Y0208253D01*
X0010233Y0209252D02*
X0015617Y0209252D01*
X0018027Y0210250D02*
X0010233Y0210250D01*
X0010233Y0229222D02*
X0011238Y0229222D01*
X0011351Y0230220D02*
X0010233Y0230220D01*
X0010233Y0231219D02*
X0011544Y0231219D01*
X0011819Y0232217D02*
X0010233Y0232217D01*
X0010233Y0233216D02*
X0012182Y0233216D01*
X0012663Y0234215D02*
X0010233Y0234215D01*
X0010233Y0235213D02*
X0013275Y0235213D01*
X0014029Y0236212D02*
X0010233Y0236212D01*
X0010233Y0237210D02*
X0014967Y0237210D01*
X0016153Y0238209D02*
X0010233Y0238209D01*
X0010233Y0239207D02*
X0017797Y0239207D01*
X0010233Y0242203D02*
X0386155Y0242203D01*
X0386155Y0239207D02*
X0378670Y0239207D01*
X0380314Y0238209D02*
X0386155Y0238209D01*
X0386155Y0237210D02*
X0381500Y0237210D01*
X0382437Y0236212D02*
X0386155Y0236212D01*
X0386155Y0235213D02*
X0383191Y0235213D01*
X0383803Y0234215D02*
X0386155Y0234215D01*
X0386155Y0233216D02*
X0384284Y0233216D01*
X0384648Y0232217D02*
X0386155Y0232217D01*
X0386155Y0231219D02*
X0384923Y0231219D01*
X0385116Y0230220D02*
X0386155Y0230220D01*
X0386155Y0229222D02*
X0385229Y0229222D01*
X0370564Y0240206D02*
X0025903Y0240206D01*
X0028670Y0239207D02*
X0367797Y0239207D01*
X0366153Y0238209D02*
X0030314Y0238209D01*
X0031500Y0237210D02*
X0364967Y0237210D01*
X0320470Y0235213D02*
X0319501Y0235213D01*
X0319501Y0235790D02*
X0317914Y0235790D01*
X0314985Y0232861D01*
X0314985Y0231274D01*
X0319501Y0231274D01*
X0319501Y0235790D01*
X0319501Y0234215D02*
X0320470Y0234215D01*
X0320470Y0233216D02*
X0319501Y0233216D01*
X0319501Y0232217D02*
X0320470Y0232217D01*
X0317338Y0235213D02*
X0079129Y0235213D01*
X0080128Y0234215D02*
X0316339Y0234215D01*
X0315340Y0233216D02*
X0081126Y0233216D01*
X0081481Y0232217D02*
X0314985Y0232217D01*
X0314985Y0230220D02*
X0081481Y0230220D01*
X0072835Y0234215D02*
X0033803Y0234215D01*
X0034284Y0233216D02*
X0071837Y0233216D01*
X0071481Y0232217D02*
X0034648Y0232217D01*
X0058633Y0206256D02*
X0059633Y0206256D01*
X0059633Y0205258D02*
X0058633Y0205258D01*
X0058633Y0204259D02*
X0059633Y0204259D01*
X0059633Y0203261D02*
X0058633Y0203261D01*
X0058633Y0202262D02*
X0059633Y0202262D01*
X0059633Y0201264D02*
X0058633Y0201264D01*
X0058633Y0200265D02*
X0059633Y0200265D01*
X0064533Y0197270D02*
X0090733Y0197270D01*
X0090733Y0196271D02*
X0064533Y0196271D01*
X0064533Y0195273D02*
X0090733Y0195273D01*
X0090733Y0194274D02*
X0064533Y0194274D01*
X0064469Y0193276D02*
X0090733Y0193276D01*
X0090733Y0192277D02*
X0064217Y0192277D01*
X0134483Y0157256D02*
X0136181Y0157256D01*
X0135990Y0157065D01*
X0135792Y0156723D01*
X0135690Y0156342D01*
X0135690Y0153494D01*
X0140233Y0153494D01*
X0140233Y0152495D01*
X0135690Y0152495D01*
X0135690Y0149647D01*
X0135792Y0149266D01*
X0135990Y0148924D01*
X0136269Y0148645D01*
X0136611Y0148447D01*
X0136993Y0148345D01*
X0140233Y0148345D01*
X0140233Y0152494D01*
X0141233Y0152494D01*
X0141233Y0148345D01*
X0144474Y0148345D01*
X0144856Y0148447D01*
X0145198Y0148645D01*
X0145477Y0148924D01*
X0145674Y0149266D01*
X0145777Y0149647D01*
X0145777Y0152495D01*
X0141233Y0152495D01*
X0141233Y0153494D01*
X0145777Y0153494D01*
X0145777Y0156342D01*
X0145674Y0156723D01*
X0145477Y0157065D01*
X0145286Y0157256D01*
X0166181Y0157256D01*
X0165990Y0157065D01*
X0165792Y0156723D01*
X0165690Y0156342D01*
X0165690Y0153494D01*
X0170233Y0153494D01*
X0170233Y0152495D01*
X0165690Y0152495D01*
X0165690Y0149647D01*
X0165792Y0149266D01*
X0165990Y0148924D01*
X0166269Y0148645D01*
X0166611Y0148447D01*
X0166993Y0148345D01*
X0170233Y0148345D01*
X0170233Y0152494D01*
X0171233Y0152494D01*
X0171233Y0148345D01*
X0174474Y0148345D01*
X0174856Y0148447D01*
X0175198Y0148645D01*
X0175477Y0148924D01*
X0175674Y0149266D01*
X0175733Y0149486D01*
X0175792Y0149266D01*
X0175990Y0148924D01*
X0176269Y0148645D01*
X0176611Y0148447D01*
X0176993Y0148345D01*
X0180233Y0148345D01*
X0180233Y0152494D01*
X0181233Y0152494D01*
X0181233Y0148345D01*
X0184474Y0148345D01*
X0184856Y0148447D01*
X0185198Y0148645D01*
X0185477Y0148924D01*
X0185674Y0149266D01*
X0185777Y0149647D01*
X0185777Y0152495D01*
X0181233Y0152495D01*
X0181233Y0153494D01*
X0185777Y0153494D01*
X0185777Y0156342D01*
X0185674Y0156723D01*
X0185477Y0157065D01*
X0185286Y0157256D01*
X0206181Y0157256D01*
X0205990Y0157065D01*
X0205792Y0156723D01*
X0205690Y0156342D01*
X0205690Y0153494D01*
X0210233Y0153494D01*
X0210233Y0152495D01*
X0205690Y0152495D01*
X0205690Y0149647D01*
X0205792Y0149266D01*
X0205990Y0148924D01*
X0206269Y0148645D01*
X0206611Y0148447D01*
X0206993Y0148345D01*
X0210233Y0148345D01*
X0210233Y0152494D01*
X0211233Y0152494D01*
X0211233Y0148345D01*
X0214474Y0148345D01*
X0214856Y0148447D01*
X0215198Y0148645D01*
X0215477Y0148924D01*
X0215674Y0149266D01*
X0215733Y0149486D01*
X0215733Y0139756D01*
X0204483Y0139756D01*
X0204483Y0138059D01*
X0204292Y0138250D01*
X0203950Y0138447D01*
X0203569Y0138550D01*
X0200721Y0138550D01*
X0200721Y0134006D01*
X0199722Y0134006D01*
X0199722Y0138550D01*
X0196874Y0138550D01*
X0196493Y0138447D01*
X0196151Y0138250D01*
X0195872Y0137971D01*
X0195674Y0137629D01*
X0195572Y0137247D01*
X0195572Y0134006D01*
X0199721Y0134006D01*
X0199721Y0133006D01*
X0195572Y0133006D01*
X0195572Y0129766D01*
X0195674Y0129384D01*
X0195872Y0129042D01*
X0196151Y0128763D01*
X0196493Y0128565D01*
X0196713Y0128506D01*
X0191983Y0128506D01*
X0191983Y0131006D01*
X0190286Y0131006D01*
X0190477Y0131197D01*
X0190674Y0131540D01*
X0190777Y0131921D01*
X0190777Y0134768D01*
X0186233Y0134768D01*
X0186233Y0135768D01*
X0185233Y0135768D01*
X0185233Y0134768D01*
X0176233Y0134768D01*
X0176233Y0135768D01*
X0175233Y0135768D01*
X0175233Y0134768D01*
X0170690Y0134768D01*
X0170690Y0131921D01*
X0170792Y0131540D01*
X0170990Y0131197D01*
X0171181Y0131006D01*
X0134483Y0131006D01*
X0134483Y0157256D01*
X0134483Y0156331D02*
X0135690Y0156331D01*
X0135690Y0155332D02*
X0134483Y0155332D01*
X0134483Y0154334D02*
X0135690Y0154334D01*
X0134483Y0153335D02*
X0140233Y0153335D01*
X0140233Y0152337D02*
X0141233Y0152337D01*
X0141233Y0153335D02*
X0170233Y0153335D01*
X0170233Y0152337D02*
X0171233Y0152337D01*
X0171233Y0152495D02*
X0171233Y0153494D01*
X0180233Y0153494D01*
X0180233Y0152495D01*
X0175690Y0152495D01*
X0171233Y0152495D01*
X0171233Y0153335D02*
X0180233Y0153335D01*
X0180233Y0152337D02*
X0181233Y0152337D01*
X0181233Y0153335D02*
X0210233Y0153335D01*
X0210233Y0152337D02*
X0211233Y0152337D01*
X0211233Y0151338D02*
X0210233Y0151338D01*
X0210233Y0150340D02*
X0211233Y0150340D01*
X0211233Y0149341D02*
X0210233Y0149341D01*
X0215695Y0149341D02*
X0215733Y0149341D01*
X0215733Y0148343D02*
X0134483Y0148343D01*
X0134483Y0149341D02*
X0135772Y0149341D01*
X0135690Y0150340D02*
X0134483Y0150340D01*
X0134483Y0151338D02*
X0135690Y0151338D01*
X0135690Y0152337D02*
X0134483Y0152337D01*
X0134483Y0147344D02*
X0215733Y0147344D01*
X0215733Y0146346D02*
X0134483Y0146346D01*
X0134483Y0145347D02*
X0215733Y0145347D01*
X0215733Y0144348D02*
X0134483Y0144348D01*
X0134483Y0143350D02*
X0215733Y0143350D01*
X0215733Y0142351D02*
X0134483Y0142351D01*
X0134483Y0141353D02*
X0215733Y0141353D01*
X0215733Y0140354D02*
X0134483Y0140354D01*
X0134483Y0139356D02*
X0171007Y0139356D01*
X0170990Y0139339D02*
X0170792Y0138997D01*
X0170690Y0138615D01*
X0170690Y0135768D01*
X0175233Y0135768D01*
X0175233Y0139918D01*
X0171993Y0139918D01*
X0171611Y0139815D01*
X0171269Y0139618D01*
X0170990Y0139339D01*
X0170690Y0138357D02*
X0134483Y0138357D01*
X0134483Y0137359D02*
X0170690Y0137359D01*
X0170690Y0136360D02*
X0134483Y0136360D01*
X0134483Y0135362D02*
X0175233Y0135362D01*
X0175233Y0136360D02*
X0176233Y0136360D01*
X0176233Y0135768D02*
X0176233Y0139918D01*
X0179474Y0139918D01*
X0179856Y0139815D01*
X0180198Y0139618D01*
X0180477Y0139339D01*
X0180674Y0138997D01*
X0180733Y0138777D01*
X0180792Y0138997D01*
X0180990Y0139339D01*
X0181269Y0139618D01*
X0181611Y0139815D01*
X0181993Y0139918D01*
X0185233Y0139918D01*
X0185233Y0135768D01*
X0180690Y0135768D01*
X0176233Y0135768D01*
X0176233Y0135362D02*
X0185233Y0135362D01*
X0185233Y0136360D02*
X0186233Y0136360D01*
X0186233Y0135768D02*
X0186233Y0139918D01*
X0189474Y0139918D01*
X0189856Y0139815D01*
X0190198Y0139618D01*
X0190477Y0139339D01*
X0190674Y0138997D01*
X0190777Y0138615D01*
X0190777Y0135768D01*
X0186233Y0135768D01*
X0186233Y0135362D02*
X0195572Y0135362D01*
X0195572Y0136360D02*
X0190777Y0136360D01*
X0190777Y0137359D02*
X0195602Y0137359D01*
X0196337Y0138357D02*
X0190777Y0138357D01*
X0190460Y0139356D02*
X0204483Y0139356D01*
X0204483Y0138357D02*
X0204106Y0138357D01*
X0200721Y0138357D02*
X0199722Y0138357D01*
X0199722Y0137359D02*
X0200721Y0137359D01*
X0200721Y0136360D02*
X0199722Y0136360D01*
X0199722Y0135362D02*
X0200721Y0135362D01*
X0200721Y0134363D02*
X0199722Y0134363D01*
X0199721Y0133365D02*
X0190777Y0133365D01*
X0190777Y0134363D02*
X0195572Y0134363D01*
X0195572Y0132366D02*
X0190777Y0132366D01*
X0190575Y0131368D02*
X0195572Y0131368D01*
X0195572Y0130369D02*
X0191983Y0130369D01*
X0191983Y0129371D02*
X0195682Y0129371D01*
X0186233Y0137359D02*
X0185233Y0137359D01*
X0185233Y0138357D02*
X0186233Y0138357D01*
X0186233Y0139356D02*
X0185233Y0139356D01*
X0181007Y0139356D02*
X0180460Y0139356D01*
X0176233Y0139356D02*
X0175233Y0139356D01*
X0175233Y0138357D02*
X0176233Y0138357D01*
X0176233Y0137359D02*
X0175233Y0137359D01*
X0170690Y0134363D02*
X0134483Y0134363D01*
X0134483Y0133365D02*
X0170690Y0133365D01*
X0170690Y0132366D02*
X0134483Y0132366D01*
X0134483Y0131368D02*
X0170891Y0131368D01*
X0171233Y0149341D02*
X0170233Y0149341D01*
X0170233Y0150340D02*
X0171233Y0150340D01*
X0171233Y0151338D02*
X0170233Y0151338D01*
X0165690Y0151338D02*
X0145777Y0151338D01*
X0145777Y0150340D02*
X0165690Y0150340D01*
X0165772Y0149341D02*
X0145695Y0149341D01*
X0145777Y0152337D02*
X0165690Y0152337D01*
X0165690Y0154334D02*
X0145777Y0154334D01*
X0145777Y0155332D02*
X0165690Y0155332D01*
X0165690Y0156331D02*
X0145777Y0156331D01*
X0141233Y0151338D02*
X0140233Y0151338D01*
X0140233Y0150340D02*
X0141233Y0150340D01*
X0141233Y0149341D02*
X0140233Y0149341D01*
X0175695Y0149341D02*
X0175772Y0149341D01*
X0180233Y0149341D02*
X0181233Y0149341D01*
X0181233Y0150340D02*
X0180233Y0150340D01*
X0180233Y0151338D02*
X0181233Y0151338D01*
X0185777Y0151338D02*
X0205690Y0151338D01*
X0205690Y0150340D02*
X0185777Y0150340D01*
X0185695Y0149341D02*
X0205772Y0149341D01*
X0205690Y0152337D02*
X0185777Y0152337D01*
X0185777Y0154334D02*
X0205690Y0154334D01*
X0205690Y0155332D02*
X0185777Y0155332D01*
X0185777Y0156331D02*
X0205690Y0156331D01*
X0299483Y0157329D02*
X0353759Y0157329D01*
X0351833Y0158328D02*
X0299483Y0158328D01*
X0299483Y0159326D02*
X0350834Y0159326D01*
X0349836Y0160325D02*
X0339843Y0160325D01*
X0341187Y0161323D02*
X0349408Y0161323D01*
X0348995Y0162322D02*
X0341975Y0162322D01*
X0342431Y0163320D02*
X0348581Y0163320D01*
X0348533Y0164319D02*
X0342676Y0164319D01*
X0342733Y0165317D02*
X0348533Y0165317D01*
X0348533Y0166316D02*
X0342733Y0166316D01*
X0342733Y0167314D02*
X0348533Y0167314D01*
X0348533Y0168313D02*
X0342733Y0168313D01*
X0342733Y0170310D02*
X0348533Y0170310D01*
X0348533Y0171308D02*
X0342733Y0171308D01*
X0342733Y0172307D02*
X0348533Y0172307D01*
X0348533Y0173305D02*
X0342733Y0173305D01*
X0342557Y0174304D02*
X0348533Y0174304D01*
X0348834Y0175302D02*
X0342173Y0175302D01*
X0337833Y0169311D02*
X0348533Y0169311D01*
X0337833Y0168313D02*
X0336833Y0168313D01*
X0336833Y0169311D02*
X0299483Y0169311D01*
X0299483Y0168313D02*
X0331933Y0168313D01*
X0331933Y0167314D02*
X0299483Y0167314D01*
X0299483Y0166316D02*
X0331933Y0166316D01*
X0331933Y0165317D02*
X0299483Y0165317D01*
X0299483Y0164319D02*
X0331991Y0164319D01*
X0332236Y0163320D02*
X0299483Y0163320D01*
X0299483Y0162322D02*
X0332692Y0162322D01*
X0333480Y0161323D02*
X0299483Y0161323D01*
X0299483Y0160325D02*
X0334823Y0160325D01*
X0336833Y0160325D02*
X0337833Y0160325D01*
X0337833Y0161323D02*
X0336833Y0161323D01*
X0336833Y0162322D02*
X0337833Y0162322D01*
X0337833Y0163320D02*
X0336833Y0163320D01*
X0336833Y0164319D02*
X0337833Y0164319D01*
X0337833Y0165317D02*
X0336833Y0165317D01*
X0336833Y0166316D02*
X0337833Y0166316D01*
X0337833Y0167314D02*
X0336833Y0167314D01*
X0331933Y0170310D02*
X0299483Y0170310D01*
X0299483Y0171308D02*
X0331933Y0171308D01*
X0331933Y0172307D02*
X0299483Y0172307D01*
X0299483Y0173305D02*
X0331933Y0173305D01*
X0332110Y0174304D02*
X0299483Y0174304D01*
X0299483Y0175302D02*
X0332494Y0175302D01*
X0360108Y0157329D02*
X0373459Y0157329D01*
X0360806Y0157329D01*
X0369512Y0160348D02*
X0368233Y0163435D01*
X0368233Y0174577D01*
X0369512Y0177665D01*
X0371875Y0180027D01*
X0374962Y0181306D01*
X0378304Y0181306D01*
X0381392Y0180027D01*
X0383754Y0177665D01*
X0385033Y0174577D01*
X0385033Y0163435D01*
X0383754Y0160348D01*
X0381392Y0157985D01*
X0378304Y0156706D01*
X0374962Y0156706D01*
X0371875Y0157985D01*
X0369512Y0160348D01*
X0371875Y0157985D01*
X0374962Y0156706D01*
X0378304Y0156706D01*
X0381392Y0157985D01*
X0383754Y0160348D01*
X0385033Y0163435D01*
X0385033Y0174577D01*
X0383754Y0177665D01*
X0381392Y0180027D01*
X0378304Y0181306D01*
X0374962Y0181306D01*
X0371875Y0180027D01*
X0369512Y0177665D01*
X0368233Y0174577D01*
X0368233Y0163435D01*
X0369512Y0160348D01*
X0336983Y0113156D02*
X0334483Y0102256D01*
X0339483Y0098506D01*
X0334483Y0094756D01*
X0354483Y0094756D02*
X0359483Y0098506D01*
X0356983Y0102256D01*
X0354483Y0102256D01*
X0366483Y0100414D02*
X0386155Y0100414D01*
X0386155Y0099415D02*
X0366483Y0099415D01*
X0366483Y0098417D02*
X0386155Y0098417D01*
X0386155Y0097418D02*
X0366483Y0097418D01*
X0366483Y0096420D02*
X0386155Y0096420D01*
X0386155Y0095421D02*
X0380440Y0095421D01*
X0381392Y0095027D02*
X0378304Y0096306D01*
X0374962Y0096306D01*
X0371875Y0095027D01*
X0369512Y0092665D01*
X0368233Y0089577D01*
X0368233Y0078435D01*
X0369512Y0075348D01*
X0371875Y0072985D01*
X0374962Y0071706D01*
X0378304Y0071706D01*
X0381392Y0072985D01*
X0383754Y0075348D01*
X0385033Y0078435D01*
X0385033Y0089577D01*
X0383754Y0092665D01*
X0381392Y0095027D01*
X0381996Y0094423D02*
X0386155Y0094423D01*
X0386155Y0093424D02*
X0382995Y0093424D01*
X0383853Y0092426D02*
X0386155Y0092426D01*
X0386155Y0091427D02*
X0384267Y0091427D01*
X0384681Y0090429D02*
X0386155Y0090429D01*
X0386155Y0089430D02*
X0385033Y0089430D01*
X0385033Y0088432D02*
X0386155Y0088432D01*
X0386155Y0087433D02*
X0385033Y0087433D01*
X0385033Y0086435D02*
X0386155Y0086435D01*
X0386155Y0085436D02*
X0385033Y0085436D01*
X0385033Y0084438D02*
X0386155Y0084438D01*
X0386155Y0083439D02*
X0385033Y0083439D01*
X0385033Y0082441D02*
X0386155Y0082441D01*
X0386155Y0081442D02*
X0385033Y0081442D01*
X0385033Y0080444D02*
X0386155Y0080444D01*
X0386155Y0079445D02*
X0385033Y0079445D01*
X0385033Y0078447D02*
X0386155Y0078447D01*
X0386155Y0077448D02*
X0384624Y0077448D01*
X0384211Y0076450D02*
X0386155Y0076450D01*
X0386155Y0075451D02*
X0383797Y0075451D01*
X0382859Y0074453D02*
X0386155Y0074453D01*
X0386155Y0073454D02*
X0381861Y0073454D01*
X0380113Y0072456D02*
X0386155Y0072456D01*
X0386155Y0071457D02*
X0365352Y0071457D01*
X0365766Y0072456D02*
X0373153Y0072456D01*
X0371406Y0073454D02*
X0366180Y0073454D01*
X0366433Y0074453D02*
X0370408Y0074453D01*
X0369469Y0075451D02*
X0366433Y0075451D01*
X0366433Y0076450D02*
X0369056Y0076450D01*
X0368642Y0077448D02*
X0366433Y0077448D01*
X0366433Y0078447D02*
X0368233Y0078447D01*
X0368233Y0079445D02*
X0366433Y0079445D01*
X0366433Y0080444D02*
X0368233Y0080444D01*
X0368233Y0081442D02*
X0366433Y0081442D01*
X0366483Y0082441D02*
X0368233Y0082441D01*
X0368233Y0083439D02*
X0366483Y0083439D01*
X0366483Y0084438D02*
X0368233Y0084438D01*
X0368233Y0085436D02*
X0366483Y0085436D01*
X0366483Y0086435D02*
X0368233Y0086435D01*
X0368233Y0087433D02*
X0366483Y0087433D01*
X0366483Y0088432D02*
X0368233Y0088432D01*
X0368233Y0089430D02*
X0366483Y0089430D01*
X0366483Y0090429D02*
X0368586Y0090429D01*
X0369000Y0091427D02*
X0366483Y0091427D01*
X0366483Y0092426D02*
X0369413Y0092426D01*
X0370272Y0093424D02*
X0366483Y0093424D01*
X0366483Y0094423D02*
X0371271Y0094423D01*
X0372826Y0095421D02*
X0366483Y0095421D01*
X0364871Y0070459D02*
X0386155Y0070459D01*
X0386155Y0069460D02*
X0363872Y0069460D01*
X0362874Y0068462D02*
X0386155Y0068462D01*
X0386155Y0067463D02*
X0376824Y0067463D01*
X0376561Y0067555D02*
X0377833Y0067110D01*
X0379047Y0066526D01*
X0380188Y0065808D01*
X0381242Y0064968D01*
X0382195Y0064015D01*
X0383035Y0062961D01*
X0383753Y0061820D01*
X0384337Y0060606D01*
X0384782Y0059334D01*
X0385082Y0058020D01*
X0385233Y0056680D01*
X0385233Y0056506D01*
X0373733Y0056506D01*
X0372733Y0056506D01*
X0372733Y0055506D01*
X0361233Y0055506D01*
X0361233Y0055332D01*
X0361384Y0053993D01*
X0361684Y0052679D01*
X0362129Y0051407D01*
X0362714Y0050193D01*
X0363431Y0049051D01*
X0364272Y0047998D01*
X0365225Y0047044D01*
X0366278Y0046204D01*
X0367420Y0045487D01*
X0368634Y0044902D01*
X0369906Y0044457D01*
X0371220Y0044157D01*
X0372559Y0044006D01*
X0372733Y0044006D01*
X0372733Y0055506D01*
X0373733Y0055506D01*
X0373733Y0044006D01*
X0373907Y0044006D01*
X0375247Y0044157D01*
X0376561Y0044457D01*
X0377833Y0044902D01*
X0379047Y0045487D01*
X0380188Y0046204D01*
X0381242Y0047044D01*
X0382195Y0047998D01*
X0383035Y0049051D01*
X0383753Y0050193D01*
X0384337Y0051407D01*
X0384782Y0052679D01*
X0385082Y0053993D01*
X0385233Y0055332D01*
X0385233Y0055506D01*
X0373733Y0055506D01*
X0373733Y0056506D01*
X0373733Y0068006D01*
X0373907Y0068006D01*
X0375247Y0067855D01*
X0376561Y0067555D01*
X0379144Y0066465D02*
X0386155Y0066465D01*
X0386155Y0065466D02*
X0380618Y0065466D01*
X0381743Y0064468D02*
X0386155Y0064468D01*
X0386155Y0063469D02*
X0382631Y0063469D01*
X0383344Y0062471D02*
X0386155Y0062471D01*
X0386155Y0061472D02*
X0383920Y0061472D01*
X0384384Y0060474D02*
X0386155Y0060474D01*
X0386155Y0059475D02*
X0384733Y0059475D01*
X0384978Y0058477D02*
X0386155Y0058477D01*
X0386155Y0057478D02*
X0385143Y0057478D01*
X0386155Y0056480D02*
X0373733Y0056480D01*
X0373733Y0057478D02*
X0372733Y0057478D01*
X0372733Y0056506D02*
X0372733Y0068006D01*
X0372559Y0068006D01*
X0371220Y0067855D01*
X0369906Y0067555D01*
X0368634Y0067110D01*
X0367420Y0066526D01*
X0366278Y0065808D01*
X0365225Y0064968D01*
X0364272Y0064015D01*
X0363431Y0062961D01*
X0362714Y0061820D01*
X0362129Y0060606D01*
X0361684Y0059334D01*
X0361384Y0058020D01*
X0361233Y0056680D01*
X0361233Y0056506D01*
X0372733Y0056506D01*
X0372733Y0056480D02*
X0359483Y0056480D01*
X0345733Y0056480D01*
X0345733Y0057478D02*
X0359483Y0057478D01*
X0361323Y0057478D01*
X0361489Y0058477D02*
X0359483Y0058477D01*
X0345733Y0058477D01*
X0345733Y0059475D02*
X0359483Y0059475D01*
X0361734Y0059475D01*
X0362083Y0060474D02*
X0359483Y0060474D01*
X0359483Y0059756D02*
X0345733Y0059756D01*
X0345733Y0040006D01*
X0359483Y0040006D01*
X0359483Y0059756D01*
X0359483Y0061472D02*
X0362547Y0061472D01*
X0363123Y0062471D02*
X0359483Y0062471D01*
X0359483Y0063469D02*
X0363836Y0063469D01*
X0364724Y0064468D02*
X0359483Y0064468D01*
X0359878Y0065466D02*
X0365849Y0065466D01*
X0367323Y0066465D02*
X0360877Y0066465D01*
X0361875Y0067463D02*
X0369642Y0067463D01*
X0372733Y0067463D02*
X0373733Y0067463D01*
X0373733Y0066465D02*
X0372733Y0066465D01*
X0372733Y0065466D02*
X0373733Y0065466D01*
X0373733Y0064468D02*
X0372733Y0064468D01*
X0372733Y0063469D02*
X0373733Y0063469D01*
X0373733Y0062471D02*
X0372733Y0062471D01*
X0372733Y0061472D02*
X0373733Y0061472D01*
X0373733Y0060474D02*
X0372733Y0060474D01*
X0372733Y0059475D02*
X0373733Y0059475D01*
X0373733Y0058477D02*
X0372733Y0058477D01*
X0372733Y0055481D02*
X0373733Y0055481D01*
X0373733Y0054482D02*
X0372733Y0054482D01*
X0372733Y0053484D02*
X0373733Y0053484D01*
X0373733Y0052485D02*
X0372733Y0052485D01*
X0372733Y0051487D02*
X0373733Y0051487D01*
X0373733Y0050488D02*
X0372733Y0050488D01*
X0372733Y0049490D02*
X0373733Y0049490D01*
X0373733Y0048491D02*
X0372733Y0048491D01*
X0372733Y0047493D02*
X0373733Y0047493D01*
X0373733Y0046494D02*
X0372733Y0046494D01*
X0372733Y0045496D02*
X0373733Y0045496D01*
X0373733Y0044497D02*
X0372733Y0044497D01*
X0369791Y0044497D02*
X0359483Y0044497D01*
X0345733Y0044497D01*
X0345733Y0043499D02*
X0359483Y0043499D01*
X0386155Y0043499D01*
X0386155Y0044497D02*
X0376676Y0044497D01*
X0379061Y0045496D02*
X0386155Y0045496D01*
X0386155Y0046494D02*
X0380552Y0046494D01*
X0381690Y0047493D02*
X0386155Y0047493D01*
X0386155Y0048491D02*
X0382589Y0048491D01*
X0383311Y0049490D02*
X0386155Y0049490D01*
X0386155Y0050488D02*
X0383895Y0050488D01*
X0384365Y0051487D02*
X0386155Y0051487D01*
X0386155Y0052485D02*
X0384715Y0052485D01*
X0384966Y0053484D02*
X0386155Y0053484D01*
X0386155Y0054482D02*
X0385138Y0054482D01*
X0385233Y0055481D02*
X0386155Y0055481D01*
X0367406Y0045496D02*
X0359483Y0045496D01*
X0345733Y0045496D01*
X0345733Y0046494D02*
X0359483Y0046494D01*
X0365914Y0046494D01*
X0364776Y0047493D02*
X0359483Y0047493D01*
X0345733Y0047493D01*
X0345733Y0048491D02*
X0359483Y0048491D01*
X0363878Y0048491D01*
X0363156Y0049490D02*
X0359483Y0049490D01*
X0345733Y0049490D01*
X0345733Y0050488D02*
X0359483Y0050488D01*
X0362572Y0050488D01*
X0362101Y0051487D02*
X0359483Y0051487D01*
X0345733Y0051487D01*
X0345733Y0052485D02*
X0359483Y0052485D01*
X0361752Y0052485D01*
X0361500Y0053484D02*
X0359483Y0053484D01*
X0345733Y0053484D01*
X0345733Y0054482D02*
X0359483Y0054482D01*
X0361329Y0054482D01*
X0361233Y0055481D02*
X0359483Y0055481D01*
X0345733Y0055481D01*
X0350633Y0048606D02*
X0353233Y0046006D01*
X0353233Y0041006D01*
X0359483Y0041502D02*
X0345733Y0041502D01*
X0345733Y0042500D02*
X0359483Y0042500D01*
X0359483Y0040503D02*
X0345733Y0040503D01*
X0348233Y0041006D02*
X0348233Y0046006D01*
X0320733Y0046494D02*
X0306983Y0046494D01*
X0306983Y0045496D02*
X0320733Y0045496D01*
X0320733Y0044497D02*
X0306983Y0044497D01*
X0306983Y0043499D02*
X0320733Y0043499D01*
X0320733Y0042500D02*
X0306983Y0042500D01*
X0306983Y0041502D02*
X0320733Y0041502D01*
X0320733Y0040503D02*
X0306983Y0040503D01*
X0306983Y0040006D02*
X0306983Y0059756D01*
X0320733Y0059756D01*
X0320733Y0040006D01*
X0306983Y0040006D01*
X0313233Y0041006D02*
X0313233Y0046006D01*
X0315833Y0048406D02*
X0318233Y0046006D01*
X0318233Y0046206D01*
X0315833Y0048606D01*
X0315833Y0048406D01*
X0318233Y0046006D02*
X0318233Y0041006D01*
X0320733Y0047493D02*
X0306983Y0047493D01*
X0306983Y0048491D02*
X0320733Y0048491D01*
X0320733Y0049490D02*
X0306983Y0049490D01*
X0306983Y0050488D02*
X0320733Y0050488D01*
X0320733Y0051487D02*
X0306983Y0051487D01*
X0306983Y0052485D02*
X0320733Y0052485D01*
X0320733Y0053484D02*
X0306983Y0053484D01*
X0306983Y0054482D02*
X0320733Y0054482D01*
X0320733Y0055481D02*
X0306983Y0055481D01*
X0306983Y0056480D02*
X0320733Y0056480D01*
X0320733Y0057478D02*
X0306983Y0057478D01*
X0306983Y0058477D02*
X0320733Y0058477D01*
X0320733Y0059475D02*
X0306983Y0059475D01*
X0201294Y0071457D02*
X0104032Y0071457D01*
X0103034Y0072456D02*
X0110534Y0072456D01*
X0109535Y0073454D02*
X0102035Y0073454D01*
X0101037Y0074453D02*
X0108537Y0074453D01*
X0107538Y0075451D02*
X0100038Y0075451D01*
X0099040Y0076450D02*
X0106540Y0076450D01*
X0105541Y0077448D02*
X0098041Y0077448D01*
X0097043Y0078447D02*
X0104543Y0078447D01*
X0103544Y0079445D02*
X0096044Y0079445D01*
X0095046Y0080444D02*
X0102546Y0080444D01*
X0101547Y0081442D02*
X0094047Y0081442D01*
X0093049Y0082441D02*
X0100549Y0082441D01*
X0099550Y0083439D02*
X0092050Y0083439D01*
X0091052Y0084438D02*
X0098552Y0084438D01*
X0097553Y0085436D02*
X0090053Y0085436D01*
X0089055Y0086435D02*
X0096555Y0086435D01*
X0095556Y0087433D02*
X0088056Y0087433D01*
X0087058Y0088432D02*
X0094558Y0088432D01*
X0093559Y0089430D02*
X0086059Y0089430D01*
X0085061Y0090429D02*
X0092561Y0090429D01*
X0091562Y0091427D02*
X0082167Y0091427D01*
X0090733Y0092426D02*
X0069483Y0092426D01*
X0069483Y0093424D02*
X0090733Y0093424D01*
X0029983Y0096420D02*
X0010233Y0096420D01*
X0010233Y0097418D02*
X0029983Y0097418D01*
X0029983Y0098417D02*
X0010233Y0098417D01*
X0010233Y0099415D02*
X0029983Y0099415D01*
D29*
X0175733Y0124244D02*
X0185733Y0124244D01*
X0185960Y0124018D01*
X0185960Y0113733D01*
X0185733Y0113506D01*
X0185960Y0113733D02*
X0195586Y0113733D01*
X0195586Y0095780D02*
X0200960Y0095780D01*
X0204483Y0092256D01*
X0204483Y0087256D01*
X0206983Y0084756D01*
X0244237Y0084756D01*
X0244483Y0085002D01*
X0253479Y0085002D01*
X0258233Y0089756D01*
X0258233Y0132994D01*
X0257722Y0133506D01*
X0257210Y0132994D01*
X0245733Y0132994D01*
X0234483Y0114756D02*
X0230733Y0111006D01*
X0230576Y0111006D01*
X0224326Y0104756D01*
X0234483Y0114756D02*
X0234483Y0168506D01*
X0228233Y0174756D01*
X0228233Y0177256D01*
D30*
X0228233Y0177256D03*
X0231983Y0172256D03*
X0234483Y0166006D03*
X0234483Y0158506D03*
X0234483Y0151006D03*
X0234483Y0143506D03*
X0234483Y0136006D03*
X0234483Y0128506D03*
X0234483Y0121006D03*
X0233233Y0116006D03*
X0226983Y0116006D03*
X0226983Y0111006D03*
X0233233Y0111006D03*
X0233233Y0104756D03*
X0226983Y0104756D03*
X0220733Y0104756D03*
X0214483Y0104756D03*
X0214483Y0111006D03*
X0220733Y0111006D03*
X0220733Y0116006D03*
X0214483Y0116006D03*
X0239483Y0116006D03*
X0245733Y0116006D03*
X0245733Y0111006D03*
X0245733Y0104756D03*
X0233233Y0098506D03*
X0226983Y0098506D03*
X0226983Y0093506D03*
X0233233Y0093506D03*
X0220733Y0093506D03*
X0214483Y0093506D03*
X0214483Y0098506D03*
X0220733Y0098506D03*
X0223233Y0069756D03*
X0215733Y0069756D03*
X0208233Y0069756D03*
X0200733Y0069756D03*
X0193233Y0069756D03*
X0185733Y0069756D03*
X0178233Y0069756D03*
X0170733Y0069756D03*
X0163233Y0069756D03*
X0155733Y0069756D03*
X0148233Y0069756D03*
X0140733Y0069756D03*
X0133233Y0069756D03*
X0125733Y0069756D03*
X0118233Y0069756D03*
X0110733Y0069756D03*
X0105733Y0072256D03*
X0100733Y0077256D03*
X0095733Y0082256D03*
X0090733Y0087256D03*
X0085733Y0092256D03*
X0079483Y0093506D03*
X0070733Y0093506D03*
X0061983Y0098506D03*
X0056983Y0094756D03*
X0056983Y0102256D03*
X0070733Y0101006D03*
X0070733Y0108506D03*
X0070733Y0116006D03*
X0070733Y0123506D03*
X0070733Y0131006D03*
X0069483Y0138506D03*
X0064483Y0142256D03*
X0058233Y0142256D03*
X0050733Y0139756D03*
X0048233Y0133506D03*
X0046983Y0128506D03*
X0040733Y0128506D03*
X0038233Y0134756D03*
X0038233Y0142256D03*
X0038233Y0151006D03*
X0029483Y0161006D03*
X0050733Y0159756D03*
X0050733Y0172256D03*
X0069483Y0173506D03*
X0075733Y0173506D03*
X0081983Y0173506D03*
X0088233Y0173506D03*
X0088233Y0167256D03*
X0088233Y0161006D03*
X0088233Y0153506D03*
X0086983Y0147256D03*
X0086983Y0142256D03*
X0086983Y0137256D03*
X0088233Y0131006D03*
X0088233Y0123506D03*
X0088233Y0116006D03*
X0088233Y0108506D03*
X0088233Y0101006D03*
X0041983Y0098506D03*
X0036983Y0094756D03*
X0036983Y0102256D03*
X0011983Y0133506D03*
X0016983Y0137256D03*
X0011983Y0141006D03*
X0016983Y0144756D03*
X0011983Y0148506D03*
X0029483Y0177256D03*
X0029483Y0183506D03*
X0029483Y0189756D03*
X0029483Y0196006D03*
X0050733Y0194756D03*
X0050733Y0207256D03*
X0056983Y0211006D03*
X0056983Y0218506D03*
X0051983Y0227256D03*
X0040733Y0227256D03*
X0043233Y0239756D03*
X0035733Y0239756D03*
X0050733Y0239756D03*
X0058233Y0239756D03*
X0065733Y0239756D03*
X0073233Y0239756D03*
X0080733Y0239756D03*
X0088233Y0239756D03*
X0095733Y0239756D03*
X0103233Y0239756D03*
X0110733Y0239756D03*
X0118233Y0239756D03*
X0125733Y0239756D03*
X0133233Y0239756D03*
X0140733Y0239756D03*
X0148233Y0239756D03*
X0155733Y0239756D03*
X0163233Y0239756D03*
X0170733Y0239756D03*
X0178233Y0239756D03*
X0185733Y0239756D03*
X0193233Y0239756D03*
X0200733Y0239756D03*
X0210733Y0239756D03*
X0221983Y0239756D03*
X0234483Y0239756D03*
X0245733Y0239756D03*
X0254483Y0239756D03*
X0261983Y0239756D03*
X0269483Y0239756D03*
X0278233Y0239756D03*
X0285733Y0239756D03*
X0293233Y0239756D03*
X0301983Y0239756D03*
X0310733Y0239756D03*
X0319483Y0239756D03*
X0328233Y0239756D03*
X0336983Y0239756D03*
X0345733Y0239756D03*
X0353233Y0239756D03*
X0360733Y0239756D03*
X0350733Y0227256D03*
X0358233Y0226006D03*
X0341983Y0223506D03*
X0341983Y0213506D03*
X0345733Y0206006D03*
X0345733Y0193506D03*
X0326983Y0193506D03*
X0320733Y0193506D03*
X0314483Y0193506D03*
X0308233Y0193506D03*
X0301983Y0193506D03*
X0301983Y0199756D03*
X0301983Y0206006D03*
X0301983Y0212256D03*
X0301983Y0219756D03*
X0293233Y0219756D03*
X0285733Y0219756D03*
X0278233Y0219756D03*
X0269483Y0219756D03*
X0261983Y0219756D03*
X0254483Y0219756D03*
X0245733Y0219756D03*
X0245733Y0212256D03*
X0245733Y0206006D03*
X0245733Y0199756D03*
X0234483Y0199756D03*
X0228233Y0199756D03*
X0221983Y0199756D03*
X0221983Y0206006D03*
X0228233Y0206006D03*
X0234483Y0206006D03*
X0234483Y0193506D03*
X0240733Y0193506D03*
X0245733Y0193506D03*
X0228233Y0193506D03*
X0228233Y0188506D03*
X0221983Y0193506D03*
X0215733Y0193506D03*
X0210733Y0193506D03*
X0210733Y0199756D03*
X0210733Y0206006D03*
X0210733Y0212256D03*
X0210733Y0219756D03*
X0200733Y0219756D03*
X0193233Y0219756D03*
X0185733Y0219756D03*
X0178233Y0219756D03*
X0170733Y0219756D03*
X0163233Y0219756D03*
X0155733Y0219756D03*
X0148233Y0219756D03*
X0140733Y0219756D03*
X0133233Y0219756D03*
X0125733Y0219756D03*
X0118233Y0219756D03*
X0110733Y0219756D03*
X0103233Y0219756D03*
X0095733Y0219756D03*
X0088233Y0219756D03*
X0088233Y0213506D03*
X0088233Y0207256D03*
X0088233Y0201006D03*
X0088233Y0194756D03*
X0081983Y0194756D03*
X0075733Y0194756D03*
X0069483Y0194756D03*
X0021983Y0212256D03*
X0011983Y0212256D03*
X0136983Y0146006D03*
X0136983Y0139756D03*
X0143233Y0146006D03*
X0149483Y0146006D03*
X0149483Y0152256D03*
X0155733Y0152256D03*
X0161983Y0152256D03*
X0161983Y0146006D03*
X0168233Y0146006D03*
X0173233Y0142256D03*
X0175733Y0147256D03*
X0179483Y0142256D03*
X0185733Y0142256D03*
X0186983Y0147256D03*
X0188233Y0152256D03*
X0193233Y0152256D03*
X0198233Y0152256D03*
X0203233Y0152256D03*
X0204483Y0147256D03*
X0198233Y0142256D03*
X0193233Y0136006D03*
X0193233Y0131006D03*
X0210733Y0142256D03*
X0213233Y0146006D03*
X0168233Y0133506D03*
X0161983Y0133506D03*
X0155733Y0133506D03*
X0149483Y0133506D03*
X0143233Y0133506D03*
X0136983Y0133506D03*
X0230733Y0069756D03*
X0238233Y0069756D03*
X0245733Y0069756D03*
X0253233Y0069756D03*
X0260733Y0069756D03*
X0268233Y0069756D03*
X0275733Y0069756D03*
X0283233Y0069756D03*
X0289483Y0072256D03*
X0295733Y0077256D03*
X0300733Y0082256D03*
X0305733Y0087256D03*
X0310733Y0092256D03*
X0318233Y0094756D03*
X0324483Y0096006D03*
X0324483Y0102256D03*
X0324483Y0109756D03*
X0324483Y0117256D03*
X0324483Y0124756D03*
X0324483Y0132256D03*
X0326983Y0138506D03*
X0333233Y0142256D03*
X0341983Y0142256D03*
X0348233Y0137256D03*
X0355733Y0129756D03*
X0349483Y0128506D03*
X0359483Y0134756D03*
X0359483Y0142256D03*
X0359483Y0149756D03*
X0361983Y0156006D03*
X0366983Y0161006D03*
X0350733Y0156006D03*
X0345733Y0161006D03*
X0345733Y0173506D03*
X0326983Y0173506D03*
X0320733Y0173506D03*
X0314483Y0173506D03*
X0308233Y0173506D03*
X0301983Y0173506D03*
X0301983Y0167256D03*
X0301983Y0161006D03*
X0301983Y0154756D03*
X0301983Y0148506D03*
X0306983Y0143506D03*
X0306983Y0138506D03*
X0301983Y0132256D03*
X0301983Y0124756D03*
X0301983Y0117256D03*
X0301983Y0109756D03*
X0301983Y0102256D03*
X0301983Y0096006D03*
X0334483Y0094756D03*
X0339483Y0098506D03*
X0334483Y0102256D03*
X0354483Y0102256D03*
X0359483Y0098506D03*
X0354483Y0094756D03*
X0383233Y0133506D03*
X0379483Y0137256D03*
X0383233Y0139756D03*
X0379483Y0143506D03*
X0383233Y0148506D03*
X0366983Y0178506D03*
X0366983Y0184756D03*
X0366983Y0191006D03*
X0373233Y0212256D03*
X0383233Y0212256D03*
X0280733Y0148506D03*
X0275733Y0146006D03*
X0280733Y0142256D03*
X0275733Y0139756D03*
X0280733Y0136006D03*
X0275733Y0133506D03*
X0280733Y0129756D03*
X0275733Y0127256D03*
X0268233Y0127256D03*
X0268233Y0149756D03*
X0308233Y0056006D03*
X0308233Y0051006D03*
X0313233Y0051006D03*
X0318233Y0051006D03*
X0318233Y0046006D03*
X0313233Y0046006D03*
X0313233Y0041006D03*
X0318233Y0041006D03*
X0308233Y0043506D03*
X0304483Y0047256D03*
X0298233Y0047256D03*
X0290733Y0047256D03*
X0283233Y0047256D03*
X0275733Y0047256D03*
X0268233Y0047256D03*
X0260733Y0047256D03*
X0253233Y0047256D03*
X0245733Y0047256D03*
X0238233Y0047256D03*
X0230733Y0047256D03*
X0223233Y0047256D03*
X0215733Y0047256D03*
X0208233Y0047256D03*
X0200733Y0047256D03*
X0193233Y0047256D03*
X0185733Y0047256D03*
X0178233Y0047256D03*
X0170733Y0047256D03*
X0163233Y0047256D03*
X0155733Y0047256D03*
X0148233Y0047256D03*
X0140733Y0047256D03*
X0133233Y0047256D03*
X0125733Y0047256D03*
X0118233Y0047256D03*
X0110733Y0047256D03*
X0103233Y0047256D03*
X0095733Y0047256D03*
X0089483Y0047256D03*
X0086983Y0051006D03*
X0083233Y0051006D03*
X0078233Y0051006D03*
X0078233Y0046006D03*
X0083233Y0046006D03*
X0083233Y0041006D03*
X0078233Y0041006D03*
X0088233Y0042256D03*
X0086983Y0056006D03*
X0083233Y0056006D03*
X0078233Y0056006D03*
X0048233Y0056006D03*
X0043233Y0056006D03*
X0043233Y0051006D03*
X0038233Y0051006D03*
X0043233Y0046006D03*
X0038233Y0044756D03*
X0043233Y0041006D03*
X0048233Y0041006D03*
X0048233Y0046006D03*
X0048233Y0051006D03*
X0313233Y0056006D03*
X0318233Y0056006D03*
X0348233Y0056006D03*
X0348233Y0051006D03*
X0348233Y0046006D03*
X0348233Y0041006D03*
X0353233Y0041006D03*
X0359483Y0044756D03*
X0353233Y0046006D03*
X0353233Y0051006D03*
X0358233Y0049756D03*
X0353233Y0056006D03*
D31*
X0210733Y0164018D02*
X0210733Y0172994D01*
X0201757Y0172994D01*
X0201245Y0173506D01*
X0190222Y0173506D02*
X0181245Y0173506D01*
X0181245Y0164530D01*
X0180733Y0164018D01*
X0170733Y0164018D02*
X0170733Y0173506D01*
X0170222Y0173506D01*
X0161245Y0173506D01*
X0150222Y0173506D02*
X0149710Y0172994D01*
X0140733Y0172994D01*
X0140733Y0164018D01*
X0140733Y0184018D02*
X0040272Y0184018D01*
X0039533Y0184756D01*
X0039533Y0168506D01*
X0039533Y0184756D02*
X0039533Y0198006D01*
X0256245Y0183506D02*
X0356933Y0183506D01*
X0356933Y0169006D01*
X0356933Y0183506D02*
X0356933Y0198506D01*
D32*
X0337485Y0131223D02*
X0337333Y0131071D01*
X0337333Y0113506D01*
X0336983Y0113156D01*
X0336983Y0081006D01*
X0337333Y0081356D01*
X0337333Y0084006D01*
X0336833Y0083506D01*
X0318233Y0083506D01*
X0293233Y0058506D01*
X0103233Y0058506D01*
X0079483Y0082256D01*
X0059483Y0082256D01*
X0059483Y0112656D01*
X0059133Y0113006D01*
X0059133Y0131071D01*
X0058981Y0131223D01*
X0039533Y0117206D02*
X0039483Y0117256D01*
X0039483Y0083556D01*
X0039533Y0083506D01*
X0039433Y0076056D01*
X0048233Y0067256D01*
X0056983Y0067256D01*
X0063233Y0061006D01*
X0063233Y0048606D01*
X0059483Y0081006D02*
X0059133Y0081356D01*
X0059133Y0083506D01*
X0059483Y0082256D02*
X0059483Y0081006D01*
X0039533Y0113006D02*
X0039533Y0117206D01*
X0333233Y0059756D02*
X0333233Y0048606D01*
X0333233Y0059756D02*
X0340733Y0067256D01*
X0348233Y0067256D01*
X0356933Y0075956D01*
X0356933Y0084006D01*
X0356983Y0084056D01*
X0356983Y0102256D01*
X0356983Y0117256D01*
X0356933Y0117206D01*
X0356933Y0113506D01*
D33*
X0105733Y0168506D03*
M02*
