G75*
%MOIN*%
%OFA0B0*%
%FSLAX25Y25*%
%IPPOS*%
%LPD*%
%AMOC8*
5,1,8,0,0,1.08239X$1,22.5*
%
%ADD10C,0.10000*%
%ADD11R,0.20000X0.18750*%
%ADD12R,0.28750X0.27500*%
%ADD13C,0.06400*%
%ADD14C,0.21800*%
%ADD15C,0.10700*%
%ADD16C,0.08600*%
%ADD17OC8,0.07800*%
%ADD18R,0.09800X0.20800*%
D10*
X0039483Y0079756D02*
X0039483Y0117256D01*
X0059483Y0131006D02*
X0059483Y0081006D01*
X0336983Y0081006D02*
X0336983Y0131006D01*
X0338233Y0131006D01*
X0356983Y0117256D02*
X0356983Y0079756D01*
D11*
X0228233Y0200381D03*
D12*
X0223858Y0104756D03*
D13*
X0185733Y0110706D02*
X0185733Y0116306D01*
X0185733Y0086306D02*
X0185733Y0080706D01*
X0130733Y0080706D02*
X0130733Y0086306D01*
X0130733Y0110706D02*
X0130733Y0116306D01*
X0130733Y0165706D02*
X0130733Y0171306D01*
X0130733Y0195706D02*
X0130733Y0201306D01*
X0265733Y0201306D02*
X0265733Y0195706D01*
X0265733Y0171306D02*
X0265733Y0165706D01*
X0265733Y0116306D02*
X0265733Y0110706D01*
X0265733Y0086306D02*
X0265733Y0080706D01*
D14*
X0373233Y0056006D03*
X0373233Y0228506D03*
X0023233Y0228506D03*
X0023233Y0056006D03*
D15*
X0154183Y0088556D02*
X0154183Y0098456D01*
X0169783Y0098456D02*
X0169783Y0088556D01*
D16*
X0118233Y0087406D02*
X0118233Y0079606D01*
X0118233Y0109106D02*
X0118233Y0116906D01*
X0059133Y0116906D02*
X0059133Y0109106D01*
X0039533Y0109106D02*
X0039533Y0116906D01*
X0019833Y0116906D02*
X0019833Y0109106D01*
X0019833Y0087406D02*
X0019833Y0079606D01*
X0039533Y0079606D02*
X0039533Y0087406D01*
X0059133Y0087406D02*
X0059133Y0079606D01*
X0059133Y0164606D02*
X0059133Y0172406D01*
X0039533Y0172406D02*
X0039533Y0164606D01*
X0019833Y0164606D02*
X0019833Y0172406D01*
X0019833Y0194106D02*
X0019833Y0201906D01*
X0039533Y0201906D02*
X0039533Y0194106D01*
X0059133Y0194106D02*
X0059133Y0201906D01*
X0118233Y0201906D02*
X0118233Y0194106D01*
X0118233Y0172406D02*
X0118233Y0164606D01*
X0278233Y0165106D02*
X0278233Y0172906D01*
X0278233Y0194606D02*
X0278233Y0202406D01*
X0337333Y0202406D02*
X0337333Y0194606D01*
X0356933Y0194606D02*
X0356933Y0202406D01*
X0376633Y0202406D02*
X0376633Y0194606D01*
X0376633Y0172906D02*
X0376633Y0165106D01*
X0356933Y0165106D02*
X0356933Y0172906D01*
X0337333Y0172906D02*
X0337333Y0165106D01*
X0337333Y0117406D02*
X0337333Y0109606D01*
X0356933Y0109606D02*
X0356933Y0117406D01*
X0376633Y0117406D02*
X0376633Y0109606D01*
X0376633Y0087906D02*
X0376633Y0080106D01*
X0356933Y0080106D02*
X0356933Y0087906D01*
X0337333Y0087906D02*
X0337333Y0080106D01*
X0278233Y0080106D02*
X0278233Y0087906D01*
X0278233Y0109606D02*
X0278233Y0117406D01*
D17*
X0337485Y0131223D03*
X0368981Y0145790D03*
X0351481Y0216223D03*
X0319985Y0230790D03*
X0076481Y0230790D03*
X0044985Y0216223D03*
X0027485Y0145790D03*
X0058981Y0131223D03*
D18*
X0045833Y0048606D03*
X0080633Y0048606D03*
X0315833Y0048606D03*
X0350633Y0048606D03*
M02*
